<svg width="48" height="48" viewBox="0 0 48 48" fill="none" xmlns="http://www.w3.org/2000/svg">
<g filter="url(#filter0_d_248_123)">
<g clip-path="url(#clip0_248_123)">
<path d="M8 24C8 15.1634 15.1634 8 24 8C32.8366 8 40 15.1634 40 24C40 32.8366 32.8366 40 24 40C15.1634 40 8 32.8366 8 24Z" fill="white"/>
<g style="mix-blend-mode:multiply" opacity="0.33">
<path d="M72.3612 22.1573C73.6518 24.1823 75.8036 24.7725 76.7181 24.8145V37.5025H-0.80645V18.1776C0.292015 18.5492 2.88392 20.2214 4.46384 23.9375C6.43874 28.5827 9.41499 25.6342 10.611 24.7441C11.8071 23.8541 13.9211 23.5759 15.2284 23.715C16.5357 23.8541 18.5941 24.16 19.5676 22.4355C20.5411 20.7109 21.524 19.5895 24.185 20.0155C26.5493 20.099 27.5784 20.0712 28.6911 19.2367C29.8037 18.4022 33.1137 16.4552 35.478 18.8473C37.8423 21.2394 40.2901 22.3242 42.8491 19.0976C45.4081 15.871 48.134 16.2604 49.191 17.3174C50.248 18.3744 50.944 21.5963 53.4911 22.5433C55.6557 22.9736 56.9203 23.681 59.2046 26.0515C62.153 29.1112 63.9332 26.4131 65.2961 23.1309C66.6591 19.8486 70.748 19.6261 72.3612 22.1573Z" fill="url(#paint0_linear_248_123)"/>
</g>
<path d="M76.7242 24.7965C75.8126 24.7545 73.6678 24.1643 72.3814 22.1393C70.7733 19.6081 66.6976 19.8306 65.339 23.1129C63.9804 26.3951 62.206 29.0932 59.267 26.0335C56.3281 22.9738 56.0603 23.3629 53.5278 22.5844C50.9708 21.7983 50.9121 19.1539 49.0923 17.3282C48.0388 16.2712 45.515 15.853 42.9642 19.0796C40.4134 22.3062 37.9735 21.2214 35.6168 18.8293C33.2601 16.4372 29.9608 18.3842 28.8517 19.2187C27.7427 20.0532 26.4166 20.3122 24.3601 19.9975C21.798 19.6055 20.728 20.6929 19.7576 22.4175C18.7872 24.142 16.7355 23.8361 15.4324 23.697C14.1293 23.5579 12.0221 23.8361 10.8299 24.7262C9.63767 25.6162 6.67099 28.5647 4.70245 23.9195C3.12762 20.2034 0.544049 18.5312 -0.550881 18.1596" stroke="#2263FE" stroke-width="0.253274" stroke-linecap="round" stroke-linejoin="round"/>
<g style="mix-blend-mode:multiply" opacity="0.33">
<path d="M72.1293 27.7221C73.4199 29.7471 75.5717 30.3373 76.4862 30.3793V43.0673H-1.03835V23.7424C0.060112 24.114 2.65202 25.7862 4.23193 29.5023C6.20683 34.1475 9.18308 31.1991 10.3791 30.309C11.5752 29.4189 13.6892 29.1407 14.9965 29.2798C16.3038 29.4189 18.3622 29.7248 19.3357 28.0003C20.3092 26.2757 21.2921 25.1543 23.9531 25.5803C26.3174 25.6638 27.3465 25.636 28.4592 24.8015C29.5718 23.9671 32.8818 22.02 35.2461 24.4121C37.6104 26.8042 40.0582 27.889 42.6172 24.6624C45.1762 21.4359 47.9021 21.8253 48.9591 22.8823C50.0161 23.9392 50.7121 27.1612 53.2592 28.1082C55.4238 28.5384 56.6884 29.2458 58.9727 31.6163C61.9211 34.676 63.7013 31.9779 65.0642 28.6957C66.4272 25.4135 70.5161 25.1909 72.1293 27.7221Z" fill="url(#paint1_linear_248_123)"/>
</g>
<path d="M76.4924 30.3613C75.5808 30.3193 73.436 29.7291 72.1495 27.7041C70.5414 25.1729 66.4657 25.3955 65.1071 28.6777C63.7486 31.9599 61.9741 34.658 59.0352 31.5983C56.0962 28.5386 55.8284 28.9277 53.2959 28.1492C50.7389 27.3631 50.6802 24.7187 48.8605 22.893C47.8069 21.836 45.2831 21.4179 42.7323 24.6444C40.1816 27.871 37.7417 26.7862 35.385 24.3941C33.0283 22.002 29.7289 23.9491 28.6198 24.7835C27.5108 25.618 26.1847 25.877 24.1282 25.5624C21.5661 25.1704 20.4962 26.2577 19.5257 27.9823C18.5553 29.7068 16.5036 29.4009 15.2005 29.2618C13.8974 29.1227 11.7902 29.4009 10.598 30.291C9.40579 31.1811 6.43912 34.1295 4.47058 29.4843C2.89575 25.7682 0.312177 24.096 -0.782754 23.7244" stroke="#2263FE" stroke-width="0.253274" stroke-linecap="round" stroke-linejoin="round"/>
<g style="mix-blend-mode:multiply" opacity="0.33">
<path d="M71.8975 33.287C73.1881 35.3119 75.3398 35.9022 76.2544 35.9442V48.6321H-1.2702V29.3073C-0.17173 29.6788 2.42017 31.351 4.00009 35.0671C5.97499 39.7123 8.95124 36.7639 10.1473 35.8738C11.3434 34.9837 13.4573 34.7055 14.7647 34.8446C16.072 34.9837 18.1303 35.2897 19.1039 33.5651C20.0774 31.8406 21.0602 30.7191 23.7212 31.1452C26.0855 31.2286 27.1147 31.2008 28.2273 30.3663C29.3399 29.5319 32.65 27.5848 35.0143 29.9769C37.3786 32.369 39.8263 33.4538 42.3854 30.2273C44.9444 27.0007 47.6703 27.3901 48.7273 28.4471C49.7843 29.5041 50.4803 32.726 53.0274 33.673C55.192 34.1032 56.4566 34.8107 58.7408 37.1811C61.6892 40.2408 63.4694 37.5427 64.8324 34.2605C66.1953 30.9783 70.2842 30.7558 71.8975 33.287Z" fill="url(#paint2_linear_248_123)"/>
</g>
<path d="M76.2605 35.9262C75.3489 35.8842 73.2041 35.2939 71.9176 33.269C70.3096 30.7378 66.2338 30.9603 64.8753 34.2425C63.5167 37.5247 61.7422 40.2228 58.8033 37.1631C55.8644 34.1034 55.5966 34.4925 53.064 33.714C50.5071 32.9279 50.4484 30.2835 48.6286 28.4579C47.575 27.4009 45.0512 26.9827 42.5005 30.2093C39.9497 33.4358 37.5098 32.351 35.1531 29.9589C32.7964 27.5668 29.497 29.5139 28.388 30.3483C27.2789 31.1828 25.9528 31.4418 23.8964 31.1272C21.3343 30.7352 20.2643 31.8226 19.2939 33.5471C18.3235 35.2717 16.2718 34.9657 14.9686 34.8266C13.6655 34.6875 11.5583 34.9657 10.3661 35.8558C9.17392 36.7459 6.20725 39.6943 4.23871 35.0491C2.66387 31.333 0.0803043 29.6608 -1.01463 29.2893" stroke="#2263FE" stroke-width="0.253274" stroke-linecap="round" stroke-linejoin="round"/>
</g>
</g>
<defs>
<filter id="filter0_d_248_123" x="0.986301" y="0.986301" width="46.0274" height="46.0274" filterUnits="userSpaceOnUse" color-interpolation-filters="sRGB">
<feFlood flood-opacity="0" result="BackgroundImageFix"/>
<feColorMatrix in="SourceAlpha" type="matrix" values="0 0 0 0 0 0 0 0 0 0 0 0 0 0 0 0 0 0 127 0" result="hardAlpha"/>
<feOffset/>
<feGaussianBlur stdDeviation="3.50685"/>
<feComposite in2="hardAlpha" operator="out"/>
<feColorMatrix type="matrix" values="0 0 0 0 0.508333 0 0 0 0 0.508333 0 0 0 0 0.508333 0 0 0 0.26 0"/>
<feBlend mode="normal" in2="BackgroundImageFix" result="effect1_dropShadow_248_123"/>
<feBlend mode="normal" in="SourceGraphic" in2="effect1_dropShadow_248_123" result="shape"/>
</filter>
<linearGradient id="paint0_linear_248_123" x1="37.9558" y1="16.5571" x2="37.9558" y2="38.2092" gradientUnits="userSpaceOnUse">
<stop stop-color="#2263FE"/>
<stop offset="0.677083" stop-color="#B7CCFF"/>
<stop offset="1" stop-color="white"/>
</linearGradient>
<linearGradient id="paint1_linear_248_123" x1="37.7239" y1="22.1219" x2="37.7239" y2="43.774" gradientUnits="userSpaceOnUse">
<stop stop-color="#2263FE"/>
<stop offset="0.677083" stop-color="#B7CCFF"/>
<stop offset="1" stop-color="white"/>
</linearGradient>
<linearGradient id="paint2_linear_248_123" x1="37.4921" y1="27.6868" x2="37.4921" y2="49.3388" gradientUnits="userSpaceOnUse">
<stop stop-color="#2263FE"/>
<stop offset="0.677083" stop-color="#B7CCFF"/>
<stop offset="1" stop-color="white"/>
</linearGradient>
<clipPath id="clip0_248_123">
<rect x="8" y="8" width="32" height="32" rx="16" fill="white"/>
</clipPath>
</defs>
</svg>
