<svg width="32" height="32" viewBox="0 0 32 32" fill="none" xmlns="http://www.w3.org/2000/svg">
<g clip-path="url(#clip0_14_419)">
<g filter="url(#filter0_d_14_419)">
<path d="M0 7.04C0 3.15192 3.15192 0 7.04 0H24.96C28.8481 0 32 3.15192 32 7.04V24.96C32 28.8481 28.8481 32 24.96 32H7.04C3.15192 32 0 28.8481 0 24.96V7.04Z" fill="#2263FE"/>
</g>
<path fill-rule="evenodd" clip-rule="evenodd" d="M12.1594 6.95143C11.9166 8.23776 10.5327 15.4837 10.2483 16.9612C9.96401 18.4388 11.1826 19.7632 12.379 19.7632C13.5755 19.7632 13.7336 19.7632 14.2247 19.7632C14.7158 19.7632 15.4469 20.1081 15.1717 21.3644C14.8965 22.6207 14.6119 23.913 14.3322 25.1337C14.0525 26.3544 15.4543 26.8465 16.0621 25.8949C16.6699 24.9433 21.2081 17.68 21.7303 16.7032C22.2526 15.7264 21.3972 14.2159 20.1096 14.2159C18.8221 14.2159 18.2893 14.2159 17.6139 14.2159C16.9385 14.2159 16.8437 13.7337 17.0889 12.7404C17.334 11.7471 17.6287 10.4478 18.0845 8.54367C18.5402 6.63952 16.7037 5.60522 15.736 5.60522C14.7684 5.60522 13.7279 5.60522 13.4411 5.60522C13.1542 5.60522 12.4022 5.6651 12.1594 6.95143Z" fill="white"/>
</g>
<defs>
<filter id="filter0_d_14_419" x="-12.8" y="-5.12" width="57.6" height="57.6" filterUnits="userSpaceOnUse" color-interpolation-filters="sRGB">
<feFlood flood-opacity="0" result="BackgroundImageFix"/>
<feColorMatrix in="SourceAlpha" type="matrix" values="0 0 0 0 0 0 0 0 0 0 0 0 0 0 0 0 0 0 127 0" result="hardAlpha"/>
<feOffset dy="7.68"/>
<feGaussianBlur stdDeviation="6.4"/>
<feColorMatrix type="matrix" values="0 0 0 0 0.101961 0 0 0 0 0.101961 0 0 0 0 0.101961 0 0 0 0.16 0"/>
<feBlend mode="normal" in2="BackgroundImageFix" result="effect1_dropShadow_14_419"/>
<feBlend mode="normal" in="SourceGraphic" in2="effect1_dropShadow_14_419" result="shape"/>
</filter>
<clipPath id="clip0_14_419">
<rect width="32" height="32" rx="7.52716" fill="white"/>
</clipPath>
</defs>
</svg>
