<svg viewBox="0 0 312 74" fill="none" xmlns="http://www.w3.org/2000/svg">
<rect x="0.609435" y="1.60943" width="309.895" height="71.2963" rx="15.765" fill="#FFF4E2"/>
<rect x="0.609435" y="1.60943" width="309.895" height="71.2963" rx="15.765" stroke="#FFAE2C" stroke-width="1.21887"/>
<path d="M46.7715 34.7266C46.2343 34.7266 45.7579 34.6303 45.3423 34.4378C44.9368 34.235 44.6175 33.9613 44.3844 33.6167C44.1512 33.2619 44.0347 32.8565 44.0347 32.4003C44.0347 31.9644 44.1259 31.5742 44.3083 31.2295C44.5009 30.8748 44.7949 30.5757 45.1902 30.3325C45.5957 30.0892 46.1025 29.9169 46.7107 29.8155L49.7517 29.3137V30.4997L47.03 30.9559C46.5029 31.0471 46.1177 31.2143 45.8744 31.4576C45.6413 31.7009 45.5247 31.9999 45.5247 32.3547C45.5247 32.6892 45.6565 32.968 45.92 33.191C46.1937 33.414 46.5333 33.5255 46.9388 33.5255C47.4557 33.5255 47.9017 33.419 48.2768 33.2062C48.662 32.9832 48.961 32.6841 49.1739 32.3091C49.3969 31.934 49.5084 31.5184 49.5084 31.0623V28.9792C49.5084 28.5332 49.3411 28.1734 49.0066 27.8997C48.6823 27.6159 48.2515 27.474 47.7142 27.474C47.2479 27.474 46.8323 27.5956 46.4674 27.8389C46.1126 28.072 45.8491 28.3862 45.6768 28.7816L44.4452 28.143C44.5972 27.7679 44.8405 27.4334 45.175 27.1395C45.5095 26.8354 45.8998 26.5972 46.3458 26.4248C46.7918 26.2525 47.2581 26.1663 47.7446 26.1663C48.3731 26.1663 48.9255 26.288 49.4019 26.5313C49.8784 26.7644 50.2483 27.0938 50.5119 27.5196C50.7856 27.9352 50.9224 28.4217 50.9224 28.9792V34.5442H49.5388V32.9933L49.7973 33.0845C49.625 33.4089 49.3918 33.6927 49.0979 33.936C48.8039 34.1793 48.4592 34.3719 48.0639 34.5138C47.6686 34.6557 47.2378 34.7266 46.7715 34.7266ZM53.1149 34.5442V26.3488H54.4985V27.8541L54.3465 27.6412C54.5391 27.1749 54.833 26.8303 55.2284 26.6073C55.6237 26.3741 56.1052 26.2576 56.6728 26.2576H57.1746V27.5956H56.4599C55.8822 27.5956 55.4159 27.7781 55.0611 28.143C54.7063 28.4977 54.5289 29.0046 54.5289 29.6635V34.5442H53.1149ZM62.2014 34.7266C61.4108 34.7266 60.7063 34.5391 60.0879 34.1641C59.4696 33.789 58.9831 33.2771 58.6283 32.6284C58.2735 31.9695 58.0961 31.2346 58.0961 30.4237C58.0961 29.6026 58.2684 28.8728 58.6131 28.2342C58.9679 27.5956 59.4443 27.0938 60.0423 26.7289C60.6505 26.3539 61.3297 26.1663 62.0798 26.1663C62.688 26.1663 63.2252 26.2778 63.6915 26.5009C64.1679 26.7137 64.5683 27.0077 64.8927 27.3827C65.2272 27.7476 65.4806 28.1683 65.6529 28.6447C65.8354 29.111 65.9266 29.5976 65.9266 30.1044C65.9266 30.2159 65.9165 30.3426 65.8962 30.4845C65.886 30.6163 65.8708 30.743 65.8506 30.8646H59.13V29.6482H65.0295L64.3605 30.1956C64.4517 29.6685 64.401 29.1972 64.2084 28.7816C64.0159 28.366 63.732 28.0365 63.357 27.7933C62.9819 27.55 62.5562 27.4283 62.0798 27.4283C61.6034 27.4283 61.1675 27.55 60.7722 27.7933C60.3768 28.0365 60.0677 28.3862 59.8447 28.8424C59.6318 29.2884 59.5456 29.8206 59.5862 30.4389C59.5456 31.037 59.6369 31.564 59.8599 32.0202C60.093 32.4662 60.4174 32.8159 60.833 33.0693C61.2587 33.3126 61.7199 33.4342 62.2166 33.4342C62.764 33.4342 63.2252 33.3075 63.6003 33.0541C63.9753 32.8007 64.2794 32.4763 64.5125 32.081L65.6985 32.6892C65.5363 33.0643 65.2829 33.4089 64.9383 33.7231C64.6038 34.0272 64.2034 34.2705 63.7371 34.453C63.281 34.6354 62.7691 34.7266 62.2014 34.7266ZM74.1236 34.7266C73.3533 34.7266 72.6589 34.5391 72.0406 34.1641C71.4324 33.789 70.9509 33.2771 70.5961 32.6284C70.2413 31.9796 70.064 31.2549 70.064 30.4541C70.064 29.633 70.2413 28.9032 70.5961 28.2646C70.9509 27.6159 71.4324 27.104 72.0406 26.7289C72.6589 26.3539 73.3533 26.1663 74.1236 26.1663C74.8028 26.1663 75.4059 26.3133 75.933 26.6073C76.4601 26.8911 76.8757 27.2763 77.1798 27.7629L76.9517 28.1126V23.0342H78.381V34.5442H76.9973V32.7956L77.1798 33.0389C76.896 33.5762 76.4804 33.9917 75.933 34.2857C75.3958 34.5797 74.7926 34.7266 74.1236 34.7266ZM74.2453 33.3582C74.7622 33.3582 75.2234 33.2315 75.6289 32.9781C76.0344 32.7247 76.3537 32.38 76.5868 31.9442C76.8301 31.4982 76.9517 31.0015 76.9517 30.4541C76.9517 29.8966 76.8301 29.3999 76.5868 28.964C76.3537 28.518 76.0344 28.1683 75.6289 27.9149C75.2234 27.6615 74.7622 27.5348 74.2453 27.5348C73.7384 27.5348 73.2772 27.6666 72.8616 27.9301C72.4562 28.1835 72.1369 28.5282 71.9037 28.964C71.6706 29.3898 71.554 29.8865 71.554 30.4541C71.554 31.0015 71.6706 31.4982 71.9037 31.9442C72.1369 32.38 72.4562 32.7247 72.8616 32.9781C73.2671 33.2315 73.7283 33.3582 74.2453 33.3582ZM80.5696 34.5442V26.3488H81.9837V34.5442H80.5696ZM80.5696 25.0412V23.2166H81.9837V25.0412H80.5696ZM86.4585 34.5442L83.2503 26.3488H84.8316L87.4012 33.2822H86.8539L89.4387 26.3488H91.02L87.7965 34.5442H86.4585ZM95.9074 34.7266C95.1167 34.7266 94.4122 34.5391 93.7939 34.1641C93.1756 33.789 92.689 33.2771 92.3342 32.6284C91.9794 31.9695 91.8021 31.2346 91.8021 30.4237C91.8021 29.6026 91.9744 28.8728 92.319 28.2342C92.6738 27.5956 93.1502 27.0938 93.7483 26.7289C94.3565 26.3539 95.0356 26.1663 95.7857 26.1663C96.3939 26.1663 96.9311 26.2778 97.3974 26.5009C97.8738 26.7137 98.2742 27.0077 98.5986 27.3827C98.9331 27.7476 99.1865 28.1683 99.3588 28.6447C99.5413 29.111 99.6325 29.5976 99.6325 30.1044C99.6325 30.2159 99.6224 30.3426 99.6021 30.4845C99.592 30.6163 99.5768 30.743 99.5565 30.8646H92.836V29.6482H98.7354L98.0664 30.1956C98.1577 29.6685 98.107 29.1972 97.9144 28.7816C97.7218 28.366 97.438 28.0365 97.0629 27.7933C96.6879 27.55 96.2621 27.4283 95.7857 27.4283C95.3093 27.4283 94.8734 27.55 94.4781 27.7933C94.0828 28.0365 93.7736 28.3862 93.5506 28.8424C93.3377 29.2884 93.2516 29.8206 93.2921 30.4389C93.2516 31.037 93.3428 31.564 93.5658 32.0202C93.799 32.4662 94.1233 32.8159 94.5389 33.0693C94.9647 33.3126 95.4259 33.4342 95.9226 33.4342C96.4699 33.4342 96.9311 33.3075 97.3062 33.0541C97.6812 32.8007 97.9853 32.4763 98.2185 32.081L99.4045 32.6892C99.2423 33.0643 98.9889 33.4089 98.6442 33.7231C98.3097 34.0272 97.9093 34.2705 97.443 34.453C96.9869 34.6354 96.475 34.7266 95.9074 34.7266ZM101.476 34.5442V26.3488H102.86V27.8541L102.708 27.6412C102.9 27.1749 103.194 26.8303 103.59 26.6073C103.985 26.3741 104.467 26.2576 105.034 26.2576H105.536V27.5956H104.821C104.243 27.5956 103.777 27.7781 103.422 28.143C103.068 28.4977 102.89 29.0046 102.89 29.6635V34.5442H101.476ZM110.196 34.6354C109.395 34.6354 108.777 34.4073 108.341 33.9512C107.915 33.4951 107.702 32.8514 107.702 32.0202V27.702H106.212V26.3488H106.517C106.881 26.3488 107.17 26.2373 107.383 26.0143C107.596 25.7913 107.702 25.4973 107.702 25.1324V24.4634H109.117V26.3488H110.956V27.702H109.117V31.9746C109.117 32.2483 109.157 32.4865 109.238 32.6892C109.329 32.8919 109.476 33.0541 109.679 33.1758C109.882 33.2873 110.15 33.343 110.485 33.343C110.556 33.343 110.642 33.3379 110.743 33.3278C110.855 33.3177 110.956 33.3075 111.048 33.2974V34.5442C110.916 34.5746 110.769 34.5949 110.607 34.605C110.444 34.6253 110.308 34.6354 110.196 34.6354ZM116.443 34.7266C115.652 34.7266 114.948 34.5391 114.329 34.1641C113.711 33.789 113.224 33.2771 112.87 32.6284C112.515 31.9695 112.337 31.2346 112.337 30.4237C112.337 29.6026 112.51 28.8728 112.854 28.2342C113.209 27.5956 113.686 27.0938 114.284 26.7289C114.892 26.3539 115.571 26.1663 116.321 26.1663C116.929 26.1663 117.467 26.2778 117.933 26.5009C118.409 26.7137 118.81 27.0077 119.134 27.3827C119.468 27.7476 119.722 28.1683 119.894 28.6447C120.077 29.111 120.168 29.5976 120.168 30.1044C120.168 30.2159 120.158 30.3426 120.138 30.4845C120.127 30.6163 120.112 30.743 120.092 30.8646H113.371V29.6482H119.271L118.602 30.1956C118.693 29.6685 118.642 29.1972 118.45 28.7816C118.257 28.366 117.973 28.0365 117.598 27.7933C117.223 27.55 116.798 27.4283 116.321 27.4283C115.845 27.4283 115.409 27.55 115.013 27.7933C114.618 28.0365 114.309 28.3862 114.086 28.8424C113.873 29.2884 113.787 29.8206 113.828 30.4389C113.787 31.037 113.878 31.564 114.101 32.0202C114.334 32.4662 114.659 32.8159 115.074 33.0693C115.5 33.3126 115.961 33.4342 116.458 33.4342C117.005 33.4342 117.467 33.3075 117.842 33.0541C118.217 32.8007 118.521 32.4763 118.754 32.081L119.94 32.6892C119.778 33.0643 119.524 33.4089 119.18 33.7231C118.845 34.0272 118.445 34.2705 117.978 34.453C117.522 34.6354 117.01 34.7266 116.443 34.7266ZM125.737 34.7266C124.966 34.7266 124.272 34.5391 123.654 34.1641C123.046 33.789 122.564 33.2771 122.209 32.6284C121.854 31.9796 121.677 31.2549 121.677 30.4541C121.677 29.633 121.854 28.9032 122.209 28.2646C122.564 27.6159 123.046 27.104 123.654 26.7289C124.272 26.3539 124.966 26.1663 125.737 26.1663C126.416 26.1663 127.019 26.3133 127.546 26.6073C128.073 26.8911 128.489 27.2763 128.793 27.7629L128.565 28.1126V23.0342H129.994V34.5442H128.61V32.7956L128.793 33.0389C128.509 33.5762 128.094 33.9917 127.546 34.2857C127.009 34.5797 126.406 34.7266 125.737 34.7266ZM125.858 33.3582C126.375 33.3582 126.837 33.2315 127.242 32.9781C127.648 32.7247 127.967 32.38 128.2 31.9442C128.443 31.4982 128.565 31.0015 128.565 30.4541C128.565 29.8966 128.443 29.3999 128.2 28.964C127.967 28.518 127.648 28.1683 127.242 27.9149C126.837 27.6615 126.375 27.5348 125.858 27.5348C125.352 27.5348 124.89 27.6666 124.475 27.9301C124.069 28.1835 123.75 28.5282 123.517 28.964C123.284 29.3898 123.167 29.8865 123.167 30.4541C123.167 31.0015 123.284 31.4982 123.517 31.9442C123.75 32.38 124.069 32.7247 124.475 32.9781C124.88 33.2315 125.341 33.3582 125.858 33.3582Z" fill="black"/>
<path d="M43.2744 29.6482H131.089V30.2564H43.2744V29.6482Z" fill="black"/>
<path d="M47.0405 60.3024C46.462 60.3024 45.9489 60.1987 45.5013 59.9913C45.0647 59.773 44.7208 59.4783 44.4697 59.1071C44.2187 58.725 44.0931 58.2884 44.0931 57.7972C44.0931 57.3278 44.1914 56.9075 44.3879 56.5363C44.5953 56.1543 44.9119 55.8322 45.3376 55.5702C45.7742 55.3083 46.3201 55.1227 46.975 55.0135L50.2499 54.4732V55.7504L47.3189 56.2416C46.7512 56.3398 46.3364 56.52 46.0744 56.782C45.8234 57.0439 45.6978 57.366 45.6978 57.748C45.6978 58.1083 45.8397 58.4085 46.1236 58.6486C46.4183 58.8888 46.784 59.0089 47.2206 59.0089C47.7774 59.0089 48.2577 58.8943 48.6616 58.665C49.0764 58.4249 49.3984 58.1028 49.6277 57.6989C49.8678 57.295 49.9879 56.8475 49.9879 56.3562V54.1129C49.9879 53.6326 49.8078 53.2451 49.4476 52.9503C49.0982 52.6447 48.6343 52.4919 48.0557 52.4919C47.5536 52.4919 47.106 52.6229 46.713 52.8848C46.331 53.1359 46.0471 53.4743 45.8616 53.9001L44.5352 53.2123C44.699 52.8084 44.961 52.4482 45.3212 52.1316C45.6814 51.8041 46.1017 51.5476 46.582 51.362C47.0624 51.1765 47.5645 51.0837 48.0885 51.0837C48.7653 51.0837 49.3602 51.2147 49.8733 51.4767C50.3864 51.7277 50.7848 52.0825 51.0686 52.541C51.3634 52.9886 51.5107 53.5125 51.5107 54.1129V60.106H50.0207V58.4358L50.299 58.534C50.1135 58.8833 49.8624 59.189 49.5458 59.451C49.2292 59.713 48.8581 59.9204 48.4323 60.0732C48.0066 60.226 47.5427 60.3024 47.0405 60.3024ZM53.8718 60.106V51.2802H55.3619V52.9012L55.1982 52.672C55.4056 52.1698 55.7222 51.7987 56.1479 51.5585C56.5736 51.3074 57.0921 51.1819 57.7035 51.1819H58.2438V52.6229H57.4742C56.852 52.6229 56.3498 52.8194 55.9678 53.2123C55.5857 53.5944 55.3947 54.1402 55.3947 54.8498V60.106H53.8718ZM63.6573 60.3024C62.8059 60.3024 62.0472 60.1005 61.3813 59.6966C60.7154 59.2927 60.1914 58.7414 59.8094 58.0428C59.4273 57.3332 59.2362 56.5418 59.2362 55.6685C59.2362 54.7843 59.4218 53.9983 59.793 53.3106C60.175 52.6229 60.6881 52.0825 61.3322 51.6895C61.9871 51.2856 62.7185 51.0837 63.5263 51.0837C64.1813 51.0837 64.7599 51.2037 65.262 51.4439C65.7751 51.6731 66.2063 51.9897 66.5556 52.3936C66.9158 52.7866 67.1887 53.2396 67.3743 53.7527C67.5708 54.2548 67.6691 54.7788 67.6691 55.3246C67.6691 55.4447 67.6581 55.5812 67.6363 55.734C67.6254 55.8759 67.609 56.0124 67.5872 56.1434H60.3497V54.8334H66.703L65.9825 55.4229C66.0807 54.8552 66.0262 54.3476 65.8188 53.9001C65.6113 53.4525 65.3057 53.0977 64.9018 52.8357C64.4979 52.5737 64.0394 52.4427 63.5263 52.4427C63.0133 52.4427 62.5439 52.5737 62.1181 52.8357C61.6924 53.0977 61.3595 53.4743 61.1193 53.9656C60.8901 54.4459 60.7973 55.019 60.8409 55.6849C60.7973 56.3289 60.8955 56.8966 61.1357 57.3878C61.3868 57.8681 61.7361 58.2447 62.1836 58.5176C62.6421 58.7796 63.1388 58.9106 63.6737 58.9106C64.2632 58.9106 64.7599 58.7742 65.1638 58.5013C65.5677 58.2284 65.8952 57.879 66.1462 57.4533L67.4234 58.1083C67.2488 58.5122 66.9759 58.8833 66.6047 59.2217C66.2445 59.5492 65.8133 59.8112 65.3112 60.0077C64.8199 60.2042 64.2686 60.3024 63.6573 60.3024ZM76.4967 60.3024C75.667 60.3024 74.9193 60.1005 74.2534 59.6966C73.5984 59.2927 73.0799 58.7414 72.6978 58.0428C72.3157 57.3441 72.1247 56.5636 72.1247 55.7012C72.1247 54.817 72.3157 54.0311 72.6978 53.3433C73.0799 52.6447 73.5984 52.0934 74.2534 51.6895C74.9193 51.2856 75.667 51.0837 76.4967 51.0837C77.228 51.0837 77.8776 51.242 78.4452 51.5585C79.0128 51.8642 79.4604 52.279 79.7879 52.803L79.5423 53.1796V47.7105H81.0815V60.106H79.5914V58.2229L79.7879 58.4849C79.4822 59.0635 79.0347 59.511 78.4452 59.8276C77.8666 60.1442 77.2171 60.3024 76.4967 60.3024ZM76.6276 58.8288C77.1844 58.8288 77.6811 58.6923 78.1177 58.4194C78.5544 58.1465 78.8982 57.7753 79.1493 57.3059C79.4113 56.8256 79.5423 56.2907 79.5423 55.7012C79.5423 55.1009 79.4113 54.566 79.1493 54.0966C78.8982 53.6162 78.5544 53.2396 78.1177 52.9667C77.6811 52.6938 77.1844 52.5574 76.6276 52.5574C76.0818 52.5574 75.5851 52.6993 75.1376 52.9831C74.7009 53.256 74.3571 53.6272 74.106 54.0966C73.8549 54.555 73.7294 55.0899 73.7294 55.7012C73.7294 56.2907 73.8549 56.8256 74.106 57.3059C74.3571 57.7753 74.7009 58.1465 75.1376 58.4194C75.5742 58.6923 76.0709 58.8288 76.6276 58.8288ZM83.4385 60.106V51.2802H84.9613V60.106H83.4385ZM83.4385 49.872V47.907H84.9613V49.872H83.4385ZM89.7804 60.106L86.3254 51.2802H88.0283L90.7956 58.7469H90.2061L92.9898 51.2802H94.6927L91.2213 60.106H89.7804ZM99.956 60.3024C99.1046 60.3024 98.3459 60.1005 97.68 59.6966C97.0141 59.2927 96.4901 58.7414 96.1081 58.0428C95.726 57.3332 95.535 56.5418 95.535 55.6685C95.535 54.7843 95.7205 53.9983 96.0917 53.3106C96.4738 52.6229 96.9868 52.0825 97.6309 51.6895C98.2859 51.2856 99.0172 51.0837 99.825 51.0837C100.48 51.0837 101.059 51.2037 101.561 51.4439C102.074 51.6731 102.505 51.9897 102.854 52.3936C103.215 52.7866 103.487 53.2396 103.673 53.7527C103.87 54.2548 103.968 54.7788 103.968 55.3246C103.968 55.4447 103.957 55.5812 103.935 55.734C103.924 55.8759 103.908 56.0124 103.886 56.1434H96.6484V54.8334H103.002L102.281 55.4229C102.379 54.8552 102.325 54.3476 102.117 53.9001C101.91 53.4525 101.604 53.0977 101.2 52.8357C100.797 52.5737 100.338 52.4427 99.825 52.4427C99.312 52.4427 98.8426 52.5737 98.4168 52.8357C97.9911 53.0977 97.6582 53.4743 97.418 53.9656C97.1888 54.4459 97.096 55.019 97.1396 55.6849C97.096 56.3289 97.1942 56.8966 97.4344 57.3878C97.6855 57.8681 98.0348 58.2447 98.4823 58.5176C98.9408 58.7796 99.4375 58.9106 99.9724 58.9106C100.562 58.9106 101.059 58.7742 101.462 58.5013C101.866 58.2284 102.194 57.879 102.445 57.4533L103.722 58.1083C103.547 58.5122 103.275 58.8833 102.903 59.2217C102.543 59.5492 102.112 59.8112 101.61 60.0077C101.119 60.2042 100.567 60.3024 99.956 60.3024ZM105.953 60.106V51.2802H107.443V52.9012L107.28 52.672C107.487 52.1698 107.804 51.7987 108.229 51.5585C108.655 51.3074 109.174 51.1819 109.785 51.1819H110.325V52.6229H109.556C108.933 52.6229 108.431 52.8194 108.049 53.2123C107.667 53.5944 107.476 54.1402 107.476 54.8498V60.106H105.953ZM114.838 60.3024C113.954 60.3024 113.184 60.0841 112.529 59.6475C111.874 59.2108 111.41 58.6213 111.138 57.879L112.349 57.2896C112.6 57.8135 112.944 58.2284 113.381 58.534C113.818 58.8397 114.303 58.9925 114.838 58.9925C115.319 58.9925 115.717 58.8779 116.034 58.6486C116.35 58.4194 116.508 58.1192 116.508 57.748C116.508 57.4861 116.432 57.2786 116.279 57.1258C116.137 56.9621 115.963 56.8365 115.755 56.7492C115.548 56.651 115.357 56.58 115.182 56.5363L113.856 56.1597C113.059 55.9305 112.475 55.603 112.104 55.1773C111.743 54.7515 111.563 54.2548 111.563 53.6872C111.563 53.1632 111.694 52.7102 111.956 52.3281C112.229 51.9351 112.595 51.6295 113.053 51.4112C113.523 51.1928 114.047 51.0837 114.625 51.0837C115.4 51.0837 116.094 51.2802 116.705 51.6731C117.327 52.0661 117.769 52.6174 118.031 53.327L116.787 53.9001C116.59 53.4416 116.296 53.0813 115.903 52.8194C115.51 52.5464 115.067 52.41 114.576 52.41C114.129 52.41 113.774 52.5246 113.512 52.7539C113.25 52.9722 113.119 53.2505 113.119 53.5889C113.119 53.84 113.184 54.0474 113.315 54.2112C113.446 54.364 113.605 54.4841 113.79 54.5714C113.976 54.6478 114.156 54.7133 114.331 54.7679L115.772 55.1936C116.492 55.401 117.049 55.7231 117.442 56.1597C117.846 56.5964 118.048 57.1204 118.048 57.7317C118.048 58.2229 117.911 58.665 117.638 59.058C117.365 59.451 116.989 59.7566 116.508 59.975C116.028 60.1933 115.471 60.3024 114.838 60.3024ZM124.102 60.3024C123.25 60.3024 122.492 60.1005 121.826 59.6966C121.16 59.2927 120.636 58.7414 120.254 58.0428C119.872 57.3332 119.681 56.5418 119.681 55.6685C119.681 54.7843 119.866 53.9983 120.238 53.3106C120.62 52.6229 121.133 52.0825 121.777 51.6895C122.432 51.2856 123.163 51.0837 123.971 51.0837C124.626 51.0837 125.204 51.2037 125.707 51.4439C126.22 51.6731 126.651 51.9897 127 52.3936C127.36 52.7866 127.633 53.2396 127.819 53.7527C128.015 54.2548 128.114 54.7788 128.114 55.3246C128.114 55.4447 128.103 55.5812 128.081 55.734C128.07 55.8759 128.054 56.0124 128.032 56.1434H120.794V54.8334H127.148L126.427 55.4229C126.525 54.8552 126.471 54.3476 126.263 53.9001C126.056 53.4525 125.75 53.0977 125.346 52.8357C124.942 52.5737 124.484 52.4427 123.971 52.4427C123.458 52.4427 122.988 52.5737 122.563 52.8357C122.137 53.0977 121.804 53.4743 121.564 53.9656C121.335 54.4459 121.242 55.019 121.285 55.6849C121.242 56.3289 121.34 56.8966 121.58 57.3878C121.831 57.8681 122.181 58.2447 122.628 58.5176C123.087 58.7796 123.583 58.9106 124.118 58.9106C124.708 58.9106 125.204 58.7742 125.608 58.5013C126.012 58.2284 126.34 57.879 126.591 57.4533L127.868 58.1083C127.693 58.5122 127.42 58.8833 127.049 59.2217C126.689 59.5492 126.258 59.8112 125.756 60.0077C125.264 60.2042 124.713 60.3024 124.102 60.3024Z" fill="#15C39A"/>
<rect x="24.5625" y="27.9006" width="5.848" height="5.848" rx="2.924" fill="#FFAE2C"/>
</svg>
