<svg  viewBox="0 0 399 76" fill="none" xmlns="http://www.w3.org/2000/svg">
<rect x="1.59421" y="1.47922" width="369.279" height="73.7987" rx="18.8102" fill="#E6EBFE"/>
<rect x="1.59421" y="1.47922" width="369.279" height="73.7987" rx="18.8102" stroke="#4A6EE0" stroke-width="1.34076"/>
<path d="M30.1241 52.8564V58.1187H29.3301V52.8564H30.1241ZM31.2803 58.1187V52.8564H34.5795V53.5398H32.0743V55.1432H34.4074V55.8241H32.0743V57.4352H34.6104V58.1187H31.2803ZM35.6401 58.1187V52.8564H36.4341V57.4352H38.8185V58.1187H35.6401ZM38.7793 53.5398V52.8564H42.852V53.5398H41.2101V58.1187H40.4187V53.5398H38.7793ZM46.622 54.2387C46.5946 53.9955 46.4816 53.8071 46.2829 53.6735C46.0842 53.5381 45.8341 53.4705 45.5326 53.4705C45.3167 53.4705 45.13 53.5047 44.9724 53.5732C44.8148 53.6401 44.6924 53.7326 44.605 53.8507C44.5193 53.9672 44.4765 54.1 44.4765 54.249C44.4765 54.3741 44.5056 54.482 44.5639 54.5728C44.6238 54.6636 44.7018 54.7398 44.7977 54.8015C44.8953 54.8614 44.9998 54.9119 45.1112 54.9531C45.2225 54.9925 45.3296 55.025 45.4324 55.0507L45.9463 55.1843C46.1141 55.2254 46.2863 55.2811 46.4627 55.3513C46.6392 55.4216 46.8028 55.5141 46.9535 55.6288C47.1042 55.7436 47.2259 55.8858 47.3184 56.0554C47.4126 56.2249 47.4597 56.4279 47.4597 56.6643C47.4597 56.9624 47.3826 57.227 47.2284 57.4583C47.076 57.6895 46.8541 57.872 46.5629 58.0056C46.2734 58.1392 45.9231 58.206 45.512 58.206C45.118 58.206 44.7772 58.1435 44.4894 58.0184C44.2016 57.8934 43.9763 57.7161 43.8136 57.4866C43.6509 57.2553 43.5609 56.9812 43.5438 56.6643H44.3403C44.3558 56.8545 44.4174 57.0129 44.5253 57.1397C44.635 57.2647 44.7746 57.3581 44.9442 57.4198C45.1155 57.4797 45.303 57.5097 45.5069 57.5097C45.7313 57.5097 45.9308 57.4746 46.1056 57.4043C46.282 57.3324 46.4208 57.233 46.5218 57.1063C46.6229 56.9778 46.6734 56.8279 46.6734 56.6566C46.6734 56.5007 46.6289 56.3731 46.5398 56.2738C46.4525 56.1744 46.3334 56.0922 46.1827 56.0271C46.0336 55.962 45.8649 55.9046 45.6765 55.8549L45.0547 55.6854C44.6333 55.5706 44.2992 55.4019 44.0526 55.1792C43.8076 54.9565 43.6851 54.6618 43.6851 54.2953C43.6851 53.9921 43.7673 53.7274 43.9318 53.5013C44.0962 53.2752 44.3189 53.0996 44.5999 52.9746C44.8808 52.8478 45.1977 52.7844 45.5506 52.7844C45.9069 52.7844 46.2212 52.8469 46.4936 52.972C46.7676 53.097 46.9835 53.2692 47.1411 53.4885C47.2987 53.706 47.3809 53.9561 47.3877 54.2387H46.622ZM50.3234 58.1187V52.8564H52.2505C52.6239 52.8564 52.9331 52.918 53.1781 53.0414C53.423 53.163 53.6063 53.3283 53.7279 53.5373C53.8496 53.7445 53.9104 53.9784 53.9104 54.2387C53.9104 54.458 53.8701 54.643 53.7896 54.7937C53.7091 54.9428 53.6012 55.0627 53.4658 55.1535C53.3322 55.2425 53.1849 55.3076 53.0239 55.3488V55.4001C53.1986 55.4087 53.3691 55.4652 53.5352 55.5697C53.7031 55.6725 53.8418 55.819 53.9515 56.0091C54.0611 56.1993 54.1159 56.4305 54.1159 56.7029C54.1159 56.9718 54.0525 57.2133 53.9258 57.4275C53.8007 57.6399 53.6072 57.8086 53.3451 57.9336C53.083 58.057 52.7481 58.1187 52.3404 58.1187H50.3234ZM51.1173 57.4377H52.2633C52.6436 57.4377 52.916 57.3641 53.0804 57.2168C53.2449 57.0694 53.3271 56.8853 53.3271 56.6643C53.3271 56.4982 53.2851 56.3457 53.2012 56.207C53.1173 56.0682 52.9973 55.9577 52.8415 55.8755C52.6873 55.7933 52.504 55.7522 52.2916 55.7522H51.1173V57.4377ZM51.1173 55.1329H52.1811C52.3593 55.1329 52.5194 55.0987 52.6616 55.0301C52.8055 54.9616 52.9194 54.8657 53.0033 54.7424C53.089 54.6173 53.1318 54.47 53.1318 54.3004C53.1318 54.0829 53.0556 53.9004 52.9031 53.7531C52.7507 53.6058 52.5168 53.5321 52.2017 53.5321H51.1173V55.1329ZM56.1445 58.206C55.8944 58.206 55.6683 58.1598 55.4662 58.0673C55.264 57.973 55.1039 57.8369 54.9857 57.6587C54.8692 57.4806 54.811 57.2622 54.811 57.0035C54.811 56.7808 54.8538 56.5975 54.9394 56.4536C55.0251 56.3097 55.1407 56.1958 55.2863 56.1119C55.4319 56.028 55.5947 55.9646 55.7745 55.9217C55.9544 55.8789 56.1377 55.8464 56.3244 55.8241C56.5608 55.7967 56.7526 55.7744 56.9 55.7573C57.0473 55.7385 57.1543 55.7085 57.2211 55.6674C57.2879 55.6263 57.3213 55.5595 57.3213 55.467V55.449C57.3213 55.2246 57.258 55.0507 57.1312 54.9274C57.0062 54.804 56.8194 54.7424 56.5711 54.7424C56.3124 54.7424 56.1086 54.7997 55.9595 54.9145C55.8122 55.0276 55.7103 55.1535 55.6538 55.2922L54.9317 55.1278C55.0174 54.888 55.1424 54.6944 55.3069 54.5471C55.473 54.398 55.664 54.2901 55.8799 54.2233C56.0957 54.1548 56.3227 54.1205 56.5608 54.1205C56.7184 54.1205 56.8854 54.1394 57.0618 54.1771C57.24 54.213 57.4061 54.2799 57.5603 54.3775C57.7162 54.4751 57.8438 54.6147 57.9432 54.7963C58.0425 54.9762 58.0922 55.21 58.0922 55.4978V58.1187H57.3419V57.5791H57.3111C57.2614 57.6784 57.1869 57.7761 57.0875 57.872C56.9882 57.9679 56.8606 58.0476 56.7047 58.1109C56.5488 58.1743 56.3621 58.206 56.1445 58.206ZM56.3115 57.5893C56.524 57.5893 56.7055 57.5474 56.8563 57.4634C57.0087 57.3795 57.1244 57.2699 57.2031 57.1345C57.2837 56.9975 57.3239 56.851 57.3239 56.6952V56.1864C57.2965 56.2138 57.2434 56.2395 57.1646 56.2635C57.0875 56.2858 56.9993 56.3055 56.9 56.3226C56.8006 56.338 56.7038 56.3526 56.6096 56.3663C56.5154 56.3783 56.4366 56.3885 56.3732 56.3971C56.2242 56.4159 56.088 56.4476 55.9647 56.4922C55.843 56.5367 55.7454 56.6009 55.6717 56.6849C55.5998 56.7671 55.5638 56.8767 55.5638 57.0138C55.5638 57.2039 55.6341 57.3478 55.7745 57.4454C55.915 57.5414 56.094 57.5893 56.3115 57.5893ZM59.8838 55.7753V58.1187H59.1155V54.1719H59.8529V54.8143H59.9017C59.9925 54.6053 60.1347 54.4374 60.3283 54.3107C60.5236 54.1839 60.7694 54.1205 61.0657 54.1205C61.3347 54.1205 61.5702 54.1771 61.7723 54.2901C61.9745 54.4015 62.1312 54.5676 62.2425 54.7886C62.3539 55.0096 62.4096 55.2828 62.4096 55.6083V58.1187H61.6413V55.7008C61.6413 55.4147 61.5668 55.1912 61.4177 55.0301C61.2687 54.8674 61.064 54.786 60.8036 54.786C60.6255 54.786 60.467 54.8246 60.3283 54.9017C60.1912 54.9787 60.0825 55.0918 60.002 55.2408C59.9232 55.3882 59.8838 55.5663 59.8838 55.7753ZM64.9174 58.1957C64.5988 58.1957 64.3144 58.1144 64.0643 57.9516C63.8159 57.7872 63.6206 57.5534 63.4785 57.2502C63.338 56.9453 63.2678 56.5795 63.2678 56.153C63.2678 55.7265 63.3388 55.3616 63.481 55.0584C63.6249 54.7552 63.8219 54.5231 64.072 54.3621C64.3221 54.2011 64.6056 54.1205 64.9225 54.1205C65.1675 54.1205 65.3645 54.1617 65.5135 54.2439C65.6642 54.3244 65.7807 54.4186 65.8629 54.5265C65.9469 54.6344 66.012 54.7295 66.0582 54.8117H66.1045V52.8564H66.8727V58.1187H66.1225V57.5045H66.0582C66.012 57.5885 65.9452 57.6844 65.8578 57.7923C65.7721 57.9002 65.654 57.9945 65.5032 58.075C65.3525 58.1555 65.1572 58.1957 64.9174 58.1957ZM65.087 57.5405C65.3079 57.5405 65.4946 57.4823 65.6471 57.3658C65.8013 57.2476 65.9177 57.084 65.9965 56.875C66.0771 56.666 66.1173 56.4228 66.1173 56.1453C66.1173 55.8712 66.0779 55.6314 65.9991 55.4258C65.9203 55.2203 65.8047 55.0601 65.6522 54.9453C65.4998 54.8306 65.3114 54.7732 65.087 54.7732C64.8557 54.7732 64.663 54.8331 64.5088 54.9531C64.3547 55.073 64.2382 55.2366 64.1594 55.4438C64.0823 55.6511 64.0437 55.8849 64.0437 56.1453C64.0437 56.4091 64.0831 56.6463 64.1619 56.857C64.2407 57.0677 64.3572 57.2348 64.5114 57.3581C64.6673 57.4797 64.8591 57.5405 65.087 57.5405Z" fill="#0E101A"/>
<path d="M36.3951 47.3211C35.138 47.3211 34.0173 47.0898 33.033 46.6273C32.0546 46.1648 31.2778 45.5274 30.7027 44.715C30.1275 43.9027 29.8281 42.9717 29.8043 41.9222H33.54C33.5815 42.6278 33.878 43.2 34.4294 43.6388C34.9809 44.0776 35.6361 44.297 36.3951 44.297C36.9999 44.297 37.5335 44.1636 37.996 43.8967C38.4645 43.624 38.8291 43.2475 39.09 42.7672C39.3569 42.2809 39.4903 41.7236 39.4903 41.095C39.4903 40.4546 39.3539 39.8913 39.0812 39.4051C38.8143 38.9189 38.4437 38.5394 37.9694 38.2666C37.495 37.9939 36.9524 37.8545 36.3417 37.8486C35.808 37.8486 35.2892 37.9583 34.7852 38.1777C34.2871 38.3971 33.8987 38.6965 33.62 39.076L30.1957 38.4623L31.0585 28.8564H42.1942V32.005H34.2337L33.7623 36.5678H33.8691C34.1893 36.1171 34.6725 35.7436 35.3188 35.4471C35.9652 35.1506 36.6886 35.0024 37.4891 35.0024C38.586 35.0024 39.5644 35.2603 40.4242 35.7762C41.284 36.2921 41.9629 37.0007 42.461 37.9019C42.9591 38.7973 43.2052 39.8291 43.1992 40.9972C43.2052 42.2246 42.9205 43.3156 42.3454 44.2703C41.7761 45.219 40.9786 45.9662 39.9528 46.5117C38.9329 47.0513 37.747 47.3211 36.3951 47.3211ZM47.5486 47.3033C46.9615 47.3033 46.4575 47.0957 46.0365 46.6807C45.6215 46.2597 45.4139 45.7557 45.4139 45.1686C45.4139 44.5875 45.6215 44.0894 46.0365 43.6744C46.4575 43.2593 46.9615 43.0518 47.5486 43.0518C48.1178 43.0518 48.6159 43.2593 49.0428 43.6744C49.4698 44.0894 49.6832 44.5875 49.6832 45.1686C49.6832 45.56 49.5824 45.9187 49.3808 46.2448C49.1851 46.565 48.9272 46.823 48.607 47.0187C48.2868 47.2084 47.934 47.3033 47.5486 47.3033ZM59.2647 47.3211C58.0076 47.3211 56.8869 47.0898 55.9026 46.6273C54.9242 46.1648 54.1474 45.5274 53.5723 44.715C52.9971 43.9027 52.6977 42.9717 52.6739 41.9222H56.4096C56.4511 42.6278 56.7476 43.2 57.299 43.6388C57.8505 44.0776 58.5057 44.297 59.2647 44.297C59.8695 44.297 60.4031 44.1636 60.8656 43.8967C61.3341 43.624 61.6987 43.2475 61.9596 42.7672C62.2265 42.2809 62.3599 41.7236 62.3599 41.095C62.3599 40.4546 62.2235 39.8913 61.9508 39.4051C61.6839 38.9189 61.3133 38.5394 60.839 38.2666C60.3646 37.9939 59.822 37.8545 59.2113 37.8486C58.6776 37.8486 58.1588 37.9583 57.6548 38.1777C57.1567 38.3971 56.7683 38.6965 56.4896 39.076L53.0653 38.4623L53.928 28.8564H65.0638V32.005H57.1033L56.6319 36.5678H56.7387C57.0589 36.1171 57.5421 35.7436 58.1884 35.4471C58.8348 35.1506 59.5582 35.0024 60.3587 35.0024C61.4556 35.0024 62.434 35.2603 63.2938 35.7762C64.1536 36.2921 64.8325 37.0007 65.3306 37.9019C65.8287 38.7973 66.0748 39.8291 66.0688 40.9972C66.0748 42.2246 65.7901 43.3156 65.215 44.2703C64.6457 45.219 63.8482 45.9662 62.8224 46.5117C61.8025 47.0513 60.6166 47.3211 59.2647 47.3211Z" fill="#0E101A"/>
<path d="M82.5941 45.6379V35.0122H84.1973V44.2578H89.0122V45.6379H82.5941ZM94.0734 45.7988C93.3263 45.7988 92.6743 45.6276 92.1174 45.2851C91.5605 44.9427 91.1281 44.4636 90.8203 43.848C90.5125 43.2323 90.3585 42.5128 90.3585 41.6896C90.3585 40.8629 90.5125 40.14 90.8203 39.5209C91.1281 38.9017 91.5605 38.4209 92.1174 38.0785C92.6743 37.7361 93.3263 37.5648 94.0734 37.5648C94.8205 37.5648 95.4725 37.7361 96.0294 38.0785C96.5863 38.4209 97.0187 38.9017 97.3265 39.5209C97.6344 40.14 97.7883 40.8629 97.7883 41.6896C97.7883 42.5128 97.6344 43.2323 97.3265 43.848C97.0187 44.4636 96.5863 44.9427 96.0294 45.2851C95.4725 45.6276 94.8205 45.7988 94.0734 45.7988ZM94.0786 44.4965C94.5628 44.4965 94.9641 44.3685 95.2823 44.1126C95.6005 43.8566 95.8357 43.5159 95.9879 43.0904C96.1436 42.665 96.2214 42.1963 96.2214 41.6844C96.2214 41.1759 96.1436 40.709 95.9879 40.2835C95.8357 39.8546 95.6005 39.5105 95.2823 39.2511C94.9641 38.9916 94.5628 38.8619 94.0786 38.8619C93.5909 38.8619 93.1862 38.9916 92.8645 39.2511C92.5463 39.5105 92.3094 39.8546 92.1537 40.2835C92.0015 40.709 91.9254 41.1759 91.9254 41.6844C91.9254 42.1963 92.0015 42.665 92.1537 43.0904C92.3094 43.5159 92.5463 43.8566 92.8645 44.1126C93.1862 44.3685 93.5909 44.4965 94.0786 44.4965ZM102.861 48.7925C102.228 48.7925 101.683 48.7095 101.227 48.5434C100.774 48.3774 100.404 48.1578 100.117 47.8845C99.8295 47.6112 99.615 47.3121 99.4732 46.9869L100.807 46.4369C100.9 46.5891 101.025 46.75 101.18 46.9195C101.339 47.0924 101.554 47.2394 101.824 47.3605C102.097 47.4815 102.448 47.5421 102.877 47.5421C103.465 47.5421 103.951 47.3985 104.335 47.1114C104.719 46.8278 104.911 46.3747 104.911 45.7521V44.1852H104.812C104.719 44.3547 104.584 44.5432 104.407 44.7507C104.234 44.9583 103.996 45.1381 103.691 45.2903C103.387 45.4425 102.991 45.5186 102.503 45.5186C101.874 45.5186 101.306 45.3716 100.801 45.0776C100.3 44.7801 99.9021 44.3426 99.6081 43.7649C99.3176 43.1838 99.1723 42.4696 99.1723 41.6221C99.1723 40.7747 99.3158 40.0483 99.6029 39.443C99.8935 38.8377 100.291 38.3742 100.796 38.0525C101.301 37.7274 101.874 37.5648 102.514 37.5648C103.008 37.5648 103.408 37.6478 103.712 37.8139C104.016 37.9764 104.253 38.1667 104.423 38.3846C104.596 38.6025 104.729 38.7945 104.822 38.9605H104.937V37.6686H106.457V45.8143C106.457 46.4992 106.298 47.0613 105.979 47.5006C105.661 47.9398 105.231 48.265 104.688 48.476C104.148 48.687 103.539 48.7925 102.861 48.7925ZM102.846 44.2319C103.292 44.2319 103.669 44.1281 103.977 43.9206C104.288 43.7096 104.523 43.4087 104.682 43.0178C104.845 42.6235 104.926 42.1514 104.926 41.6014C104.926 41.0653 104.847 40.5931 104.688 40.185C104.528 39.7768 104.295 39.4586 103.987 39.2303C103.679 38.9986 103.299 38.8827 102.846 38.8827C102.379 38.8827 101.99 39.0037 101.678 39.2459C101.367 39.4845 101.132 39.8097 100.973 40.2213C100.817 40.6329 100.739 41.0929 100.739 41.6014C100.739 42.1237 100.819 42.582 100.978 42.9763C101.137 43.3706 101.372 43.6785 101.683 43.8998C101.998 44.1212 102.386 44.2319 102.846 44.2319ZM108.537 45.6379V37.6686H110.089V45.6379H108.537ZM109.321 36.439C109.051 36.439 108.819 36.349 108.625 36.1692C108.435 35.9858 108.34 35.7679 108.34 35.5154C108.34 35.2595 108.435 35.0416 108.625 34.8617C108.819 34.6784 109.051 34.5867 109.321 34.5867C109.591 34.5867 109.821 34.6784 110.011 34.8617C110.204 35.0416 110.301 35.2595 110.301 35.5154C110.301 35.7679 110.204 35.9858 110.011 36.1692C109.821 36.349 109.591 36.439 109.321 36.439ZM115.533 45.7988C114.761 45.7988 114.097 45.6241 113.54 45.2748C112.987 44.9219 112.561 44.436 112.264 43.8168C111.966 43.1977 111.818 42.4886 111.818 41.6896C111.818 40.8802 111.97 40.1659 112.274 39.5468C112.579 38.9242 113.008 38.4382 113.561 38.0889C114.114 37.7395 114.766 37.5648 115.517 37.5648C116.122 37.5648 116.662 37.6772 117.136 37.9021C117.61 38.1234 117.992 38.4348 118.282 38.836C118.576 39.2372 118.751 39.7059 118.806 40.242H117.297C117.214 39.8685 117.023 39.5468 116.726 39.277C116.432 39.0072 116.038 38.8723 115.543 38.8723C115.111 38.8723 114.732 38.9864 114.407 39.2147C114.085 39.4396 113.834 39.7612 113.654 40.1798C113.474 40.5948 113.385 41.086 113.385 41.6533C113.385 42.2344 113.473 42.7359 113.649 43.1579C113.826 43.5799 114.075 43.9068 114.396 44.1385C114.721 44.3702 115.104 44.4861 115.543 44.4861C115.837 44.4861 116.103 44.4325 116.342 44.3253C116.584 44.2146 116.786 44.0572 116.949 43.8531C117.115 43.6491 117.231 43.4035 117.297 43.1164H118.806C118.751 43.6318 118.583 44.0918 118.303 44.4965C118.023 44.9012 117.648 45.2194 117.177 45.4512C116.71 45.6829 116.162 45.7988 115.533 45.7988ZM122.785 45.8143C122.28 45.8143 121.823 45.721 121.415 45.5342C121.007 45.3439 120.683 45.0689 120.445 44.7092C120.209 44.3495 120.092 43.9085 120.092 43.3862C120.092 42.9365 120.178 42.5664 120.351 42.2759C120.524 41.9853 120.758 41.7553 121.052 41.5858C121.346 41.4163 121.674 41.2884 122.037 41.2019C122.401 41.1154 122.771 41.0497 123.148 41.0047C123.625 40.9494 124.012 40.9044 124.31 40.8698C124.607 40.8318 124.824 40.7712 124.958 40.6882C125.093 40.6052 125.161 40.4703 125.161 40.2835V40.2472C125.161 39.7941 125.033 39.443 124.777 39.194C124.524 38.9449 124.147 38.8204 123.646 38.8204C123.124 38.8204 122.712 38.9363 122.411 39.168C122.114 39.3963 121.908 39.6506 121.794 39.9307L120.336 39.5987C120.509 39.1144 120.761 38.7236 121.093 38.4261C121.429 38.1252 121.814 37.9073 122.25 37.7724C122.686 37.634 123.144 37.5648 123.625 37.5648C123.943 37.5648 124.281 37.6029 124.637 37.679C124.997 37.7516 125.332 37.8865 125.643 38.0837C125.958 38.2808 126.216 38.5627 126.416 38.9294C126.617 39.2926 126.717 39.7647 126.717 40.3458V45.6379H125.202V44.5484H125.14C125.04 44.749 124.889 44.9462 124.689 45.1399C124.488 45.3336 124.23 45.4944 123.916 45.6224C123.601 45.7504 123.224 45.8143 122.785 45.8143ZM123.122 44.5691C123.551 44.5691 123.917 44.4844 124.222 44.3149C124.53 44.1454 124.763 43.924 124.922 43.6508C125.085 43.3741 125.166 43.0783 125.166 42.7636V41.7363C125.111 41.7916 125.003 41.8435 124.844 41.8919C124.689 41.9369 124.511 41.9767 124.31 42.0113C124.109 42.0424 123.914 42.0718 123.724 42.0995C123.533 42.1237 123.374 42.1444 123.246 42.1617C122.945 42.1998 122.67 42.2638 122.421 42.3537C122.176 42.4436 121.979 42.5733 121.83 42.7428C121.685 42.9089 121.612 43.1302 121.612 43.4069C121.612 43.7909 121.754 44.0814 122.037 44.2786C122.321 44.4723 122.683 44.5691 123.122 44.5691ZM130.335 35.0122V45.6379H128.784V35.0122H130.335ZM136.413 45.6379V35.0122H143.002V36.3923H138.016V39.6298H142.53V41.0047H138.016V45.6379H136.413ZM146.401 35.0122V45.6379H144.849V35.0122H146.401ZM151.845 45.7988C151.097 45.7988 150.445 45.6276 149.889 45.2851C149.332 44.9427 148.899 44.4636 148.592 43.848C148.284 43.2323 148.13 42.5128 148.13 41.6896C148.13 40.8629 148.284 40.14 148.592 39.5209C148.899 38.9017 149.332 38.4209 149.889 38.0785C150.445 37.7361 151.097 37.5648 151.845 37.5648C152.592 37.5648 153.244 37.7361 153.801 38.0785C154.358 38.4209 154.79 38.9017 155.098 39.5209C155.406 40.14 155.559 40.8629 155.559 41.6896C155.559 42.5128 155.406 43.2323 155.098 43.848C154.79 44.4636 154.358 44.9427 153.801 45.2851C153.244 45.6276 152.592 45.7988 151.845 45.7988ZM151.85 44.4965C152.334 44.4965 152.735 44.3685 153.054 44.1126C153.372 43.8566 153.607 43.5159 153.759 43.0904C153.915 42.665 153.993 42.1963 153.993 41.6844C153.993 41.1759 153.915 40.709 153.759 40.2835C153.607 39.8546 153.372 39.5105 153.054 39.2511C152.735 38.9916 152.334 38.8619 151.85 38.8619C151.362 38.8619 150.957 38.9916 150.636 39.2511C150.318 39.5105 150.081 39.8546 149.925 40.2835C149.773 40.709 149.697 41.1759 149.697 41.6844C149.697 42.1963 149.773 42.665 149.925 43.0904C150.081 43.5159 150.318 43.8566 150.636 44.1126C150.957 44.3685 151.362 44.4965 151.85 44.4965ZM158.776 45.6379L156.431 37.6686H158.034L159.596 43.5211H159.674L161.241 37.6686H162.844L164.4 43.4951H164.478L166.03 37.6686H167.633L165.293 45.6379H163.71L162.092 39.884H161.972L160.354 45.6379H158.776ZM175.291 45.8143C174.786 45.8143 174.329 45.721 173.921 45.5342C173.513 45.3439 173.19 45.0689 172.951 44.7092C172.716 44.3495 172.598 43.9085 172.598 43.3862C172.598 42.9365 172.685 42.5664 172.858 42.2759C173.03 41.9853 173.264 41.7553 173.558 41.5858C173.852 41.4163 174.181 41.2884 174.544 41.2019C174.907 41.1154 175.277 41.0497 175.654 41.0047C176.131 40.9494 176.519 40.9044 176.816 40.8698C177.114 40.8318 177.33 40.7712 177.465 40.6882C177.6 40.6052 177.667 40.4703 177.667 40.2835V40.2472C177.667 39.7941 177.539 39.443 177.283 39.194C177.031 38.9449 176.654 38.8204 176.152 38.8204C175.63 38.8204 175.218 38.9363 174.917 39.168C174.62 39.3963 174.414 39.6506 174.3 39.9307L172.842 39.5987C173.015 39.1144 173.267 38.7236 173.599 38.4261C173.935 38.1252 174.321 37.9073 174.756 37.7724C175.192 37.634 175.651 37.5648 176.131 37.5648C176.45 37.5648 176.787 37.6029 177.143 37.679C177.503 37.7516 177.838 37.8865 178.15 38.0837C178.464 38.2808 178.722 38.5627 178.923 38.9294C179.123 39.2926 179.224 39.7647 179.224 40.3458V45.6379H177.709V44.5484H177.646C177.546 44.749 177.396 44.9462 177.195 45.1399C176.994 45.3336 176.737 45.4944 176.422 45.6224C176.107 45.7504 175.73 45.8143 175.291 45.8143ZM175.628 44.5691C176.057 44.5691 176.424 44.4844 176.728 44.3149C177.036 44.1454 177.269 43.924 177.428 43.6508C177.591 43.3741 177.672 43.0783 177.672 42.7636V41.7363C177.617 41.7916 177.51 41.8435 177.351 41.8919C177.195 41.9369 177.017 41.9767 176.816 42.0113C176.616 42.0424 176.42 42.0718 176.23 42.0995C176.04 42.1237 175.881 42.1444 175.753 42.1617C175.452 42.1998 175.177 42.2638 174.928 42.3537C174.682 42.4436 174.485 42.5733 174.336 42.7428C174.191 42.9089 174.118 43.1302 174.118 43.4069C174.118 43.7909 174.26 44.0814 174.544 44.2786C174.827 44.4723 175.189 44.5691 175.628 44.5691ZM182.841 40.9061V45.6379H181.29V37.6686H182.779V38.9657H182.878C183.061 38.5437 183.348 38.2047 183.739 37.9488C184.133 37.6928 184.63 37.5648 185.228 37.5648C185.771 37.5648 186.247 37.679 186.655 37.9073C187.063 38.1321 187.379 38.4676 187.604 38.9138C187.829 39.36 187.941 39.9117 187.941 40.5689V45.6379H186.39V40.7557C186.39 40.178 186.24 39.7267 185.939 39.4015C185.638 39.0729 185.224 38.9086 184.699 38.9086C184.339 38.9086 184.019 38.9864 183.739 39.1421C183.462 39.2978 183.242 39.526 183.08 39.827C182.921 40.1244 182.841 40.4842 182.841 40.9061ZM193.005 45.7936C192.362 45.7936 191.788 45.6293 191.283 45.3007C190.781 44.9686 190.387 44.4965 190.1 43.8843C189.816 43.2686 189.674 42.5301 189.674 41.6688C189.674 40.8076 189.818 40.0708 190.105 39.4586C190.396 38.8464 190.793 38.3777 191.298 38.0525C191.803 37.7274 192.376 37.5648 193.016 37.5648C193.51 37.5648 193.908 37.6478 194.209 37.8139C194.513 37.9764 194.749 38.1667 194.915 38.3846C195.084 38.6025 195.216 38.7945 195.309 38.9605H195.402V35.0122H196.954V45.6379H195.439V44.3979H195.309C195.216 44.5674 195.081 44.7611 194.904 44.979C194.731 45.1969 194.493 45.3872 194.188 45.5497C193.884 45.7123 193.49 45.7936 193.005 45.7936ZM193.348 44.4706C193.794 44.4706 194.171 44.353 194.479 44.1177C194.79 43.8791 195.025 43.5488 195.184 43.1268C195.347 42.7048 195.428 42.2136 195.428 41.6533C195.428 41.0998 195.349 40.6156 195.19 40.2005C195.03 39.7855 194.797 39.462 194.489 39.2303C194.181 38.9986 193.801 38.8827 193.348 38.8827C192.881 38.8827 192.492 39.0037 192.18 39.2459C191.869 39.488 191.634 39.8183 191.475 40.2368C191.319 40.6554 191.241 41.1275 191.241 41.6533C191.241 42.1859 191.321 42.665 191.48 43.0904C191.639 43.5159 191.874 43.8531 192.186 44.1022C192.5 44.3478 192.888 44.4706 193.348 44.4706ZM211.984 38.4676H210.366C210.303 38.1217 210.187 37.8173 210.018 37.5545C209.848 37.2916 209.641 37.0685 209.395 36.8852C209.15 36.7018 208.875 36.5635 208.57 36.4701C208.269 36.3767 207.95 36.33 207.611 36.33C206.998 36.33 206.45 36.4839 205.966 36.7918C205.485 37.0996 205.105 37.551 204.824 38.1459C204.548 38.7409 204.409 39.4672 204.409 40.325C204.409 41.1898 204.548 41.9196 204.824 42.5145C205.105 43.1095 205.487 43.5591 205.971 43.8635C206.455 44.1679 207 44.3201 207.605 44.3201C207.941 44.3201 208.259 44.2751 208.56 44.1852C208.864 44.0918 209.139 43.9552 209.385 43.7753C209.631 43.5955 209.838 43.3758 210.008 43.1164C210.181 42.8535 210.3 42.5526 210.366 42.2136L211.984 42.2188C211.898 42.7411 211.73 43.2219 211.481 43.6612C211.235 44.097 210.919 44.474 210.532 44.7922C210.148 45.107 209.708 45.3508 209.214 45.5238C208.719 45.6967 208.18 45.7832 207.595 45.7832C206.675 45.7832 205.855 45.5653 205.136 45.1295C204.416 44.6902 203.849 44.0624 203.434 43.2461C203.022 42.4298 202.816 41.4561 202.816 40.325C202.816 39.1905 203.024 38.2168 203.439 37.404C203.854 36.5877 204.421 35.9616 205.141 35.5258C205.86 35.0865 206.678 34.8669 207.595 34.8669C208.159 34.8669 208.685 34.9482 209.172 35.1107C209.663 35.2698 210.104 35.5051 210.495 35.8164C210.886 36.1242 211.21 36.5012 211.465 36.9474C211.721 37.3902 211.894 37.8969 211.984 38.4676ZM217.135 45.7988C216.388 45.7988 215.736 45.6276 215.179 45.2851C214.622 44.9427 214.19 44.4636 213.882 43.848C213.574 43.2323 213.42 42.5128 213.42 41.6896C213.42 40.8629 213.574 40.14 213.882 39.5209C214.19 38.9017 214.622 38.4209 215.179 38.0785C215.736 37.7361 216.388 37.5648 217.135 37.5648C217.882 37.5648 218.534 37.7361 219.091 38.0785C219.648 38.4209 220.08 38.9017 220.388 39.5209C220.696 40.14 220.85 40.8629 220.85 41.6896C220.85 42.5128 220.696 43.2323 220.388 43.848C220.08 44.4636 219.648 44.9427 219.091 45.2851C218.534 45.6276 217.882 45.7988 217.135 45.7988ZM217.14 44.4965C217.625 44.4965 218.026 44.3685 218.344 44.1126C218.662 43.8566 218.897 43.5159 219.05 43.0904C219.205 42.665 219.283 42.1963 219.283 41.6844C219.283 41.1759 219.205 40.709 219.05 40.2835C218.897 39.8546 218.662 39.5105 218.344 39.2511C218.026 38.9916 217.625 38.8619 217.14 38.8619C216.653 38.8619 216.248 38.9916 215.926 39.2511C215.608 39.5105 215.371 39.8546 215.215 40.2835C215.063 40.709 214.987 41.1759 214.987 41.6844C214.987 42.1963 215.063 42.665 215.215 43.0904C215.371 43.5159 215.608 43.8566 215.926 44.1126C216.248 44.3685 216.653 44.4965 217.14 44.4965ZM224.133 40.9061V45.6379H222.582V37.6686H224.071V38.9657H224.169C224.353 38.5437 224.64 38.2047 225.03 37.9488C225.425 37.6928 225.921 37.5648 226.52 37.5648C227.063 37.5648 227.538 37.679 227.946 37.9073C228.355 38.1321 228.671 38.4676 228.896 38.9138C229.121 39.36 229.233 39.9117 229.233 40.5689V45.6379H227.682V40.7557C227.682 40.178 227.531 39.7267 227.23 39.4015C226.929 39.0729 226.516 38.9086 225.99 38.9086C225.631 38.9086 225.311 38.9864 225.03 39.1421C224.754 39.2978 224.534 39.526 224.372 39.827C224.212 40.1244 224.133 40.4842 224.133 40.9061ZM232.865 40.9061V45.6379H231.314V37.6686H232.803V38.9657H232.901C233.085 38.5437 233.372 38.2047 233.763 37.9488C234.157 37.6928 234.653 37.5648 235.252 37.5648C235.795 37.5648 236.27 37.679 236.678 37.9073C237.087 38.1321 237.403 38.4676 237.628 38.9138C237.853 39.36 237.965 39.9117 237.965 40.5689V45.6379H236.414V40.7557C236.414 40.178 236.263 39.7267 235.962 39.4015C235.661 39.0729 235.248 38.9086 234.722 38.9086C234.363 38.9086 234.043 38.9864 233.763 39.1421C233.486 39.2978 233.266 39.526 233.104 39.827C232.944 40.1244 232.865 40.4842 232.865 40.9061ZM243.48 45.7988C242.695 45.7988 242.019 45.631 241.452 45.2955C240.888 44.9565 240.452 44.4809 240.144 43.8687C239.84 43.253 239.688 42.5318 239.688 41.7052C239.688 40.8889 239.84 40.1694 240.144 39.5468C240.452 38.9242 240.881 38.4382 241.431 38.0889C241.984 37.7395 242.631 37.5648 243.371 37.5648C243.821 37.5648 244.257 37.6392 244.679 37.7879C245.101 37.9367 245.48 38.1701 245.815 38.4884C246.151 38.8066 246.415 39.2199 246.609 39.7284C246.803 40.2334 246.899 40.8473 246.899 41.5703V42.1202H240.564V40.958H245.379C245.379 40.5499 245.296 40.1884 245.13 39.8737C244.964 39.5554 244.731 39.3047 244.43 39.1213C244.132 38.938 243.783 38.8464 243.382 38.8464C242.946 38.8464 242.565 38.9536 242.24 39.168C241.919 39.379 241.67 39.6557 241.493 39.9982C241.32 40.3372 241.234 40.7055 241.234 41.1033V42.0113C241.234 42.5439 241.327 42.9971 241.514 43.3706C241.704 43.7442 241.969 44.0295 242.308 44.2267C242.647 44.4204 243.043 44.5173 243.496 44.5173C243.79 44.5173 244.058 44.4757 244.3 44.3927C244.542 44.3063 244.751 44.1783 244.928 44.0088C245.104 43.8393 245.239 43.63 245.333 43.381L246.801 43.6456C246.683 44.078 246.472 44.4567 246.168 44.7819C245.867 45.1035 245.488 45.3543 245.032 45.5342C244.579 45.7106 244.061 45.7988 243.48 45.7988ZM251.978 45.7988C251.206 45.7988 250.542 45.6241 249.985 45.2748C249.432 44.9219 249.006 44.436 248.709 43.8168C248.411 43.1977 248.263 42.4886 248.263 41.6896C248.263 40.8802 248.415 40.1659 248.719 39.5468C249.024 38.9242 249.453 38.4382 250.006 38.0889C250.559 37.7395 251.211 37.5648 251.962 37.5648C252.567 37.5648 253.107 37.6772 253.581 37.9021C254.055 38.1234 254.437 38.4348 254.727 38.836C255.021 39.2372 255.196 39.7059 255.251 40.242H253.742C253.659 39.8685 253.468 39.5468 253.171 39.277C252.877 39.0072 252.483 38.8723 251.988 38.8723C251.556 38.8723 251.177 38.9864 250.852 39.2147C250.53 39.4396 250.279 39.7612 250.099 40.1798C249.92 40.5948 249.83 41.086 249.83 41.6533C249.83 42.2344 249.918 42.7359 250.094 43.1579C250.271 43.5799 250.52 43.9068 250.841 44.1385C251.166 44.3702 251.549 44.4861 251.988 44.4861C252.282 44.4861 252.548 44.4325 252.787 44.3253C253.029 44.2146 253.231 44.0572 253.394 43.8531C253.56 43.6491 253.676 43.4035 253.742 43.1164H255.251C255.196 43.6318 255.028 44.0918 254.748 44.4965C254.468 44.9012 254.093 45.2194 253.622 45.4512C253.155 45.6829 252.607 45.7988 251.978 45.7988ZM260.63 37.6686V38.9138H256.277V37.6686H260.63ZM257.445 35.7593H258.996V43.298C258.996 43.5989 259.041 43.8255 259.131 43.9777C259.221 44.1264 259.337 44.2284 259.479 44.2838C259.624 44.3357 259.781 44.3616 259.951 44.3616C260.075 44.3616 260.184 44.353 260.278 44.3357C260.371 44.3184 260.444 44.3045 260.496 44.2942L260.776 45.5757C260.686 45.6103 260.558 45.6449 260.392 45.6794C260.226 45.7175 260.018 45.7382 259.769 45.7417C259.361 45.7486 258.981 45.676 258.628 45.5238C258.275 45.3716 257.99 45.1364 257.772 44.8182C257.554 44.5 257.445 44.1005 257.445 43.6197V35.7593ZM262.347 45.6379V37.6686H263.898V45.6379H262.347ZM263.13 36.439C262.86 36.439 262.628 36.349 262.435 36.1692C262.245 35.9858 262.149 35.7679 262.149 35.5154C262.149 35.2595 262.245 35.0416 262.435 34.8617C262.628 34.6784 262.86 34.5867 263.13 34.5867C263.4 34.5867 263.63 34.6784 263.82 34.8617C264.014 35.0416 264.111 35.2595 264.111 35.5154C264.111 35.7679 264.014 35.9858 263.82 36.1692C263.63 36.349 263.4 36.439 263.13 36.439ZM269.342 45.7988C268.595 45.7988 267.943 45.6276 267.386 45.2851C266.829 44.9427 266.397 44.4636 266.089 43.848C265.781 43.2323 265.627 42.5128 265.627 41.6896C265.627 40.8629 265.781 40.14 266.089 39.5209C266.397 38.9017 266.829 38.4209 267.386 38.0785C267.943 37.7361 268.595 37.5648 269.342 37.5648C270.089 37.5648 270.741 37.7361 271.298 38.0785C271.855 38.4209 272.287 38.9017 272.595 39.5209C272.903 40.14 273.057 40.8629 273.057 41.6896C273.057 42.5128 272.903 43.2323 272.595 43.848C272.287 44.4636 271.855 44.9427 271.298 45.2851C270.741 45.6276 270.089 45.7988 269.342 45.7988ZM269.347 44.4965C269.831 44.4965 270.232 44.3685 270.551 44.1126C270.869 43.8566 271.104 43.5159 271.256 43.0904C271.412 42.665 271.49 42.1963 271.49 41.6844C271.49 41.1759 271.412 40.709 271.256 40.2835C271.104 39.8546 270.869 39.5105 270.551 39.2511C270.232 38.9916 269.831 38.8619 269.347 38.8619C268.859 38.8619 268.455 38.9916 268.133 39.2511C267.815 39.5105 267.578 39.8546 267.422 40.2835C267.27 40.709 267.194 41.1759 267.194 41.6844C267.194 42.1963 267.27 42.665 267.422 43.0904C267.578 43.5159 267.815 43.8566 268.133 44.1126C268.455 44.3685 268.859 44.4965 269.347 44.4965ZM276.34 40.9061V45.6379H274.788V37.6686H276.277V38.9657H276.376C276.559 38.5437 276.846 38.2047 277.237 37.9488C277.631 37.6928 278.128 37.5648 278.726 37.5648C279.269 37.5648 279.745 37.679 280.153 37.9073C280.561 38.1321 280.878 38.4676 281.103 38.9138C281.327 39.36 281.44 39.9117 281.44 40.5689V45.6379H279.888V40.7557C279.888 40.178 279.738 39.7267 279.437 39.4015C279.136 39.0729 278.723 38.9086 278.197 38.9086C277.837 38.9086 277.517 38.9864 277.237 39.1421C276.96 39.2978 276.741 39.526 276.578 39.827C276.419 40.1244 276.34 40.4842 276.34 40.9061Z" fill="#0E101A"/>
</svg>
