<svg viewBox="0 0 305 63" fill="none" xmlns="http://www.w3.org/2000/svg">
<rect x="0.822325" y="1.3255" width="303.498" height="60.5595" rx="15.4072" fill="#FFEAEE"/>
<rect x="0.822325" y="1.3255" width="303.498" height="60.5595" rx="15.4072" stroke="#EA1537" stroke-width="1.21887"/>
<rect x="20.8066" y="31.6052" width="5.72022" height="5.72022" rx="2.86011" fill="#EA1537"/>
<path d="M137.919 35.1911C138.143 34.9677 138.143 34.6055 137.919 34.3821L134.279 30.7418C134.055 30.5184 133.693 30.5184 133.47 30.7418C133.246 30.9652 133.246 31.3274 133.47 31.5508L136.706 34.7866L133.47 38.0225C133.246 38.2459 133.246 38.608 133.47 38.8314C133.693 39.0548 134.055 39.0548 134.279 38.8314L137.919 35.1911ZM126.074 35.3586H137.515V34.2146H126.074V35.3586Z" fill="black"/>
<path d="M35.8179 40.3459V26.4893H37.5203V32.4017L37.2091 32.237C37.4532 31.6146 37.8437 31.1326 38.3806 30.7909C38.9297 30.437 39.5704 30.2601 40.3026 30.2601C41.0104 30.2601 41.6388 30.4187 42.188 30.736C42.7493 31.0533 43.1886 31.4926 43.5059 32.0539C43.8354 32.6153 44.0001 33.2498 44.0001 33.9576V40.3459H42.2795V34.5067C42.2795 33.9576 42.1758 33.4939 41.9683 33.1156C41.7731 32.7373 41.4985 32.4444 41.1446 32.237C40.7907 32.0173 40.3819 31.9075 39.9182 31.9075C39.4667 31.9075 39.0579 32.0173 38.6918 32.237C38.3257 32.4444 38.0389 32.7434 37.8315 33.1339C37.624 33.5122 37.5203 33.9698 37.5203 34.5067V40.3459H35.8179ZM51.1221 40.5656C50.1703 40.5656 49.3099 40.3459 48.5411 39.9066C47.7723 39.4551 47.1622 38.8389 46.7107 38.0579C46.2591 37.2769 46.0334 36.3921 46.0334 35.4037C46.0334 34.4152 46.253 33.5366 46.6924 32.7678C47.1439 31.999 47.754 31.3888 48.5228 30.9373C49.2916 30.4858 50.158 30.2601 51.1221 30.2601C52.0739 30.2601 52.9343 30.4858 53.7031 30.9373C54.4719 31.3766 55.0759 31.9807 55.5152 32.7495C55.9667 33.5183 56.1925 34.403 56.1925 35.4037C56.1925 36.4043 55.9606 37.2952 55.4969 38.0762C55.0332 38.845 54.4169 39.4551 53.6481 39.9066C52.8916 40.3459 52.0495 40.5656 51.1221 40.5656ZM51.1221 38.9182C51.7323 38.9182 52.2814 38.7656 52.7695 38.4606C53.2698 38.1555 53.6603 37.7345 53.941 37.1975C54.2339 36.6606 54.3803 36.0626 54.3803 35.4037C54.3803 34.7325 54.2339 34.1407 53.941 33.6281C53.6603 33.1034 53.2698 32.6885 52.7695 32.3834C52.2814 32.0661 51.7323 31.9075 51.1221 31.9075C50.4997 31.9075 49.9384 32.0661 49.4381 32.3834C48.9499 32.6885 48.5594 33.1034 48.2666 33.6281C47.9737 34.1407 47.8273 34.7325 47.8273 35.4037C47.8273 36.0626 47.9737 36.6606 48.2666 37.1975C48.5594 37.7345 48.9499 38.1555 49.4381 38.4606C49.9384 38.7656 50.4997 38.9182 51.1221 38.9182ZM58.4128 40.3459V30.4797H60.0785V32.4932L59.8406 32.1821C60.0846 31.5597 60.4751 31.0838 61.0121 30.7543C61.549 30.4248 62.1531 30.2601 62.8242 30.2601C63.593 30.2601 64.2825 30.4736 64.8927 30.9007C65.515 31.3278 65.9421 31.8892 66.174 32.5848L65.6981 32.6031C65.9543 31.8343 66.3875 31.2546 66.9977 30.8641C67.6079 30.4614 68.2851 30.2601 69.0295 30.2601C69.7129 30.2601 70.3292 30.4187 70.8783 30.736C71.4396 31.0533 71.8851 31.4926 72.2145 32.0539C72.544 32.6153 72.7088 33.2498 72.7088 33.9576V40.3459H70.9881V34.5067C70.9881 33.9576 70.8905 33.4939 70.6953 33.1156C70.5 32.7373 70.2315 32.4444 69.8898 32.237C69.5604 32.0173 69.1699 31.9075 68.7183 31.9075C68.279 31.9075 67.8824 32.0173 67.5285 32.237C67.1869 32.4444 66.9123 32.7434 66.7048 33.1339C66.5096 33.5122 66.412 33.9698 66.412 34.5067V40.3459H64.6913V34.5067C64.6913 33.9576 64.5937 33.4939 64.3984 33.1156C64.2032 32.7373 63.9347 32.4444 63.593 32.237C63.2635 32.0173 62.873 31.9075 62.4215 31.9075C61.9822 31.9075 61.5856 32.0173 61.2317 32.237C60.89 32.4444 60.6155 32.7434 60.408 33.1339C60.2128 33.5122 60.1151 33.9698 60.1151 34.5067V40.3459H58.4128ZM75.1266 40.3459V30.4797H76.7923V32.4932L76.5543 32.1821C76.7984 31.5597 77.1889 31.0838 77.7258 30.7543C78.2628 30.4248 78.8668 30.2601 79.538 30.2601C80.3068 30.2601 80.9963 30.4736 81.6064 30.9007C82.2288 31.3278 82.6559 31.8892 82.8878 32.5848L82.4118 32.6031C82.6681 31.8343 83.1013 31.2546 83.7115 30.8641C84.3216 30.4614 84.9989 30.2601 85.7433 30.2601C86.4267 30.2601 87.0429 30.4187 87.5921 30.736C88.1534 31.0533 88.5988 31.4926 88.9283 32.0539C89.2578 32.6153 89.4225 33.2498 89.4225 33.9576V40.3459H87.7019V34.5067C87.7019 33.9576 87.6043 33.4939 87.409 33.1156C87.2138 32.7373 86.9453 32.4444 86.6036 32.237C86.2741 32.0173 85.8836 31.9075 85.4321 31.9075C84.9928 31.9075 84.5962 32.0173 84.2423 32.237C83.9006 32.4444 83.626 32.7434 83.4186 33.1339C83.2233 33.5122 83.1257 33.9698 83.1257 34.5067V40.3459H81.4051V34.5067C81.4051 33.9576 81.3074 33.4939 81.1122 33.1156C80.9169 32.7373 80.6485 32.4444 80.3068 32.237C79.9773 32.0173 79.5868 31.9075 79.1353 31.9075C78.696 31.9075 78.2994 32.0173 77.9455 32.237C77.6038 32.4444 77.3292 32.7434 77.1218 33.1339C76.9265 33.5122 76.8289 33.9698 76.8289 34.5067V40.3459H75.1266ZM91.8403 40.3459V26.4893H93.5427V40.3459H91.8403ZM100.724 40.5656C99.7718 40.5656 98.9237 40.3398 98.1793 39.8883C97.4349 39.4368 96.8492 38.8206 96.4221 38.0396C95.995 37.2464 95.7814 36.3616 95.7814 35.3854C95.7814 34.3969 95.9889 33.5183 96.4038 32.7495C96.8309 31.9807 97.4044 31.3766 98.1244 30.9373C98.8566 30.4858 99.6742 30.2601 100.577 30.2601C101.309 30.2601 101.956 30.3943 102.518 30.6628C103.091 30.919 103.573 31.2729 103.964 31.7244C104.366 32.1637 104.671 32.6702 104.879 33.2437C105.099 33.8051 105.208 34.3908 105.208 35.001C105.208 35.1352 105.196 35.2877 105.172 35.4586C105.16 35.6172 105.141 35.7698 105.117 35.9162H97.0261V34.4518H104.128L103.323 35.1108C103.433 34.4762 103.372 33.9088 103.14 33.4085C102.908 32.9081 102.566 32.5115 102.115 32.2187C101.663 31.9258 101.151 31.7793 100.577 31.7793C100.004 31.7793 99.479 31.9258 99.003 32.2187C98.5271 32.5115 98.1549 32.9325 97.8865 33.4817C97.6302 34.0186 97.5265 34.6593 97.5753 35.4037C97.5265 36.1237 97.6363 36.7582 97.9048 37.3074C98.1854 37.8443 98.5759 38.2653 99.0763 38.5704C99.5888 38.8633 100.144 39.0097 100.742 39.0097C101.401 39.0097 101.956 38.8572 102.408 38.5521C102.859 38.247 103.225 37.8565 103.506 37.3806L104.934 38.1128C104.739 38.5643 104.433 38.9792 104.019 39.3575C103.616 39.7236 103.134 40.0165 102.572 40.2361C102.023 40.4558 101.407 40.5656 100.724 40.5656ZM110.961 40.5656C109.972 40.5656 109.112 40.3215 108.38 39.8334C107.648 39.3453 107.129 38.6863 106.824 37.8565L108.178 37.1975C108.459 37.7833 108.843 38.247 109.332 38.5887C109.82 38.9304 110.363 39.1012 110.961 39.1012C111.498 39.1012 111.943 38.9731 112.297 38.7168C112.651 38.4606 112.828 38.125 112.828 37.7101C112.828 37.4172 112.742 37.1853 112.572 37.0145C112.413 36.8314 112.218 36.6911 111.986 36.5935C111.754 36.4837 111.54 36.4043 111.345 36.3555L109.862 35.9345C108.972 35.6782 108.319 35.3122 107.904 34.8362C107.501 34.3603 107.3 33.8051 107.3 33.1705C107.3 32.5848 107.446 32.0783 107.739 31.6512C108.044 31.2119 108.453 30.8702 108.966 30.6262C109.49 30.3821 110.076 30.2601 110.723 30.2601C111.589 30.2601 112.364 30.4797 113.047 30.919C113.743 31.3583 114.237 31.9746 114.53 32.7678L113.139 33.4085C112.919 32.8959 112.59 32.4932 112.151 32.2004C111.711 31.8953 111.217 31.7427 110.668 31.7427C110.168 31.7427 109.771 31.8709 109.478 32.1271C109.185 32.3712 109.039 32.6824 109.039 33.0607C109.039 33.3413 109.112 33.5732 109.258 33.7563C109.405 33.9271 109.582 34.0613 109.789 34.159C109.997 34.2444 110.198 34.3176 110.393 34.3786L112.004 34.8545C112.81 35.0864 113.432 35.4464 113.871 35.9345C114.323 36.4226 114.548 37.0084 114.548 37.6918C114.548 38.2409 114.396 38.7351 114.091 39.1744C113.786 39.6138 113.365 39.9554 112.828 40.1995C112.291 40.4436 111.669 40.5656 110.961 40.5656Z" fill="black"/>
<path d="M34.5 34.4518H115.464V35.184H34.5V34.4518Z" fill="black"/>
<path d="M148.184 40.3459V26.7089H149.978V32.7861H156.806V26.7089H158.618V40.3459H156.806V34.4335H149.978V40.3459H148.184ZM166.129 40.5656C165.178 40.5656 164.317 40.3459 163.548 39.9066C162.78 39.4551 162.169 38.8389 161.718 38.0579C161.266 37.2769 161.041 36.3921 161.041 35.4037C161.041 34.4152 161.26 33.5366 161.7 32.7678C162.151 31.999 162.761 31.3888 163.53 30.9373C164.299 30.4858 165.165 30.2601 166.129 30.2601C167.081 30.2601 167.942 30.4858 168.71 30.9373C169.479 31.3766 170.083 31.9807 170.522 32.7495C170.974 33.5183 171.2 34.403 171.2 35.4037C171.2 36.4043 170.968 37.2952 170.504 38.0762C170.04 38.845 169.424 39.4551 168.655 39.9066C167.899 40.3459 167.057 40.5656 166.129 40.5656ZM166.129 38.9182C166.74 38.9182 167.289 38.7656 167.777 38.4606C168.277 38.1555 168.668 37.7345 168.948 37.1975C169.241 36.6606 169.388 36.0626 169.388 35.4037C169.388 34.7325 169.241 34.1407 168.948 33.6281C168.668 33.1034 168.277 32.6885 167.777 32.3834C167.289 32.0661 166.74 31.9075 166.129 31.9075C165.507 31.9075 164.946 32.0661 164.445 32.3834C163.957 32.6885 163.567 33.1034 163.274 33.6281C162.981 34.1407 162.835 34.7325 162.835 35.4037C162.835 36.0626 162.981 36.6606 163.274 37.1975C163.567 37.7345 163.957 38.1555 164.445 38.4606C164.946 38.7656 165.507 38.9182 166.129 38.9182ZM173.42 40.3459V30.4797H175.086V32.4932L174.848 32.1821C175.092 31.5597 175.482 31.0838 176.019 30.7543C176.556 30.4248 177.16 30.2601 177.832 30.2601C178.6 30.2601 179.29 30.4736 179.9 30.9007C180.522 31.3278 180.949 31.8892 181.181 32.5848L180.705 32.6031C180.962 31.8343 181.395 31.2546 182.005 30.8641C182.615 30.4614 183.292 30.2601 184.037 30.2601C184.72 30.2601 185.336 30.4187 185.886 30.736C186.447 31.0533 186.892 31.4926 187.222 32.0539C187.551 32.6153 187.716 33.2498 187.716 33.9576V40.3459H185.995V34.5067C185.995 33.9576 185.898 33.4939 185.703 33.1156C185.507 32.7373 185.239 32.4444 184.897 32.237C184.568 32.0173 184.177 31.9075 183.726 31.9075C183.286 31.9075 182.89 32.0173 182.536 32.237C182.194 32.4444 181.92 32.7434 181.712 33.1339C181.517 33.5122 181.419 33.9698 181.419 34.5067V40.3459H179.699V34.5067C179.699 33.9576 179.601 33.4939 179.406 33.1156C179.21 32.7373 178.942 32.4444 178.6 32.237C178.271 32.0173 177.88 31.9075 177.429 31.9075C176.989 31.9075 176.593 32.0173 176.239 32.237C175.897 32.4444 175.623 32.7434 175.415 33.1339C175.22 33.5122 175.122 33.9698 175.122 34.5067V40.3459H173.42ZM194.673 40.5656C193.722 40.5656 192.873 40.3398 192.129 39.8883C191.385 39.4368 190.799 38.8206 190.372 38.0396C189.945 37.2464 189.731 36.3616 189.731 35.3854C189.731 34.3969 189.939 33.5183 190.353 32.7495C190.781 31.9807 191.354 31.3766 192.074 30.9373C192.806 30.4858 193.624 30.2601 194.527 30.2601C195.259 30.2601 195.906 30.3943 196.467 30.6628C197.041 30.919 197.523 31.2729 197.913 31.7244C198.316 32.1637 198.621 32.6702 198.829 33.2437C199.048 33.8051 199.158 34.3908 199.158 35.001C199.158 35.1352 199.146 35.2877 199.121 35.4586C199.109 35.6172 199.091 35.7698 199.067 35.9162H190.976V34.4518H198.078L197.273 35.1108C197.382 34.4762 197.321 33.9088 197.09 33.4085C196.858 32.9081 196.516 32.5115 196.065 32.2187C195.613 31.9258 195.101 31.7793 194.527 31.7793C193.953 31.7793 193.429 31.9258 192.953 32.2187C192.477 32.5115 192.105 32.9325 191.836 33.4817C191.58 34.0186 191.476 34.6593 191.525 35.4037C191.476 36.1237 191.586 36.7582 191.854 37.3074C192.135 37.8443 192.526 38.2653 193.026 38.5704C193.539 38.8633 194.094 39.0097 194.692 39.0097C195.351 39.0097 195.906 38.8572 196.357 38.5521C196.809 38.247 197.175 37.8565 197.456 37.3806L198.883 38.1128C198.688 38.5643 198.383 38.9792 197.968 39.3575C197.566 39.7236 197.084 40.0165 196.522 40.2361C195.973 40.4558 195.357 40.5656 194.673 40.5656ZM201.378 40.3459V26.4893H203.08V40.3459H201.378ZM210.261 40.5656C209.309 40.5656 208.461 40.3398 207.717 39.8883C206.972 39.4368 206.387 38.8206 205.959 38.0396C205.532 37.2464 205.319 36.3616 205.319 35.3854C205.319 34.3969 205.526 33.5183 205.941 32.7495C206.368 31.9807 206.942 31.3766 207.662 30.9373C208.394 30.4858 209.212 30.2601 210.115 30.2601C210.847 30.2601 211.494 30.3943 212.055 30.6628C212.628 30.919 213.11 31.2729 213.501 31.7244C213.904 32.1637 214.209 32.6702 214.416 33.2437C214.636 33.8051 214.746 34.3908 214.746 35.001C214.746 35.1352 214.733 35.2877 214.709 35.4586C214.697 35.6172 214.679 35.7698 214.654 35.9162H206.563V34.4518H213.666L212.86 35.1108C212.97 34.4762 212.909 33.9088 212.677 33.4085C212.445 32.9081 212.104 32.5115 211.652 32.2187C211.201 31.9258 210.688 31.7793 210.115 31.7793C209.541 31.7793 209.016 31.9258 208.54 32.2187C208.064 32.5115 207.692 32.9325 207.424 33.4817C207.168 34.0186 207.064 34.6593 207.113 35.4037C207.064 36.1237 207.174 36.7582 207.442 37.3074C207.723 37.8443 208.113 38.2653 208.614 38.5704C209.126 38.8633 209.681 39.0097 210.279 39.0097C210.938 39.0097 211.494 38.8572 211.945 38.5521C212.397 38.247 212.763 37.8565 213.043 37.3806L214.471 38.1128C214.276 38.5643 213.971 38.9792 213.556 39.3575C213.153 39.7236 212.671 40.0165 212.11 40.2361C211.561 40.4558 210.944 40.5656 210.261 40.5656ZM220.498 40.5656C219.51 40.5656 218.649 40.3215 217.917 39.8334C217.185 39.3453 216.666 38.6863 216.361 37.8565L217.716 37.1975C217.996 37.7833 218.381 38.247 218.869 38.5887C219.357 38.9304 219.9 39.1012 220.498 39.1012C221.035 39.1012 221.48 38.9731 221.834 38.7168C222.188 38.4606 222.365 38.125 222.365 37.7101C222.365 37.4172 222.28 37.1853 222.109 37.0145C221.95 36.8314 221.755 36.6911 221.523 36.5935C221.291 36.4837 221.078 36.4043 220.882 36.3555L219.4 35.9345C218.509 35.6782 217.856 35.3122 217.441 34.8362C217.038 34.3603 216.837 33.8051 216.837 33.1705C216.837 32.5848 216.984 32.0783 217.276 31.6512C217.581 31.2119 217.99 30.8702 218.503 30.6262C219.028 30.3821 219.613 30.2601 220.26 30.2601C221.126 30.2601 221.901 30.4797 222.585 30.919C223.28 31.3583 223.775 31.9746 224.067 32.7678L222.676 33.4085C222.457 32.8959 222.127 32.4932 221.688 32.2004C221.249 31.8953 220.754 31.7427 220.205 31.7427C219.705 31.7427 219.308 31.8709 219.015 32.1271C218.722 32.3712 218.576 32.6824 218.576 33.0607C218.576 33.3413 218.649 33.5732 218.796 33.7563C218.942 33.9271 219.119 34.0613 219.327 34.159C219.534 34.2444 219.735 34.3176 219.931 34.3786L221.541 34.8545C222.347 35.0864 222.969 35.4464 223.408 35.9345C223.86 36.4226 224.086 37.0084 224.086 37.6918C224.086 38.2409 223.933 38.7351 223.628 39.1744C223.323 39.6138 222.902 39.9554 222.365 40.1995C221.828 40.4436 221.206 40.5656 220.498 40.5656ZM229.847 40.5656C228.859 40.5656 227.998 40.3215 227.266 39.8334C226.534 39.3453 226.015 38.6863 225.71 37.8565L227.065 37.1975C227.345 37.7833 227.73 38.247 228.218 38.5887C228.706 38.9304 229.249 39.1012 229.847 39.1012C230.384 39.1012 230.829 38.9731 231.183 38.7168C231.537 38.4606 231.714 38.125 231.714 37.7101C231.714 37.4172 231.629 37.1853 231.458 37.0145C231.299 36.8314 231.104 36.6911 230.872 36.5935C230.64 36.4837 230.427 36.4043 230.231 36.3555L228.749 35.9345C227.858 35.6782 227.205 35.3122 226.79 34.8362C226.387 34.3603 226.186 33.8051 226.186 33.1705C226.186 32.5848 226.333 32.0783 226.625 31.6512C226.93 31.2119 227.339 30.8702 227.852 30.6262C228.377 30.3821 228.962 30.2601 229.609 30.2601C230.475 30.2601 231.25 30.4797 231.934 30.919C232.629 31.3583 233.124 31.9746 233.416 32.7678L232.025 33.4085C231.806 32.8959 231.476 32.4932 231.037 32.2004C230.598 31.8953 230.103 31.7427 229.554 31.7427C229.054 31.7427 228.657 31.8709 228.364 32.1271C228.071 32.3712 227.925 32.6824 227.925 33.0607C227.925 33.3413 227.998 33.5732 228.145 33.7563C228.291 33.9271 228.468 34.0613 228.676 34.159C228.883 34.2444 229.084 34.3176 229.28 34.3786L230.89 34.8545C231.696 35.0864 232.318 35.4464 232.757 35.9345C233.209 36.4226 233.435 37.0084 233.435 37.6918C233.435 38.2409 233.282 38.7351 232.977 39.1744C232.672 39.6138 232.251 39.9554 231.714 40.1995C231.177 40.4436 230.555 40.5656 229.847 40.5656Z" fill="#15C39A"/>
<path d="M146.665 34.4518H234.35V35.184H146.665V34.4518Z" fill="#15C39A"/>
</svg>
