<svg viewBox="0 0 282 113" fill="none" xmlns="http://www.w3.org/2000/svg">
<rect x="0.96588" y="0.910704" width="279.731" height="110.524" rx="14.1852" fill="#F1F1F1"/>
<rect x="0.96588" y="0.910704" width="279.731" height="110.524" rx="14.1852" stroke="#A5A7A9" stroke-width="1.21887"/>
<path d="M47.6502 33.3113C46.9267 33.3113 46.2581 33.1831 45.6445 32.9267C45.04 32.6611 44.5088 32.2902 44.0509 31.8139C43.6021 31.3377 43.2541 30.779 43.0068 30.1379C42.7595 29.4968 42.6359 28.7961 42.6359 28.036C42.6359 27.2667 42.7595 26.5614 43.0068 25.9203C43.2541 25.2792 43.6021 24.7206 44.0509 24.2443C44.4996 23.7681 45.0308 23.4017 45.6445 23.1453C46.2581 22.8797 46.9267 22.7469 47.6502 22.7469C48.3554 22.7469 48.9874 22.8705 49.546 23.1178C50.1139 23.3651 50.5901 23.6856 50.9748 24.0795C51.3686 24.4733 51.6479 24.8946 51.8128 25.3434L50.5764 25.9066C50.3383 25.3388 49.9673 24.8808 49.4636 24.5328C48.9599 24.1756 48.3554 23.997 47.6502 23.997C46.9358 23.997 46.2993 24.1665 45.7406 24.5053C45.1911 24.8442 44.7607 25.3159 44.4493 25.9203C44.1379 26.5248 43.9822 27.23 43.9822 28.036C43.9822 28.8328 44.1379 29.5334 44.4493 30.1379C44.7607 30.7423 45.1911 31.214 45.7406 31.5529C46.2993 31.8918 46.9358 32.0612 47.6502 32.0612C48.3554 32.0612 48.9599 31.8872 49.4636 31.5391C49.9673 31.182 50.3383 30.7195 50.5764 30.1516L51.8128 30.7149C51.6479 31.1636 51.3686 31.5849 50.9748 31.9788C50.5901 32.3726 50.1139 32.6931 49.546 32.9404C48.9874 33.1877 48.3554 33.3113 47.6502 33.3113ZM56.8756 33.3113C56.1613 33.3113 55.5156 33.1465 54.9386 32.8168C54.3616 32.4779 53.9037 32.0154 53.5648 31.4292C53.2259 30.8431 53.0565 30.1791 53.0565 29.4372C53.0565 28.6954 53.2214 28.036 53.5511 27.459C53.8899 26.882 54.3479 26.4241 54.9249 26.0852C55.5018 25.7463 56.1521 25.5769 56.8756 25.5769C57.59 25.5769 58.2357 25.7463 58.8127 26.0852C59.3897 26.4149 59.843 26.8683 60.1727 27.4453C60.5116 28.0222 60.681 28.6862 60.681 29.4372C60.681 30.1883 60.507 30.8568 60.159 31.443C59.811 32.02 59.3485 32.4779 58.7715 32.8168C58.2036 33.1465 57.5717 33.3113 56.8756 33.3113ZM56.8756 32.0749C57.3336 32.0749 57.7457 31.9604 58.1121 31.7315C58.4876 31.5025 58.7806 31.1865 58.9913 30.7836C59.2111 30.3806 59.321 29.9318 59.321 29.4372C59.321 28.9335 59.2111 28.4893 58.9913 28.1047C58.7806 27.7109 58.4876 27.3995 58.1121 27.1705C57.7457 26.9324 57.3336 26.8133 56.8756 26.8133C56.4086 26.8133 55.9873 26.9324 55.6118 27.1705C55.2454 27.3995 54.9523 27.7109 54.7325 28.1047C54.5127 28.4893 54.4028 28.9335 54.4028 29.4372C54.4028 29.9318 54.5127 30.3806 54.7325 30.7836C54.9523 31.1865 55.2454 31.5025 55.6118 31.7315C55.9873 31.9604 56.4086 32.0749 56.8756 32.0749ZM62.3474 33.1465V25.7417H63.5976V27.1842L63.3915 27.0606C63.5747 26.5935 63.8677 26.2317 64.2707 25.9753C64.6829 25.7097 65.1637 25.5769 65.7132 25.5769C66.2444 25.5769 66.7161 25.696 67.1282 25.9341C67.5495 26.1722 67.8792 26.5019 68.1173 26.9232C68.3646 27.3445 68.4883 27.8208 68.4883 28.352V33.1465H67.1969V28.7641C67.1969 28.352 67.1236 28.0039 66.9771 27.72C66.8305 27.4361 66.6199 27.2163 66.3451 27.0606C66.0795 26.8957 65.7727 26.8133 65.4247 26.8133C65.0767 26.8133 64.7653 26.8957 64.4905 27.0606C64.2249 27.2163 64.0143 27.4407 63.8586 27.7337C63.7029 28.0177 63.625 28.3611 63.625 28.7641V33.1465H62.3474ZM72.9679 33.3113C72.226 33.3113 71.5804 33.1282 71.0308 32.7618C70.4813 32.3955 70.0921 31.9009 69.8631 31.2781L70.8797 30.7836C71.0904 31.2232 71.3789 31.5712 71.7452 31.8276C72.1116 32.0841 72.5191 32.2123 72.9679 32.2123C73.3709 32.2123 73.7052 32.1161 73.9708 31.9238C74.2364 31.7315 74.3692 31.4796 74.3692 31.1682C74.3692 30.9484 74.305 30.7744 74.1768 30.6462C74.0578 30.5088 73.9112 30.4035 73.7372 30.3302C73.5632 30.2478 73.4029 30.1883 73.2564 30.1516L72.1436 29.8356C71.475 29.6433 70.985 29.3686 70.6737 29.0114C70.3714 28.6542 70.2203 28.2375 70.2203 27.7612C70.2203 27.3216 70.3302 26.9415 70.55 26.621C70.779 26.2913 71.0858 26.0348 71.4705 25.8517C71.8643 25.6685 72.3039 25.5769 72.7893 25.5769C73.4396 25.5769 74.0211 25.7417 74.534 26.0715C75.056 26.4012 75.427 26.8637 75.6468 27.459L74.6027 27.9398C74.4378 27.5552 74.1906 27.2529 73.8609 27.0331C73.5311 26.8041 73.1602 26.6897 72.7481 26.6897C72.3726 26.6897 72.0749 26.7858 71.8551 26.9782C71.6353 27.1613 71.5254 27.3949 71.5254 27.6788C71.5254 27.8894 71.5804 28.0635 71.6903 28.2008C71.8002 28.3291 71.933 28.4298 72.0887 28.5031C72.2444 28.5672 72.3955 28.6221 72.542 28.6679L73.7509 29.0251C74.3554 29.1991 74.8225 29.4693 75.1522 29.8356C75.4911 30.202 75.6605 30.6416 75.6605 31.1545C75.6605 31.5666 75.546 31.9375 75.3171 32.2673C75.0881 32.597 74.7721 32.8534 74.3692 33.0366C73.9662 33.2198 73.4991 33.3113 72.9679 33.3113ZM77.333 33.1465V25.7417H78.6106V33.1465H77.333ZM77.333 24.5603V22.9117H78.6106V24.5603H77.333ZM83.9589 33.3113C83.2628 33.3113 82.6354 33.1419 82.0768 32.803C81.5273 32.4642 81.0922 32.0017 80.7717 31.4155C80.4511 30.8294 80.2908 30.1745 80.2908 29.451C80.2908 28.7091 80.4511 28.0497 80.7717 27.4727C81.0922 26.8866 81.5273 26.4241 82.0768 26.0852C82.6354 25.7463 83.2628 25.5769 83.9589 25.5769C84.5725 25.5769 85.1174 25.7097 85.5937 25.9753C86.0699 26.2317 86.4454 26.5798 86.7202 27.0194L86.5141 27.3353V22.7469H87.8055V33.1465H86.5553V31.5666L86.7202 31.7864C86.4637 32.2718 86.0882 32.6473 85.5937 32.9129C85.1083 33.1785 84.5633 33.3113 83.9589 33.3113ZM84.0688 32.0749C84.5359 32.0749 84.9526 31.9604 85.3189 31.7315C85.6853 31.5025 85.9738 31.1911 86.1844 30.7973C86.4042 30.3943 86.5141 29.9456 86.5141 29.451C86.5141 28.9473 86.4042 28.4985 86.1844 28.1047C85.9738 27.7017 85.6853 27.3857 85.3189 27.1568C84.9526 26.9278 84.5359 26.8133 84.0688 26.8133C83.6108 26.8133 83.1941 26.9324 82.8186 27.1705C82.4523 27.3995 82.1638 27.7109 81.9531 28.1047C81.7425 28.4893 81.6372 28.9381 81.6372 29.451C81.6372 29.9456 81.7425 30.3943 81.9531 30.7973C82.1638 31.1911 82.4523 31.5025 82.8186 31.7315C83.185 31.9604 83.6017 32.0749 84.0688 32.0749ZM93.19 33.3113C92.4756 33.3113 91.8391 33.1419 91.2804 32.803C90.7217 32.4642 90.2821 32.0017 89.9616 31.4155C89.641 30.8202 89.4807 30.1562 89.4807 29.4235C89.4807 28.6817 89.6364 28.0222 89.9478 27.4453C90.2684 26.8683 90.6988 26.4149 91.2392 26.0852C91.7887 25.7463 92.4023 25.5769 93.0801 25.5769C93.6296 25.5769 94.115 25.6776 94.5363 25.8791C94.9668 26.0715 95.3285 26.3371 95.6216 26.6759C95.9238 27.0056 96.1528 27.3857 96.3085 27.8162C96.4733 28.2375 96.5558 28.6771 96.5558 29.135C96.5558 29.2358 96.5466 29.3502 96.5283 29.4785C96.5191 29.5975 96.5054 29.712 96.4871 29.8219H90.4149V28.7229H95.7452L95.1408 29.2174C95.2232 28.7412 95.1774 28.3153 95.0034 27.9398C94.8294 27.5643 94.5729 27.2667 94.2341 27.0469C93.8952 26.827 93.5105 26.7171 93.0801 26.7171C92.6496 26.7171 92.2558 26.827 91.8986 27.0469C91.5414 27.2667 91.2621 27.5826 91.0606 27.9948C90.8683 28.3977 90.7904 28.8786 90.8271 29.4372C90.7904 29.9776 90.8729 30.4539 91.0743 30.866C91.285 31.269 91.5781 31.5849 91.9536 31.8139C92.3382 32.0337 92.755 32.1436 93.2037 32.1436C93.6983 32.1436 94.115 32.0291 94.4539 31.8002C94.7927 31.5712 95.0675 31.2781 95.2781 30.9209L96.3497 31.4705C96.2032 31.8093 95.9742 32.1207 95.6628 32.4046C95.3606 32.6794 94.9988 32.8992 94.5775 33.0641C94.1654 33.2289 93.7029 33.3113 93.19 33.3113ZM98.2216 33.1465V25.7417H99.4718V27.1018L99.3344 26.9095C99.5084 26.4882 99.774 26.1768 100.131 25.9753C100.488 25.7646 100.923 25.6593 101.436 25.6593H101.89V26.8683H101.244C100.722 26.8683 100.301 27.0331 99.9801 27.3628C99.6595 27.6834 99.4992 28.1413 99.4992 28.7366V33.1465H98.2216ZM109.232 33.3113C108.637 33.3113 108.092 33.1785 107.597 32.9129C107.112 32.6473 106.736 32.2718 106.471 31.7864L106.649 31.5666V33.1465H105.399V22.7469H106.677V27.3353L106.484 27.0194C106.759 26.5798 107.135 26.2317 107.611 25.9753C108.087 25.7097 108.632 25.5769 109.246 25.5769C109.942 25.5769 110.565 25.7463 111.114 26.0852C111.673 26.4241 112.112 26.8866 112.433 27.4727C112.753 28.0497 112.914 28.7091 112.914 29.451C112.914 30.1745 112.753 30.8294 112.433 31.4155C112.112 32.0017 111.673 32.4642 111.114 32.803C110.565 33.1419 109.937 33.3113 109.232 33.3113ZM109.136 32.0749C109.603 32.0749 110.02 31.9604 110.386 31.7315C110.752 31.5025 111.036 31.1911 111.238 30.7973C111.448 30.3943 111.554 29.9456 111.554 29.451C111.554 28.9381 111.448 28.4893 111.238 28.1047C111.036 27.7109 110.752 27.3995 110.386 27.1705C110.02 26.9324 109.603 26.8133 109.136 26.8133C108.669 26.8133 108.247 26.9278 107.872 27.1568C107.506 27.3857 107.213 27.7017 106.993 28.1047C106.782 28.4985 106.677 28.9473 106.677 29.451C106.677 29.9456 106.782 30.3943 106.993 30.7973C107.213 31.1911 107.506 31.5025 107.872 31.7315C108.247 31.9604 108.669 32.0749 109.136 32.0749ZM114.589 33.1465V25.7417H115.839V27.1018L115.702 26.9095C115.876 26.4882 116.141 26.1768 116.499 25.9753C116.856 25.7646 117.291 25.6593 117.804 25.6593H118.257V26.8683H117.611C117.089 26.8683 116.668 27.0331 116.347 27.3628C116.027 27.6834 115.867 28.1413 115.867 28.7366V33.1465H114.589ZM122.799 33.3113C122.085 33.3113 121.448 33.1419 120.889 32.803C120.331 32.4642 119.891 32.0017 119.571 31.4155C119.25 30.8202 119.09 30.1562 119.09 29.4235C119.09 28.6817 119.245 28.0222 119.557 27.4453C119.877 26.8683 120.308 26.4149 120.848 26.0852C121.398 25.7463 122.011 25.5769 122.689 25.5769C123.239 25.5769 123.724 25.6776 124.145 25.8791C124.576 26.0715 124.937 26.3371 125.231 26.6759C125.533 27.0056 125.762 27.3857 125.917 27.8162C126.082 28.2375 126.165 28.6771 126.165 29.135C126.165 29.2358 126.156 29.3502 126.137 29.4785C126.128 29.5975 126.114 29.712 126.096 29.8219H120.024V28.7229H125.354L124.75 29.2174C124.832 28.7412 124.786 28.3153 124.612 27.9398C124.438 27.5643 124.182 27.2667 123.843 27.0469C123.504 26.827 123.119 26.7171 122.689 26.7171C122.259 26.7171 121.865 26.827 121.508 27.0469C121.15 27.2667 120.871 27.5826 120.67 27.9948C120.477 28.3977 120.399 28.8786 120.436 29.4372C120.399 29.9776 120.482 30.4539 120.683 30.866C120.894 31.269 121.187 31.5849 121.563 31.8139C121.947 32.0337 122.364 32.1436 122.813 32.1436C123.307 32.1436 123.724 32.0291 124.063 31.8002C124.402 31.5712 124.676 31.2781 124.887 30.9209L125.959 31.4705C125.812 31.8093 125.583 32.1207 125.272 32.4046C124.97 32.6794 124.608 32.8992 124.186 33.0641C123.774 33.2289 123.312 33.3113 122.799 33.3113ZM129.907 33.3113C129.422 33.3113 128.991 33.2243 128.616 33.0503C128.25 32.8671 127.961 32.6199 127.75 32.3085C127.54 31.9879 127.434 31.6216 127.434 31.2094C127.434 30.8156 127.517 30.463 127.682 30.1516C127.856 29.8311 128.121 29.5609 128.478 29.3411C128.845 29.1213 129.303 28.9656 129.852 28.874L132.6 28.4206V29.4922L130.141 29.9043C129.665 29.9868 129.317 30.1379 129.097 30.3577C128.886 30.5775 128.781 30.8477 128.781 31.1682C128.781 31.4705 128.9 31.7223 129.138 31.9238C129.385 32.1253 129.692 32.226 130.058 32.226C130.525 32.226 130.928 32.1299 131.267 31.9375C131.615 31.7361 131.885 31.4659 132.078 31.127C132.279 30.7881 132.38 30.4126 132.38 30.0005V28.1184C132.38 27.7154 132.229 27.3903 131.927 27.143C131.634 26.8866 131.244 26.7584 130.759 26.7584C130.338 26.7584 129.962 26.8683 129.632 27.0881C129.312 27.2987 129.074 27.5826 128.918 27.9398L127.805 27.3628C127.943 27.024 128.163 26.7217 128.465 26.4561C128.767 26.1814 129.12 25.9661 129.523 25.8104C129.926 25.6547 130.347 25.5769 130.786 25.5769C131.354 25.5769 131.853 25.6868 132.284 25.9066C132.714 26.1173 133.049 26.4149 133.287 26.7996C133.534 27.1751 133.658 27.6147 133.658 28.1184V33.1465H132.408V31.7452L132.641 31.8276C132.485 32.1207 132.275 32.3772 132.009 32.597C131.744 32.8168 131.432 32.9908 131.075 33.119C130.718 33.2472 130.329 33.3113 129.907 33.3113ZM135.639 33.1465V22.7469H136.916V29.8769L136.394 29.7532L140.323 25.7417H141.958L139.114 28.7229L142.15 33.1465H140.639L137.864 29.135L138.661 29.0938L136.504 31.3468L136.916 30.4126V33.1465H135.639ZM143.299 33.1465V25.7417H144.577V33.1465H143.299ZM143.299 24.5603V22.9117H144.577V24.5603H143.299ZM146.559 33.1465V25.7417H147.809V27.1842L147.603 27.0606C147.786 26.5935 148.08 26.2317 148.483 25.9753C148.895 25.7097 149.375 25.5769 149.925 25.5769C150.456 25.5769 150.928 25.696 151.34 25.9341C151.761 26.1722 152.091 26.5019 152.329 26.9232C152.576 27.3445 152.7 27.8208 152.7 28.352V33.1465H151.409V28.7641C151.409 28.352 151.335 28.0039 151.189 27.72C151.042 27.4361 150.832 27.2163 150.557 27.0606C150.291 26.8957 149.985 26.8133 149.636 26.8133C149.288 26.8133 148.977 26.8957 148.702 27.0606C148.437 27.2163 148.226 27.4407 148.07 27.7337C147.915 28.0177 147.837 28.3611 147.837 28.7641V33.1465H146.559ZM158.059 36.1688C157.537 36.1688 157.051 36.0864 156.603 35.9215C156.163 35.7567 155.783 35.5277 155.462 35.2346C155.151 34.9507 154.913 34.6164 154.748 34.2318L155.943 33.6823C156.071 34.0303 156.314 34.3234 156.671 34.5615C157.038 34.8088 157.496 34.9324 158.045 34.9324C158.466 34.9324 158.847 34.85 159.185 34.6851C159.533 34.5294 159.808 34.2913 160.01 33.9708C160.211 33.6594 160.312 33.2793 160.312 32.8305V31.1682L160.545 31.4155C160.289 31.9192 159.918 32.3039 159.433 32.5695C158.956 32.8351 158.43 32.9679 157.853 32.9679C157.157 32.9679 156.534 32.8076 155.984 32.4871C155.435 32.1574 155.005 31.7132 154.693 31.1545C154.382 30.5867 154.226 29.9593 154.226 29.2724C154.226 28.5763 154.382 27.949 154.693 27.3903C155.005 26.8316 155.43 26.392 155.971 26.0715C156.52 25.7417 157.143 25.5769 157.839 25.5769C158.416 25.5769 158.938 25.7097 159.405 25.9753C159.881 26.2317 160.262 26.5889 160.545 27.0469L160.353 27.3903V25.7417H161.603V32.8305C161.603 33.4716 161.452 34.044 161.15 34.5478C160.848 35.0515 160.426 35.4453 159.886 35.7292C159.355 36.0223 158.746 36.1688 158.059 36.1688ZM157.963 31.7315C158.402 31.7315 158.796 31.6216 159.144 31.4018C159.501 31.182 159.785 30.8889 159.996 30.5225C160.207 30.147 160.312 29.7303 160.312 29.2724C160.312 28.8236 160.207 28.4115 159.996 28.036C159.785 27.6605 159.501 27.3628 159.144 27.143C158.796 26.9232 158.402 26.8133 157.963 26.8133C157.514 26.8133 157.106 26.9232 156.74 27.143C156.374 27.3628 156.085 27.6605 155.875 28.036C155.673 28.4023 155.572 28.8145 155.572 29.2724C155.572 29.7303 155.673 30.147 155.875 30.5225C156.085 30.8889 156.369 31.182 156.726 31.4018C157.093 31.6216 157.505 31.7315 157.963 31.7315ZM169.324 33.3113C168.628 33.3113 168.001 33.1419 167.442 32.803C166.893 32.4642 166.458 32.0017 166.137 31.4155C165.817 30.8294 165.656 30.1745 165.656 29.451C165.656 28.7091 165.817 28.0497 166.137 27.4727C166.458 26.8866 166.893 26.4241 167.442 26.0852C168.001 25.7463 168.628 25.5769 169.324 25.5769C169.938 25.5769 170.483 25.7097 170.959 25.9753C171.435 26.2317 171.811 26.5798 172.086 27.0194L171.88 27.3353V22.7469H173.171V33.1465H171.921V31.5666L172.086 31.7864C171.829 32.2718 171.454 32.6473 170.959 32.9129C170.474 33.1785 169.929 33.3113 169.324 33.3113ZM169.434 32.0749C169.901 32.0749 170.318 31.9604 170.684 31.7315C171.051 31.5025 171.339 31.1911 171.55 30.7973C171.77 30.3943 171.88 29.9456 171.88 29.451C171.88 28.9473 171.77 28.4985 171.55 28.1047C171.339 27.7017 171.051 27.3857 170.684 27.1568C170.318 26.9278 169.901 26.8133 169.434 26.8133C168.976 26.8133 168.56 26.9324 168.184 27.1705C167.818 27.3995 167.529 27.7109 167.319 28.1047C167.108 28.4893 167.003 28.9381 167.003 29.451C167.003 29.9456 167.108 30.3943 167.319 30.7973C167.529 31.1911 167.818 31.5025 168.184 31.7315C168.551 31.9604 168.967 32.0749 169.434 32.0749ZM178.665 33.3113C177.951 33.3113 177.305 33.1465 176.728 32.8168C176.151 32.4779 175.693 32.0154 175.355 31.4292C175.016 30.8431 174.846 30.1791 174.846 29.4372C174.846 28.6954 175.011 28.036 175.341 27.459C175.68 26.882 176.138 26.4241 176.715 26.0852C177.292 25.7463 177.942 25.5769 178.665 25.5769C179.38 25.5769 180.025 25.7463 180.602 26.0852C181.179 26.4149 181.633 26.8683 181.963 27.4453C182.301 28.0222 182.471 28.6862 182.471 29.4372C182.471 30.1883 182.297 30.8568 181.949 31.443C181.601 32.02 181.138 32.4779 180.561 32.8168C179.993 33.1465 179.361 33.3113 178.665 33.3113ZM178.665 32.0749C179.123 32.0749 179.536 31.9604 179.902 31.7315C180.277 31.5025 180.57 31.1865 180.781 30.7836C181.001 30.3806 181.111 29.9318 181.111 29.4372C181.111 28.9335 181.001 28.4893 180.781 28.1047C180.57 27.7109 180.277 27.3995 179.902 27.1705C179.536 26.9324 179.123 26.8133 178.665 26.8133C178.198 26.8133 177.777 26.9324 177.402 27.1705C177.035 27.3995 176.742 27.7109 176.522 28.1047C176.303 28.4893 176.193 28.9335 176.193 29.4372C176.193 29.9318 176.303 30.3806 176.522 30.7836C176.742 31.1865 177.035 31.5025 177.402 31.7315C177.777 31.9604 178.198 32.0749 178.665 32.0749ZM185.707 33.1465L183.165 25.7417H184.58L186.6 31.9375L186.105 31.9238L188.083 25.7417H189.292L191.27 31.9238L190.776 31.9375L192.809 25.7417H194.21L191.669 33.1465H190.446L188.495 26.9644H188.88L186.929 33.1465H185.707ZM195.353 33.1465V25.7417H196.603V27.1842L196.397 27.0606C196.58 26.5935 196.873 26.2317 197.276 25.9753C197.688 25.7097 198.169 25.5769 198.719 25.5769C199.25 25.5769 199.722 25.696 200.134 25.9341C200.555 26.1722 200.885 26.5019 201.123 26.9232C201.37 27.3445 201.494 27.8208 201.494 28.352V33.1465H200.202V28.7641C200.202 28.352 200.129 28.0039 199.983 27.72C199.836 27.4361 199.625 27.2163 199.351 27.0606C199.085 26.8957 198.778 26.8133 198.43 26.8133C198.082 26.8133 197.771 26.8957 197.496 27.0606C197.23 27.2163 197.02 27.4407 196.864 27.7337C196.708 28.0177 196.631 28.3611 196.631 28.7641V33.1465H195.353ZM206.095 36.1688C205.93 36.1688 205.765 36.1551 205.6 36.1276C205.436 36.1093 205.28 36.0681 205.133 36.004V34.8637C205.234 34.8729 205.358 34.8912 205.504 34.9187C205.66 34.9462 205.811 34.9599 205.958 34.9599C206.388 34.9599 206.713 34.8637 206.933 34.6714C207.162 34.4791 207.377 34.1539 207.579 33.696L208.046 32.5832L208.018 33.696L204.859 25.7417H206.246L208.705 32.0612H208.293L210.738 25.7417H212.153L208.815 34.0257C208.659 34.4195 208.458 34.7813 208.211 35.111C207.973 35.4407 207.679 35.6972 207.331 35.8803C206.983 36.0727 206.571 36.1688 206.095 36.1688ZM216.673 33.3113C215.958 33.3113 215.313 33.1465 214.736 32.8168C214.159 32.4779 213.701 32.0154 213.362 31.4292C213.023 30.8431 212.854 30.1791 212.854 29.4372C212.854 28.6954 213.018 28.036 213.348 27.459C213.687 26.882 214.145 26.4241 214.722 26.0852C215.299 25.7463 215.949 25.5769 216.673 25.5769C217.387 25.5769 218.033 25.7463 218.61 26.0852C219.187 26.4149 219.64 26.8683 219.97 27.4453C220.309 28.0222 220.478 28.6862 220.478 29.4372C220.478 30.1883 220.304 30.8568 219.956 31.443C219.608 32.02 219.146 32.4779 218.569 32.8168C218.001 33.1465 217.369 33.3113 216.673 33.3113ZM216.673 32.0749C217.131 32.0749 217.543 31.9604 217.909 31.7315C218.285 31.5025 218.578 31.1865 218.788 30.7836C219.008 30.3806 219.118 29.9318 219.118 29.4372C219.118 28.9335 219.008 28.4893 218.788 28.1047C218.578 27.7109 218.285 27.3995 217.909 27.1705C217.543 26.9324 217.131 26.8133 216.673 26.8133C216.206 26.8133 215.784 26.9324 215.409 27.1705C215.043 27.3995 214.749 27.7109 214.53 28.1047C214.31 28.4893 214.2 28.9335 214.2 29.4372C214.2 29.9318 214.31 30.3806 214.53 30.7836C214.749 31.1865 215.043 31.5025 215.409 31.7315C215.784 31.9604 216.206 32.0749 216.673 32.0749ZM224.768 33.3113C224.237 33.3113 223.756 33.1877 223.326 32.9404C222.905 32.6931 222.575 32.3497 222.337 31.9101C222.108 31.4613 221.993 30.9484 221.993 30.3714V25.7417H223.271V30.234C223.271 30.6004 223.344 30.9209 223.491 31.1957C223.647 31.4705 223.857 31.6857 224.123 31.8414C224.398 31.9971 224.709 32.0749 225.057 32.0749C225.405 32.0749 225.712 31.9971 225.977 31.8414C226.252 31.6857 226.463 31.4613 226.609 31.1682C226.765 30.8751 226.843 30.5271 226.843 30.1241V25.7417H228.134V33.1465H226.884V31.704L227.09 31.8276C226.916 32.2947 226.619 32.6611 226.197 32.9267C225.785 33.1831 225.309 33.3113 224.768 33.3113ZM230.114 33.1465V25.7417H231.364V27.1018L231.226 26.9095C231.4 26.4882 231.666 26.1768 232.023 25.9753C232.38 25.7646 232.815 25.6593 233.328 25.6593H233.782V26.8683H233.136C232.614 26.8683 232.193 27.0331 231.872 27.3628C231.552 27.6834 231.391 28.1413 231.391 28.7366V33.1465H230.114ZM42.787 55.8941V45.7417H44.0371V47.3353L43.8723 47.0194C44.147 46.5798 44.5225 46.2317 44.9988 45.9753C45.475 45.7097 46.02 45.5769 46.6336 45.5769C47.3297 45.5769 47.9524 45.7463 48.502 46.0852C49.0606 46.4241 49.5002 46.8866 49.8208 47.4727C50.1413 48.0497 50.3016 48.7091 50.3016 49.451C50.3016 50.1745 50.1413 50.8294 49.8208 51.4155C49.5002 52.0017 49.0606 52.4642 48.502 52.803C47.9524 53.1419 47.3251 53.3113 46.6199 53.3113C46.0245 53.3113 45.4796 53.1785 44.985 52.9129C44.4996 52.6473 44.1241 52.2718 43.8585 51.7864L44.0646 51.5666V55.8941H42.787ZM46.5237 52.0749C46.9908 52.0749 47.4075 51.9604 47.7738 51.7315C48.1402 51.5025 48.4241 51.1911 48.6256 50.7973C48.8362 50.3943 48.9416 49.9456 48.9416 49.451C48.9416 48.9381 48.8362 48.4893 48.6256 48.1047C48.4241 47.7109 48.1402 47.3995 47.7738 47.1705C47.4075 46.9324 46.9908 46.8133 46.5237 46.8133C46.0566 46.8133 45.6353 46.9278 45.2598 47.1568C44.8935 47.3857 44.6004 47.7017 44.3806 48.1047C44.1699 48.4985 44.0646 48.9473 44.0646 49.451C44.0646 49.9456 44.1699 50.3943 44.3806 50.7973C44.6004 51.1911 44.8935 51.5025 45.2598 51.7315C45.6353 51.9604 46.0566 52.0749 46.5237 52.0749ZM54.1475 53.3113C53.6621 53.3113 53.2316 53.2243 52.8561 53.0503C52.4898 52.8671 52.2013 52.6199 51.9906 52.3085C51.78 51.9879 51.6747 51.6216 51.6747 51.2094C51.6747 50.8156 51.7571 50.463 51.9219 50.1516C52.096 49.8311 52.3616 49.5609 52.7187 49.3411C53.0851 49.1213 53.543 48.9656 54.0925 48.874L56.8401 48.4206V49.4922L54.381 49.9043C53.9048 49.9868 53.5568 50.1379 53.3369 50.3577C53.1263 50.5775 53.021 50.8477 53.021 51.1682C53.021 51.4705 53.14 51.7223 53.3782 51.9238C53.6254 52.1253 53.9323 52.226 54.2986 52.226C54.7657 52.226 55.1687 52.1299 55.5075 51.9375C55.8556 51.7361 56.1257 51.4659 56.3181 51.127C56.5196 50.7881 56.6203 50.4126 56.6203 50.0005V48.1184C56.6203 47.7154 56.4692 47.3903 56.167 47.143C55.8739 46.8866 55.4846 46.7584 54.9992 46.7584C54.5779 46.7584 54.2024 46.8683 53.8727 47.0881C53.5522 47.2987 53.3141 47.5826 53.1584 47.9398L52.0456 47.3628C52.183 47.024 52.4028 46.7217 52.705 46.4561C53.0072 46.1814 53.3598 45.9661 53.7628 45.8104C54.1658 45.6547 54.5871 45.5769 55.0267 45.5769C55.5945 45.5769 56.0937 45.6868 56.5241 45.9066C56.9546 46.1173 57.2889 46.4149 57.527 46.7996C57.7743 47.1751 57.8979 47.6147 57.8979 48.1184V53.1465H56.6478V51.7452L56.8813 51.8276C56.7256 52.1207 56.515 52.3772 56.2494 52.597C55.9838 52.8168 55.6724 52.9908 55.3152 53.119C54.958 53.2472 54.5688 53.3113 54.1475 53.3113ZM59.8789 53.1465V45.7417H61.129V47.1018L60.9916 46.9095C61.1657 46.4882 61.4313 46.1768 61.7884 45.9753C62.1456 45.7646 62.5807 45.6593 63.0935 45.6593H63.5469V46.8683H62.9012C62.3792 46.8683 61.9579 47.0331 61.6373 47.3628C61.3168 47.6834 61.1565 48.1413 61.1565 48.7366V53.1465H59.8789ZM66.8524 53.3113C66.367 53.3113 65.9365 53.2243 65.561 53.0503C65.1947 52.8671 64.9062 52.6199 64.6955 52.3085C64.4849 51.9879 64.3795 51.6216 64.3795 51.2094C64.3795 50.8156 64.462 50.463 64.6268 50.1516C64.8008 49.8311 65.0664 49.5609 65.4236 49.3411C65.79 49.1213 66.2479 48.9656 66.7974 48.874L69.545 48.4206V49.4922L67.0859 49.9043C66.6097 49.9868 66.2616 50.1379 66.0418 50.3577C65.8312 50.5775 65.7259 50.8477 65.7259 51.1682C65.7259 51.4705 65.8449 51.7223 66.083 51.9238C66.3303 52.1253 66.6371 52.226 67.0035 52.226C67.4706 52.226 67.8736 52.1299 68.2124 51.9375C68.5605 51.7361 68.8306 51.4659 69.023 51.127C69.2244 50.7881 69.3252 50.4126 69.3252 50.0005V48.1184C69.3252 47.7154 69.1741 47.3903 68.8718 47.143C68.5788 46.8866 68.1895 46.7584 67.7041 46.7584C67.2828 46.7584 66.9073 46.8683 66.5776 47.0881C66.2571 47.2987 66.0189 47.5826 65.8632 47.9398L64.7505 47.3628C64.8878 47.024 65.1077 46.7217 65.4099 46.4561C65.7121 46.1814 66.0647 45.9661 66.4677 45.8104C66.8707 45.6547 67.292 45.5769 67.7316 45.5769C68.2994 45.5769 68.7986 45.6868 69.229 45.9066C69.6595 46.1173 69.9938 46.4149 70.2319 46.7996C70.4792 47.1751 70.6028 47.6147 70.6028 48.1184V53.1465H69.3527V51.7452L69.5862 51.8276C69.4305 52.1207 69.2199 52.3772 68.9543 52.597C68.6887 52.8168 68.3773 52.9908 68.0201 53.119C67.6629 53.2472 67.2737 53.3113 66.8524 53.3113ZM76.1144 56.1688C75.5924 56.1688 75.107 56.0864 74.6582 55.9215C74.2186 55.7567 73.8385 55.5277 73.5179 55.2346C73.2065 54.9507 72.9684 54.6164 72.8036 54.2318L73.9988 53.6823C74.127 54.0303 74.3697 54.3234 74.7269 54.5615C75.0932 54.8088 75.5512 54.9324 76.1007 54.9324C76.522 54.9324 76.902 54.85 77.2409 54.6851C77.5889 54.5294 77.8637 54.2913 78.0652 53.9708C78.2667 53.6594 78.3674 53.2793 78.3674 52.8305V51.1682L78.601 51.4155C78.3445 51.9192 77.9736 52.3039 77.4882 52.5695C77.0119 52.8351 76.4853 52.9679 75.9083 52.9679C75.2123 52.9679 74.5895 52.8076 74.04 52.4871C73.4905 52.1574 73.06 51.7132 72.7486 51.1545C72.4372 50.5867 72.2815 49.9593 72.2815 49.2724C72.2815 48.5763 72.4372 47.949 72.7486 47.3903C73.06 46.8316 73.4859 46.392 74.0262 46.0715C74.5758 45.7417 75.1985 45.5769 75.8946 45.5769C76.4716 45.5769 76.9936 45.7097 77.4607 45.9753C77.937 46.2317 78.3171 46.5889 78.601 47.0469L78.4086 47.3903V45.7417H79.6588V52.8305C79.6588 53.4716 79.5077 54.044 79.2054 54.5478C78.9032 55.0515 78.4819 55.4453 77.9415 55.7292C77.4103 56.0223 76.8013 56.1688 76.1144 56.1688ZM76.0182 51.7315C76.4579 51.7315 76.8517 51.6216 77.1997 51.4018C77.5569 51.182 77.8408 50.8889 78.0515 50.5225C78.2621 50.147 78.3674 49.7303 78.3674 49.2724C78.3674 48.8236 78.2621 48.4115 78.0515 48.036C77.8408 47.6605 77.5569 47.3628 77.1997 47.143C76.8517 46.9232 76.4579 46.8133 76.0182 46.8133C75.5695 46.8133 75.1619 46.9232 74.7956 47.143C74.4292 47.3628 74.1407 47.6605 73.9301 48.036C73.7286 48.4023 73.6278 48.8145 73.6278 49.2724C73.6278 49.7303 73.7286 50.147 73.9301 50.5225C74.1407 50.8889 74.4246 51.182 74.7818 51.4018C75.1482 51.6216 75.5603 51.7315 76.0182 51.7315ZM81.6395 53.1465V45.7417H82.8897V47.1018L82.7523 46.9095C82.9263 46.4882 83.1919 46.1768 83.5491 45.9753C83.9063 45.7646 84.3413 45.6593 84.8542 45.6593H85.3075V46.8683H84.6619C84.1398 46.8683 83.7185 47.0331 83.398 47.3628C83.0774 47.6834 82.9171 48.1413 82.9171 48.7366V53.1465H81.6395ZM88.613 53.3113C88.1276 53.3113 87.6971 53.2243 87.3216 53.0503C86.9553 52.8671 86.6668 52.6199 86.4562 52.3085C86.2455 51.9879 86.1402 51.6216 86.1402 51.2094C86.1402 50.8156 86.2226 50.463 86.3875 50.1516C86.5615 49.8311 86.8271 49.5609 87.1843 49.3411C87.5506 49.1213 88.0085 48.9656 88.5581 48.874L91.3056 48.4206V49.4922L88.8465 49.9043C88.3703 49.9868 88.0223 50.1379 87.8025 50.3577C87.5918 50.5775 87.4865 50.8477 87.4865 51.1682C87.4865 51.4705 87.6056 51.7223 87.8437 51.9238C88.091 52.1253 88.3978 52.226 88.7641 52.226C89.2312 52.226 89.6342 52.1299 89.9731 51.9375C90.3211 51.7361 90.5913 51.4659 90.7836 51.127C90.9851 50.7881 91.0858 50.4126 91.0858 50.0005V48.1184C91.0858 47.7154 90.9347 47.3903 90.6325 47.143C90.3394 46.8866 89.9502 46.7584 89.4648 46.7584C89.0435 46.7584 88.668 46.8683 88.3382 47.0881C88.0177 47.2987 87.7796 47.5826 87.6239 47.9398L86.5111 47.3628C86.6485 47.024 86.8683 46.7217 87.1705 46.4561C87.4728 46.1814 87.8254 45.9661 88.2283 45.8104C88.6313 45.6547 89.0526 45.5769 89.4922 45.5769C90.0601 45.5769 90.5592 45.6868 90.9897 45.9066C91.4201 46.1173 91.7544 46.4149 91.9925 46.7996C92.2398 47.1751 92.3635 47.6147 92.3635 48.1184V53.1465H91.1133V51.7452L91.3468 51.8276C91.1912 52.1207 90.9805 52.3772 90.7149 52.597C90.4493 52.8168 90.1379 52.9908 89.7807 53.119C89.4235 53.2472 89.0343 53.3113 88.613 53.3113ZM94.3444 55.8941V45.7417H95.5946V47.3353L95.4297 47.0194C95.7045 46.5798 96.08 46.2317 96.5562 45.9753C97.0325 45.7097 97.5774 45.5769 98.191 45.5769C98.8871 45.5769 99.5099 45.7463 100.059 46.0852C100.618 46.4241 101.058 46.8866 101.378 47.4727C101.699 48.0497 101.859 48.7091 101.859 49.451C101.859 50.1745 101.699 50.8294 101.378 51.4155C101.058 52.0017 100.618 52.4642 100.059 52.803C99.5099 53.1419 98.8825 53.3113 98.1773 53.3113C97.582 53.3113 97.037 53.1785 96.5425 52.9129C96.0571 52.6473 95.6816 52.2718 95.416 51.7864L95.622 51.5666V55.8941H94.3444ZM98.0811 52.0749C98.5482 52.0749 98.9649 51.9604 99.3313 51.7315C99.6976 51.5025 99.9815 51.1911 100.183 50.7973C100.394 50.3943 100.499 49.9456 100.499 49.451C100.499 48.9381 100.394 48.4893 100.183 48.1047C99.9815 47.7109 99.6976 47.3995 99.3313 47.1705C98.9649 46.9324 98.5482 46.8133 98.0811 46.8133C97.614 46.8133 97.1927 46.9278 96.8172 47.1568C96.4509 47.3857 96.1578 47.7017 95.938 48.1047C95.7273 48.4985 95.622 48.9473 95.622 49.451C95.622 49.9456 95.7273 50.3943 95.938 50.7973C96.1578 51.1911 96.4509 51.5025 96.8172 51.7315C97.1927 51.9604 97.614 52.0749 98.0811 52.0749ZM103.534 53.1465V42.7469H104.812V47.1842L104.578 47.0606C104.762 46.5935 105.055 46.2317 105.458 45.9753C105.87 45.7097 106.351 45.5769 106.9 45.5769C107.431 45.5769 107.903 45.696 108.315 45.9341C108.736 46.1722 109.066 46.5019 109.304 46.9232C109.552 47.3445 109.675 47.8208 109.675 48.352V53.1465H108.384V48.7641C108.384 48.352 108.306 48.0039 108.15 47.72C108.004 47.4361 107.798 47.2163 107.532 47.0606C107.266 46.8957 106.96 46.8133 106.612 46.8133C106.273 46.8133 105.966 46.8957 105.691 47.0606C105.416 47.2163 105.201 47.4407 105.045 47.7337C104.89 48.0177 104.812 48.3611 104.812 48.7641V53.1465H103.534ZM114.155 53.3113C113.413 53.3113 112.767 53.1282 112.218 52.7618C111.668 52.3955 111.279 51.9009 111.05 51.2781L112.067 50.7836C112.277 51.2232 112.566 51.5712 112.932 51.8276C113.298 52.0841 113.706 52.2123 114.155 52.2123C114.558 52.2123 114.892 52.1161 115.158 51.9238C115.423 51.7315 115.556 51.4796 115.556 51.1682C115.556 50.9484 115.492 50.7744 115.364 50.6462C115.245 50.5088 115.098 50.4035 114.924 50.3302C114.75 50.2478 114.59 50.1883 114.443 50.1516L113.331 49.8356C112.662 49.6433 112.172 49.3686 111.861 49.0114C111.558 48.6542 111.407 48.2375 111.407 47.7612C111.407 47.3216 111.517 46.9415 111.737 46.621C111.966 46.2913 112.273 46.0348 112.657 45.8517C113.051 45.6685 113.491 45.5769 113.976 45.5769C114.626 45.5769 115.208 45.7417 115.721 46.0715C116.243 46.4012 116.614 46.8637 116.834 47.459L115.79 47.9398C115.625 47.5552 115.377 47.2529 115.048 47.0331C114.718 46.8041 114.347 46.6897 113.935 46.6897C113.559 46.6897 113.262 46.7858 113.042 46.9782C112.822 47.1613 112.712 47.3949 112.712 47.6788C112.712 47.8894 112.767 48.0635 112.877 48.2008C112.987 48.3291 113.12 48.4298 113.276 48.5031C113.431 48.5672 113.582 48.6221 113.729 48.6679L114.938 49.0251C115.542 49.1991 116.009 49.4693 116.339 49.8356C116.678 50.202 116.847 50.6416 116.847 51.1545C116.847 51.5666 116.733 51.9375 116.504 52.2673C116.275 52.597 115.959 52.8534 115.556 53.0366C115.153 53.2198 114.686 53.3113 114.155 53.3113ZM121.678 53.1465V46.9644H120.263V45.7417H121.678V45.2197C121.678 44.6885 121.792 44.2397 122.021 43.8734C122.259 43.507 122.571 43.2277 122.955 43.0354C123.349 42.843 123.784 42.7469 124.26 42.7469C124.361 42.7469 124.471 42.756 124.59 42.7744C124.718 42.7835 124.824 42.7973 124.906 42.8156V43.9558C124.833 43.9375 124.746 43.9283 124.645 43.9283C124.544 43.9192 124.466 43.9146 124.411 43.9146C123.99 43.9146 123.642 44.0154 123.367 44.2168C123.102 44.4183 122.969 44.7526 122.969 45.2197V45.7417H124.727V46.9644H122.969V53.1465H121.678ZM128.979 53.3113C128.448 53.3113 127.967 53.1877 127.536 52.9404C127.115 52.6931 126.785 52.3497 126.547 51.9101C126.318 51.4613 126.204 50.9484 126.204 50.3714V45.7417H127.481V50.234C127.481 50.6004 127.555 50.9209 127.701 51.1957C127.857 51.4705 128.067 51.6857 128.333 51.8414C128.608 51.9971 128.919 52.0749 129.267 52.0749C129.615 52.0749 129.922 51.9971 130.188 51.8414C130.462 51.6857 130.673 51.4613 130.82 51.1682C130.975 50.8751 131.053 50.5271 131.053 50.1241V45.7417H132.345V53.1465H131.094V51.704L131.3 51.8276C131.126 52.2947 130.829 52.6611 130.407 52.9267C129.995 53.1831 129.519 53.3113 128.979 53.3113ZM134.324 53.1465V45.7417H135.574V47.1018L135.437 46.9095C135.611 46.4882 135.876 46.1768 136.233 45.9753C136.591 45.7646 137.026 45.6593 137.539 45.6593H137.992V46.8683H137.346C136.824 46.8683 136.403 47.0331 136.082 47.3628C135.762 47.6834 135.601 48.1413 135.601 48.7366V53.1465H134.324ZM142.202 53.2289C141.479 53.2289 140.92 53.0228 140.526 52.6107C140.142 52.1986 139.949 51.617 139.949 50.866V46.9644H138.603V45.7417H138.878C139.208 45.7417 139.469 45.641 139.661 45.4395C139.853 45.238 139.949 44.9724 139.949 44.6427V44.0382H141.227V45.7417H142.889V46.9644H141.227V50.8248C141.227 51.0721 141.264 51.2873 141.337 51.4705C141.419 51.6536 141.552 51.8002 141.735 51.9101C141.919 52.0108 142.161 52.0612 142.463 52.0612C142.528 52.0612 142.605 52.0566 142.697 52.0475C142.798 52.0383 142.889 52.0291 142.972 52.02V53.1465C142.853 53.174 142.72 53.1923 142.573 53.2014C142.427 53.2198 142.303 53.2289 142.202 53.2289ZM144.641 53.1465V42.7469H145.918V47.1842L145.685 47.0606C145.868 46.5935 146.161 46.2317 146.564 45.9753C146.976 45.7097 147.457 45.5769 148.007 45.5769C148.538 45.5769 149.009 45.696 149.422 45.9341C149.843 46.1722 150.173 46.5019 150.411 46.9232C150.658 47.3445 150.782 47.8208 150.782 48.352V53.1465H149.49V48.7641C149.49 48.352 149.412 48.0039 149.257 47.72C149.11 47.4361 148.904 47.2163 148.638 47.0606C148.373 46.8957 148.066 46.8133 147.718 46.8133C147.379 46.8133 147.072 46.8957 146.798 47.0606C146.523 47.2163 146.308 47.4407 146.152 47.7337C145.996 48.0177 145.918 48.3611 145.918 48.7641V53.1465H144.641ZM156.017 53.3113C155.302 53.3113 154.666 53.1419 154.107 52.803C153.549 52.4642 153.109 52.0017 152.788 51.4155C152.468 50.8202 152.308 50.1562 152.308 49.4235C152.308 48.6817 152.463 48.0222 152.775 47.4453C153.095 46.8683 153.526 46.4149 154.066 46.0852C154.616 45.7463 155.229 45.5769 155.907 45.5769C156.456 45.5769 156.942 45.6776 157.363 45.8791C157.794 46.0715 158.155 46.3371 158.448 46.6759C158.751 47.0056 158.98 47.3857 159.135 47.8162C159.3 48.2375 159.383 48.6771 159.383 49.135C159.383 49.2358 159.373 49.3502 159.355 49.4785C159.346 49.5975 159.332 49.712 159.314 49.8219H153.242V48.7229H158.572L157.968 49.2174C158.05 48.7412 158.004 48.3153 157.83 47.9398C157.656 47.5643 157.4 47.2667 157.061 47.0469C156.722 46.827 156.337 46.7171 155.907 46.7171C155.476 46.7171 155.083 46.827 154.725 47.0469C154.368 47.2667 154.089 47.5826 153.887 47.9948C153.695 48.3977 153.617 48.8786 153.654 49.4372C153.617 49.9776 153.7 50.4539 153.901 50.866C154.112 51.269 154.405 51.5849 154.78 51.8139C155.165 52.0337 155.582 52.1436 156.031 52.1436C156.525 52.1436 156.942 52.0291 157.281 51.8002C157.62 51.5712 157.894 51.2781 158.105 50.9209L159.177 51.4705C159.03 51.8093 158.801 52.1207 158.49 52.4046C158.187 52.6794 157.826 52.8992 157.404 53.0641C156.992 53.2289 156.53 53.3113 156.017 53.3113ZM161.048 53.1465V45.7417H162.299V47.1018L162.161 46.9095C162.335 46.4882 162.601 46.1768 162.958 45.9753C163.315 45.7646 163.75 45.6593 164.263 45.6593H164.716V46.8683H164.071C163.549 46.8683 163.127 47.0331 162.807 47.3628C162.486 47.6834 162.326 48.1413 162.326 48.7366V53.1465H161.048ZM171.235 53.2289C170.511 53.2289 169.952 53.0228 169.559 52.6107C169.174 52.1986 168.982 51.617 168.982 50.866V46.9644H167.635V45.7417H167.91C168.24 45.7417 168.501 45.641 168.693 45.4395C168.885 45.238 168.982 44.9724 168.982 44.6427V44.0382H170.259V45.7417H171.921V46.9644H170.259V50.8248C170.259 51.0721 170.296 51.2873 170.369 51.4705C170.451 51.6536 170.584 51.8002 170.767 51.9101C170.951 52.0108 171.193 52.0612 171.496 52.0612C171.56 52.0612 171.638 52.0566 171.729 52.0475C171.83 52.0383 171.921 52.0291 172.004 52.02V53.1465C171.885 53.174 171.752 53.1923 171.605 53.2014C171.459 53.2198 171.335 53.2289 171.235 53.2289ZM176.988 53.3113C176.274 53.3113 175.628 53.1465 175.051 52.8168C174.474 52.4779 174.016 52.0154 173.678 51.4292C173.339 50.8431 173.169 50.1791 173.169 49.4372C173.169 48.6954 173.334 48.036 173.664 47.459C174.003 46.882 174.461 46.4241 175.038 46.0852C175.615 45.7463 176.265 45.5769 176.988 45.5769C177.703 45.5769 178.349 45.7463 178.926 46.0852C179.502 46.4149 179.956 46.8683 180.286 47.4453C180.624 48.0222 180.794 48.6862 180.794 49.4372C180.794 50.1883 180.62 50.8568 180.272 51.443C179.924 52.02 179.461 52.4779 178.884 52.8168C178.316 53.1465 177.685 53.3113 176.988 53.3113ZM176.988 52.0749C177.446 52.0749 177.859 51.9604 178.225 51.7315C178.6 51.5025 178.893 51.1865 179.104 50.7836C179.324 50.3806 179.434 49.9318 179.434 49.4372C179.434 48.9335 179.324 48.4893 179.104 48.1047C178.893 47.7109 178.6 47.3995 178.225 47.1705C177.859 46.9324 177.446 46.8133 176.988 46.8133C176.521 46.8133 176.1 46.9324 175.725 47.1705C175.358 47.3995 175.065 47.7109 174.845 48.1047C174.626 48.4893 174.516 48.9335 174.516 49.4372C174.516 49.9318 174.626 50.3806 174.845 50.7836C175.065 51.1865 175.358 51.5025 175.725 51.7315C176.1 51.9604 176.521 52.0749 176.988 52.0749ZM188.269 53.3113C187.546 53.3113 186.9 53.1419 186.332 52.803C185.774 52.4642 185.334 52.0017 185.013 51.4155C184.693 50.8294 184.533 50.1699 184.533 49.4372C184.533 48.6954 184.693 48.036 185.013 47.459C185.334 46.882 185.774 46.4241 186.332 46.0852C186.9 45.7463 187.546 45.5769 188.269 45.5769C188.755 45.5769 189.208 45.6639 189.629 45.8379C190.051 46.0119 190.422 46.2455 190.742 46.5385C191.063 46.8316 191.296 47.1751 191.443 47.5689L190.303 48.1184C190.129 47.7337 189.863 47.4224 189.506 47.1842C189.149 46.9369 188.736 46.8133 188.269 46.8133C187.821 46.8133 187.413 46.9278 187.047 47.1568C186.689 47.3857 186.406 47.6971 186.195 48.0909C185.984 48.4848 185.879 48.9381 185.879 49.451C185.879 49.9456 185.984 50.3943 186.195 50.7973C186.406 51.1911 186.689 51.5025 187.047 51.7315C187.413 51.9604 187.821 52.0749 188.269 52.0749C188.736 52.0749 189.149 51.9559 189.506 51.7177C189.863 51.4705 190.129 51.1453 190.303 50.7423L191.443 51.3193C191.296 51.704 191.063 52.0475 190.742 52.3497C190.422 52.6428 190.051 52.8763 189.629 53.0503C189.208 53.2243 188.755 53.3113 188.269 53.3113ZM193.112 53.1465V45.7417H194.363V47.1018L194.225 46.9095C194.399 46.4882 194.665 46.1768 195.022 45.9753C195.379 45.7646 195.814 45.6593 196.327 45.6593H196.781V46.8683H196.135C195.613 46.8683 195.191 47.0331 194.871 47.3628C194.55 47.6834 194.39 48.1413 194.39 48.7366V53.1465H193.112ZM201.322 53.3113C200.608 53.3113 199.971 53.1419 199.413 52.803C198.854 52.4642 198.415 52.0017 198.094 51.4155C197.773 50.8202 197.613 50.1562 197.613 49.4235C197.613 48.6817 197.769 48.0222 198.08 47.4453C198.401 46.8683 198.831 46.4149 199.372 46.0852C199.921 45.7463 200.535 45.5769 201.212 45.5769C201.762 45.5769 202.247 45.6776 202.669 45.8791C203.099 46.0715 203.461 46.3371 203.754 46.6759C204.056 47.0056 204.285 47.3857 204.441 47.8162C204.606 48.2375 204.688 48.6771 204.688 49.135C204.688 49.2358 204.679 49.3502 204.661 49.4785C204.652 49.5975 204.638 49.712 204.619 49.8219H198.547V48.7229H203.878L203.273 49.2174C203.356 48.7412 203.31 48.3153 203.136 47.9398C202.962 47.5643 202.705 47.2667 202.366 47.0469C202.028 46.827 201.643 46.7171 201.212 46.7171C200.782 46.7171 200.388 46.827 200.031 47.0469C199.674 47.2667 199.394 47.5826 199.193 47.9948C199.001 48.3977 198.923 48.8786 198.959 49.4372C198.923 49.9776 199.005 50.4539 199.207 50.866C199.417 51.269 199.71 51.5849 200.086 51.8139C200.471 52.0337 200.887 52.1436 201.336 52.1436C201.831 52.1436 202.247 52.0291 202.586 51.8002C202.925 51.5712 203.2 51.2781 203.411 50.9209L204.482 51.4705C204.336 51.8093 204.107 52.1207 203.795 52.4046C203.493 52.6794 203.131 52.8992 202.71 53.0641C202.298 53.2289 201.835 53.3113 201.322 53.3113ZM208.431 53.3113C207.945 53.3113 207.515 53.2243 207.139 53.0503C206.773 52.8671 206.484 52.6199 206.274 52.3085C206.063 51.9879 205.958 51.6216 205.958 51.2094C205.958 50.8156 206.04 50.463 206.205 50.1516C206.379 49.8311 206.645 49.5609 207.002 49.3411C207.368 49.1213 207.826 48.9656 208.376 48.874L211.123 48.4206V49.4922L208.664 49.9043C208.188 49.9868 207.84 50.1379 207.62 50.3577C207.409 50.5775 207.304 50.8477 207.304 51.1682C207.304 51.4705 207.423 51.7223 207.661 51.9238C207.909 52.1253 208.215 52.226 208.582 52.226C209.049 52.226 209.452 52.1299 209.791 51.9375C210.139 51.7361 210.409 51.4659 210.601 51.127C210.803 50.7881 210.903 50.4126 210.903 50.0005V48.1184C210.903 47.7154 210.752 47.3903 210.45 47.143C210.157 46.8866 209.768 46.7584 209.282 46.7584C208.861 46.7584 208.486 46.8683 208.156 47.0881C207.835 47.2987 207.597 47.5826 207.442 47.9398L206.329 47.3628C206.466 47.024 206.686 46.7217 206.988 46.4561C207.29 46.1814 207.643 45.9661 208.046 45.8104C208.449 45.6547 208.87 45.5769 209.31 45.5769C209.878 45.5769 210.377 45.6868 210.807 45.9066C211.238 46.1173 211.572 46.4149 211.81 46.7996C212.057 47.1751 212.181 47.6147 212.181 48.1184V53.1465H210.931V51.7452L211.165 51.8276C211.009 52.1207 210.798 52.3772 210.533 52.597C210.267 52.8168 209.956 52.9908 209.598 53.119C209.241 53.2472 208.852 53.3113 208.431 53.3113ZM217.037 53.2289C216.313 53.2289 215.754 53.0228 215.36 52.6107C214.976 52.1986 214.783 51.617 214.783 50.866V46.9644H213.437V45.7417H213.712C214.042 45.7417 214.303 45.641 214.495 45.4395C214.687 45.238 214.783 44.9724 214.783 44.6427V44.0382H216.061V45.7417H217.723V46.9644H216.061V50.8248C216.061 51.0721 216.098 51.2873 216.171 51.4705C216.253 51.6536 216.386 51.8002 216.569 51.9101C216.753 52.0108 216.995 52.0612 217.298 52.0612C217.362 52.0612 217.439 52.0566 217.531 52.0475C217.632 52.0383 217.723 52.0291 217.806 52.02V53.1465C217.687 53.174 217.554 53.1923 217.407 53.2014C217.261 53.2198 217.137 53.2289 217.037 53.2289ZM222.681 53.3113C221.966 53.3113 221.33 53.1419 220.771 52.803C220.212 52.4642 219.773 52.0017 219.452 51.4155C219.132 50.8202 218.971 50.1562 218.971 49.4235C218.971 48.6817 219.127 48.0222 219.438 47.4453C219.759 46.8683 220.189 46.4149 220.73 46.0852C221.279 45.7463 221.893 45.5769 222.571 45.5769C223.12 45.5769 223.606 45.6776 224.027 45.8791C224.457 46.0715 224.819 46.3371 225.112 46.6759C225.414 47.0056 225.643 47.3857 225.799 47.8162C225.964 48.2375 226.046 48.6771 226.046 49.135C226.046 49.2358 226.037 49.3502 226.019 49.4785C226.01 49.5975 225.996 49.712 225.978 49.8219H219.905V48.7229H225.236L224.631 49.2174C224.714 48.7412 224.668 48.3153 224.494 47.9398C224.32 47.5643 224.063 47.2667 223.725 47.0469C223.386 46.827 223.001 46.7171 222.571 46.7171C222.14 46.7171 221.746 46.827 221.389 47.0469C221.032 47.2667 220.753 47.5826 220.551 47.9948C220.359 48.3977 220.281 48.8786 220.318 49.4372C220.281 49.9776 220.363 50.4539 220.565 50.866C220.776 51.269 221.069 51.5849 221.444 51.8139C221.829 52.0337 222.246 52.1436 222.694 52.1436C223.189 52.1436 223.606 52.0291 223.944 51.8002C224.283 51.5712 224.558 51.2781 224.769 50.9209L225.84 51.4705C225.694 51.8093 225.465 52.1207 225.153 52.4046C224.851 52.6794 224.489 52.8992 224.068 53.0641C223.656 53.2289 223.193 53.3113 222.681 53.3113ZM232.257 53.3113C231.772 53.3113 231.342 53.2243 230.966 53.0503C230.6 52.8671 230.311 52.6199 230.101 52.3085C229.89 51.9879 229.785 51.6216 229.785 51.2094C229.785 50.8156 229.867 50.463 230.032 50.1516C230.206 49.8311 230.471 49.5609 230.829 49.3411C231.195 49.1213 231.653 48.9656 232.202 48.874L234.95 48.4206V49.4922L232.491 49.9043C232.015 49.9868 231.667 50.1379 231.447 50.3577C231.236 50.5775 231.131 50.8477 231.131 51.1682C231.131 51.4705 231.25 51.7223 231.488 51.9238C231.735 52.1253 232.042 52.226 232.408 52.226C232.876 52.226 233.279 52.1299 233.617 51.9375C233.965 51.7361 234.236 51.4659 234.428 51.127C234.629 50.7881 234.73 50.4126 234.73 50.0005V48.1184C234.73 47.7154 234.579 47.3903 234.277 47.143C233.984 46.8866 233.595 46.7584 233.109 46.7584C232.688 46.7584 232.312 46.8683 231.983 47.0881C231.662 47.2987 231.424 47.5826 231.268 47.9398L230.155 47.3628C230.293 47.024 230.513 46.7217 230.815 46.4561C231.117 46.1814 231.47 45.9661 231.873 45.8104C232.276 45.6547 232.697 45.5769 233.137 45.5769C233.704 45.5769 234.204 45.6868 234.634 45.9066C235.064 46.1173 235.399 46.4149 235.637 46.7996C235.884 47.1751 236.008 47.6147 236.008 48.1184V53.1465H234.758V51.7452L234.991 51.8276C234.836 52.1207 234.625 52.3772 234.359 52.597C234.094 52.8168 233.782 52.9908 233.425 53.119C233.068 53.2472 232.679 53.3113 232.257 53.3113ZM42.787 73.1465V65.7417H44.0371V67.2529L43.8585 67.0194C44.0417 66.5523 44.3348 66.1951 44.7378 65.9478C45.1407 65.7005 45.5941 65.5769 46.0978 65.5769C46.6748 65.5769 47.1923 65.7372 47.6502 66.0577C48.1173 66.3783 48.4378 66.7996 48.6119 67.3216L48.2547 67.3353C48.447 66.7584 48.7721 66.3233 49.2301 66.0302C49.688 65.728 50.1963 65.5769 50.755 65.5769C51.2679 65.5769 51.7304 65.696 52.1425 65.9341C52.5638 66.1722 52.8981 66.5019 53.1454 66.9232C53.3927 67.3445 53.5163 67.8208 53.5163 68.352V73.1465H52.2249V68.7641C52.2249 68.352 52.1517 68.0039 52.0051 67.72C51.8586 67.4361 51.6571 67.2163 51.4007 67.0606C51.1534 66.8957 50.8603 66.8133 50.5214 66.8133C50.1917 66.8133 49.8941 66.8957 49.6285 67.0606C49.372 67.2163 49.166 67.4407 49.0103 67.7337C48.8637 68.0177 48.7904 68.3611 48.7904 68.7641V73.1465H47.4991V68.7641C47.4991 68.352 47.4258 68.0039 47.2793 67.72C47.1327 67.4361 46.9313 67.2163 46.6748 67.0606C46.4275 66.8957 46.1345 66.8133 45.7956 66.8133C45.4659 66.8133 45.1682 66.8957 44.9026 67.0606C44.6462 67.2163 44.4401 67.4407 44.2844 67.7337C44.1379 68.0177 44.0646 68.3611 44.0646 68.7641V73.1465H42.787ZM58.8478 73.3113C58.1334 73.3113 57.4877 73.1465 56.9107 72.8168C56.3337 72.4779 55.8758 72.0154 55.5369 71.4292C55.1981 70.8431 55.0286 70.1791 55.0286 69.4372C55.0286 68.6954 55.1935 68.036 55.5232 67.459C55.8621 66.882 56.32 66.4241 56.897 66.0852C57.474 65.7463 58.1243 65.5769 58.8478 65.5769C59.5622 65.5769 60.2078 65.7463 60.7848 66.0852C61.3618 66.4149 61.8152 66.8683 62.1449 67.4453C62.4837 68.0222 62.6532 68.6862 62.6532 69.4372C62.6532 70.1883 62.4792 70.8568 62.1311 71.443C61.7831 72.02 61.3206 72.4779 60.7436 72.8168C60.1758 73.1465 59.5438 73.3113 58.8478 73.3113ZM58.8478 72.0749C59.3057 72.0749 59.7178 71.9604 60.0842 71.7315C60.4597 71.5025 60.7528 71.1865 60.9634 70.7836C61.1832 70.3806 61.2931 69.9318 61.2931 69.4372C61.2931 68.9335 61.1832 68.4893 60.9634 68.1047C60.7528 67.7109 60.4597 67.3995 60.0842 67.1705C59.7178 66.9324 59.3057 66.8133 58.8478 66.8133C58.3807 66.8133 57.9594 66.9324 57.5839 67.1705C57.2175 67.3995 56.9245 67.7109 56.7047 68.1047C56.4849 68.4893 56.375 68.9335 56.375 69.4372C56.375 69.9318 56.4849 70.3806 56.7047 70.7836C56.9245 71.1865 57.2175 71.5025 57.5839 71.7315C57.9594 71.9604 58.3807 72.0749 58.8478 72.0749ZM64.3195 73.1465V65.7417H65.5697V67.1018L65.4323 66.9095C65.6063 66.4882 65.8719 66.1768 66.2291 65.9753C66.5863 65.7646 67.0213 65.6593 67.5342 65.6593H67.9876V66.8683H67.3419C66.8198 66.8683 66.3986 67.0331 66.078 67.3628C65.7575 67.6834 65.5972 68.1413 65.5972 68.7366V73.1465H64.3195ZM72.5295 73.3113C71.8151 73.3113 71.1786 73.1419 70.6199 72.803C70.0612 72.4642 69.6216 72.0017 69.301 71.4155C68.9805 70.8202 68.8202 70.1562 68.8202 69.4235C68.8202 68.6817 68.9759 68.0222 69.2873 67.4453C69.6079 66.8683 70.0383 66.4149 70.5787 66.0852C71.1282 65.7463 71.7418 65.5769 72.4196 65.5769C72.9691 65.5769 73.4545 65.6776 73.8758 65.8791C74.3062 66.0715 74.668 66.3371 74.9611 66.6759C75.2633 67.0056 75.4923 67.3857 75.648 67.8162C75.8128 68.2375 75.8952 68.6771 75.8952 69.135C75.8952 69.2358 75.8861 69.3502 75.8678 69.4785C75.8586 69.5975 75.8449 69.712 75.8266 69.8219H69.7544V68.7229H75.0847L74.4802 69.2174C74.5627 68.7412 74.5169 68.3153 74.3429 67.9398C74.1688 67.5643 73.9124 67.2667 73.5735 67.0469C73.2347 66.827 72.85 66.7171 72.4196 66.7171C71.9891 66.7171 71.5953 66.827 71.2381 67.0469C70.8809 67.2667 70.6016 67.5826 70.4001 67.9948C70.2077 68.3977 70.1299 68.8786 70.1665 69.4372C70.1299 69.9776 70.2123 70.4539 70.4138 70.866C70.6245 71.269 70.9175 71.5849 71.293 71.8139C71.6777 72.0337 72.0944 72.1436 72.5432 72.1436C73.0378 72.1436 73.4545 72.0291 73.7933 71.8002C74.1322 71.5712 74.407 71.2781 74.6176 70.9209L75.6892 71.4705C75.5426 71.8093 75.3137 72.1207 75.0023 72.4046C74.7 72.6794 74.3383 72.8992 73.917 73.0641C73.5048 73.2289 73.0423 73.3113 72.5295 73.3113ZM81.9964 73.1465L79.0977 65.7417H80.5264L82.8481 72.0062H82.3536L84.689 65.7417H86.1178L83.2053 73.1465H81.9964ZM87.2608 73.1465V65.7417H88.5384V73.1465H87.2608ZM87.2608 64.5603V62.9117H88.5384V64.5603H87.2608ZM93.1723 73.3113C92.4304 73.3113 91.7847 73.1282 91.2352 72.7618C90.6857 72.3955 90.2965 71.9009 90.0675 71.2781L91.0841 70.7836C91.2948 71.2232 91.5833 71.5712 91.9496 71.8276C92.3159 72.0841 92.7235 72.2123 93.1723 72.2123C93.5753 72.2123 93.9095 72.1161 94.1751 71.9238C94.4407 71.7315 94.5735 71.4796 94.5735 71.1682C94.5735 70.9484 94.5094 70.7744 94.3812 70.6462C94.2622 70.5088 94.1156 70.4035 93.9416 70.3302C93.7676 70.2478 93.6073 70.1883 93.4608 70.1516L92.348 69.8356C91.6794 69.6433 91.1894 69.3686 90.878 69.0114C90.5758 68.6542 90.4247 68.2375 90.4247 67.7612C90.4247 67.3216 90.5346 66.9415 90.7544 66.621C90.9834 66.2913 91.2902 66.0348 91.6748 65.8517C92.0687 65.6685 92.5083 65.5769 92.9937 65.5769C93.6439 65.5769 94.2255 65.7417 94.7384 66.0715C95.2604 66.4012 95.6314 66.8637 95.8512 67.459L94.8071 67.9398C94.6422 67.5552 94.395 67.2529 94.0652 67.0331C93.7355 66.8041 93.3646 66.6897 92.9525 66.6897C92.577 66.6897 92.2793 66.7858 92.0595 66.9782C91.8397 67.1613 91.7298 67.3949 91.7298 67.6788C91.7298 67.8894 91.7847 68.0635 91.8947 68.2008C92.0046 68.3291 92.1374 68.4298 92.2931 68.5031C92.4487 68.5672 92.5999 68.6221 92.7464 68.6679L93.9553 69.0251C94.5598 69.1991 95.0269 69.4693 95.3566 69.8356C95.6955 70.202 95.8649 70.6416 95.8649 71.1545C95.8649 71.5666 95.7504 71.9375 95.5215 72.2673C95.2925 72.597 94.9765 72.8534 94.5735 73.0366C94.1706 73.2198 93.7035 73.3113 93.1723 73.3113ZM100.161 73.3113C99.6301 73.3113 99.1493 73.1877 98.7188 72.9404C98.2976 72.6931 97.9678 72.3497 97.7297 71.9101C97.5008 71.4613 97.3863 70.9484 97.3863 70.3714V65.7417H98.6639V70.234C98.6639 70.6004 98.7372 70.9209 98.8837 71.1957C99.0394 71.4705 99.25 71.6857 99.5156 71.8414C99.7904 71.9971 100.102 72.0749 100.45 72.0749C100.798 72.0749 101.105 71.9971 101.37 71.8414C101.645 71.6857 101.856 71.4613 102.002 71.1682C102.158 70.8751 102.236 70.5271 102.236 70.1241V65.7417H103.527V73.1465H102.277V71.704L102.483 71.8276C102.309 72.2947 102.011 72.6611 101.59 72.9267C101.178 73.1831 100.702 73.3113 100.161 73.3113ZM107.677 73.3113C107.192 73.3113 106.761 73.2243 106.386 73.0503C106.019 72.8671 105.731 72.6199 105.52 72.3085C105.31 71.9879 105.204 71.6216 105.204 71.2094C105.204 70.8156 105.287 70.463 105.452 70.1516C105.626 69.8311 105.891 69.5609 106.248 69.3411C106.615 69.1213 107.073 68.9656 107.622 68.874L110.37 68.4206V69.4922L107.911 69.9043C107.434 69.9868 107.086 70.1379 106.867 70.3577C106.656 70.5775 106.551 70.8477 106.551 71.1682C106.551 71.4705 106.67 71.7223 106.908 71.9238C107.155 72.1253 107.462 72.226 107.828 72.226C108.295 72.226 108.698 72.1299 109.037 71.9375C109.385 71.7361 109.655 71.4659 109.848 71.127C110.049 70.7881 110.15 70.4126 110.15 70.0005V68.1184C110.15 67.7154 109.999 67.3903 109.697 67.143C109.403 66.8866 109.014 66.7584 108.529 66.7584C108.107 66.7584 107.732 66.8683 107.402 67.0881C107.082 67.2987 106.844 67.5826 106.688 67.9398L105.575 67.3628C105.713 67.024 105.932 66.7217 106.235 66.4561C106.537 66.1814 106.889 65.9661 107.292 65.8104C107.695 65.6547 108.117 65.5769 108.556 65.5769C109.124 65.5769 109.623 65.6868 110.054 65.9066C110.484 66.1173 110.818 66.4149 111.057 66.7996C111.304 67.1751 111.427 67.6147 111.427 68.1184V73.1465H110.177V71.7452L110.411 71.8276C110.255 72.1207 110.045 72.3772 109.779 72.597C109.513 72.8168 109.202 72.9908 108.845 73.119C108.488 73.2472 108.098 73.3113 107.677 73.3113ZM113.408 73.1465V62.7469H114.686V73.1465H113.408ZM116.669 73.1465V62.7469H117.946V73.1465H116.669ZM120.327 76.1688C120.162 76.1688 119.997 76.1551 119.832 76.1276C119.668 76.1093 119.512 76.0681 119.365 76.004V74.8637C119.466 74.8729 119.59 74.8912 119.736 74.9187C119.892 74.9462 120.043 74.9599 120.19 74.9599C120.62 74.9599 120.945 74.8637 121.165 74.6714C121.394 74.4791 121.609 74.1539 121.811 73.696L122.278 72.5832L122.25 73.696L119.091 65.7417H120.478L122.937 72.0612H122.525L124.97 65.7417H126.385L123.047 74.0257C122.891 74.4195 122.69 74.7813 122.443 75.111C122.204 75.4407 121.911 75.6972 121.563 75.8803C121.215 76.0727 120.803 76.1688 120.327 76.1688ZM132.067 73.3113C131.582 73.3113 131.151 73.2243 130.776 73.0503C130.409 72.8671 130.121 72.6199 129.91 72.3085C129.7 71.9879 129.594 71.6216 129.594 71.2094C129.594 70.8156 129.677 70.463 129.842 70.1516C130.016 69.8311 130.281 69.5609 130.638 69.3411C131.005 69.1213 131.463 68.9656 132.012 68.874L134.76 68.4206V69.4922L132.301 69.9043C131.825 69.9868 131.476 70.1379 131.257 70.3577C131.046 70.5775 130.941 70.8477 130.941 71.1682C130.941 71.4705 131.06 71.7223 131.298 71.9238C131.545 72.1253 131.852 72.226 132.218 72.226C132.685 72.226 133.088 72.1299 133.427 71.9375C133.775 71.7361 134.045 71.4659 134.238 71.127C134.439 70.7881 134.54 70.4126 134.54 70.0005V68.1184C134.54 67.7154 134.389 67.3903 134.087 67.143C133.794 66.8866 133.404 66.7584 132.919 66.7584C132.498 66.7584 132.122 66.8683 131.792 67.0881C131.472 67.2987 131.234 67.5826 131.078 67.9398L129.965 67.3628C130.103 67.024 130.322 66.7217 130.625 66.4561C130.927 66.1814 131.28 65.9661 131.683 65.8104C132.086 65.6547 132.507 65.5769 132.946 65.5769C133.514 65.5769 134.013 65.6868 134.444 65.9066C134.874 66.1173 135.209 66.4149 135.447 66.7996C135.694 67.1751 135.818 67.6147 135.818 68.1184V73.1465H134.568V71.7452L134.801 71.8276C134.645 72.1207 134.435 72.3772 134.169 72.597C133.904 72.8168 133.592 72.9908 133.235 73.119C132.878 73.2472 132.489 73.3113 132.067 73.3113ZM137.799 75.8941V65.7417H139.049V67.3353L138.884 67.0194C139.159 66.5798 139.534 66.2317 140.01 65.9753C140.487 65.7097 141.032 65.5769 141.645 65.5769C142.341 65.5769 142.964 65.7463 143.514 66.0852C144.072 66.4241 144.512 66.8866 144.832 67.4727C145.153 68.0497 145.313 68.7091 145.313 69.451C145.313 70.1745 145.153 70.8294 144.832 71.4155C144.512 72.0017 144.072 72.4642 143.514 72.803C142.964 73.1419 142.337 73.3113 141.631 73.3113C141.036 73.3113 140.491 73.1785 139.997 72.9129C139.511 72.6473 139.136 72.2718 138.87 71.7864L139.076 71.5666V75.8941H137.799ZM141.535 72.0749C142.002 72.0749 142.419 71.9604 142.785 71.7315C143.152 71.5025 143.436 71.1911 143.637 70.7973C143.848 70.3943 143.953 69.9456 143.953 69.451C143.953 68.9381 143.848 68.4893 143.637 68.1047C143.436 67.7109 143.152 67.3995 142.785 67.1705C142.419 66.9324 142.002 66.8133 141.535 66.8133C141.068 66.8133 140.647 66.9278 140.271 67.1568C139.905 67.3857 139.612 67.7017 139.392 68.1047C139.182 68.4985 139.076 68.9473 139.076 69.451C139.076 69.9456 139.182 70.3943 139.392 70.7973C139.612 71.1911 139.905 71.5025 140.271 71.7315C140.647 71.9604 141.068 72.0749 141.535 72.0749ZM146.989 75.8941V65.7417H148.239V67.3353L148.074 67.0194C148.349 66.5798 148.724 66.2317 149.2 65.9753C149.677 65.7097 150.222 65.5769 150.835 65.5769C151.531 65.5769 152.154 65.7463 152.703 66.0852C153.262 66.4241 153.702 66.8866 154.022 67.4727C154.343 68.0497 154.503 68.7091 154.503 69.451C154.503 70.1745 154.343 70.8294 154.022 71.4155C153.702 72.0017 153.262 72.4642 152.703 72.803C152.154 73.1419 151.527 73.3113 150.821 73.3113C150.226 73.3113 149.681 73.1785 149.187 72.9129C148.701 72.6473 148.326 72.2718 148.06 71.7864L148.266 71.5666V75.8941H146.989ZM150.725 72.0749C151.192 72.0749 151.609 71.9604 151.975 71.7315C152.342 71.5025 152.626 71.1911 152.827 70.7973C153.038 70.3943 153.143 69.9456 153.143 69.451C153.143 68.9381 153.038 68.4893 152.827 68.1047C152.626 67.7109 152.342 67.3995 151.975 67.1705C151.609 66.9324 151.192 66.8133 150.725 66.8133C150.258 66.8133 149.837 66.9278 149.461 67.1568C149.095 67.3857 148.802 67.7017 148.582 68.1047C148.371 68.4985 148.266 68.9473 148.266 69.451C148.266 69.9456 148.371 70.3943 148.582 70.7973C148.802 71.1911 149.095 71.5025 149.461 71.7315C149.837 71.9604 150.258 72.0749 150.725 72.0749ZM159.585 73.3113C158.871 73.3113 158.235 73.1419 157.676 72.803C157.117 72.4642 156.678 72.0017 156.357 71.4155C156.036 70.8202 155.876 70.1562 155.876 69.4235C155.876 68.6817 156.032 68.0222 156.343 67.4453C156.664 66.8683 157.094 66.4149 157.635 66.0852C158.184 65.7463 158.798 65.5769 159.476 65.5769C160.025 65.5769 160.51 65.6776 160.932 65.8791C161.362 66.0715 161.724 66.3371 162.017 66.6759C162.319 67.0056 162.548 67.3857 162.704 67.8162C162.869 68.2375 162.951 68.6771 162.951 69.135C162.951 69.2358 162.942 69.3502 162.924 69.4785C162.915 69.5975 162.901 69.712 162.883 69.8219H156.81V68.7229H162.141L161.536 69.2174C161.619 68.7412 161.573 68.3153 161.399 67.9398C161.225 67.5643 160.968 67.2667 160.63 67.0469C160.291 66.827 159.906 66.7171 159.476 66.7171C159.045 66.7171 158.651 66.827 158.294 67.0469C157.937 67.2667 157.658 67.5826 157.456 67.9948C157.264 68.3977 157.186 68.8786 157.223 69.4372C157.186 69.9776 157.268 70.4539 157.47 70.866C157.68 71.269 157.974 71.5849 158.349 71.8139C158.734 72.0337 159.15 72.1436 159.599 72.1436C160.094 72.1436 160.51 72.0291 160.849 71.8002C161.188 71.5712 161.463 71.2781 161.674 70.9209L162.745 71.4705C162.599 71.8093 162.37 72.1207 162.058 72.4046C161.756 72.6794 161.394 72.8992 160.973 73.0641C160.561 73.2289 160.098 73.3113 159.585 73.3113ZM166.694 73.3113C166.208 73.3113 165.778 73.2243 165.402 73.0503C165.036 72.8671 164.748 72.6199 164.537 72.3085C164.326 71.9879 164.221 71.6216 164.221 71.2094C164.221 70.8156 164.303 70.463 164.468 70.1516C164.642 69.8311 164.908 69.5609 165.265 69.3411C165.631 69.1213 166.089 68.9656 166.639 68.874L169.386 68.4206V69.4922L166.927 69.9043C166.451 69.9868 166.103 70.1379 165.883 70.3577C165.673 70.5775 165.567 70.8477 165.567 71.1682C165.567 71.4705 165.686 71.7223 165.924 71.9238C166.172 72.1253 166.478 72.226 166.845 72.226C167.312 72.226 167.715 72.1299 168.054 71.9375C168.402 71.7361 168.672 71.4659 168.864 71.127C169.066 70.7881 169.167 70.4126 169.167 70.0005V68.1184C169.167 67.7154 169.015 67.3903 168.713 67.143C168.42 66.8866 168.031 66.7584 167.545 66.7584C167.124 66.7584 166.749 66.8683 166.419 67.0881C166.098 67.2987 165.86 67.5826 165.705 67.9398L164.592 67.3628C164.729 67.024 164.949 66.7217 165.251 66.4561C165.553 66.1814 165.906 65.9661 166.309 65.8104C166.712 65.6547 167.133 65.5769 167.573 65.5769C168.141 65.5769 168.64 65.6868 169.07 65.9066C169.501 66.1173 169.835 66.4149 170.073 66.7996C170.321 67.1751 170.444 67.6147 170.444 68.1184V73.1465H169.194V71.7452L169.428 71.8276C169.272 72.1207 169.061 72.3772 168.796 72.597C168.53 72.8168 168.219 72.9908 167.861 73.119C167.504 73.2472 167.115 73.3113 166.694 73.3113ZM172.425 73.1465V62.7469H173.703V73.1465H172.425ZM175.685 73.1465V65.7417H176.963V73.1465H175.685ZM175.685 64.5603V62.9117H176.963V64.5603H175.685ZM178.945 73.1465V65.7417H180.195V67.1842L179.989 67.0606C180.173 66.5935 180.466 66.2317 180.869 65.9753C181.281 65.7097 181.762 65.5769 182.311 65.5769C182.842 65.5769 183.314 65.696 183.726 65.9341C184.147 66.1722 184.477 66.5019 184.715 66.9232C184.962 67.3445 185.086 67.8208 185.086 68.352V73.1465H183.795V68.7641C183.795 68.352 183.721 68.0039 183.575 67.72C183.428 67.4361 183.218 67.2163 182.943 67.0606C182.677 66.8957 182.371 66.8133 182.023 66.8133C181.675 66.8133 181.363 66.8957 181.088 67.0606C180.823 67.2163 180.612 67.4407 180.456 67.7337C180.301 68.0177 180.223 68.3611 180.223 68.7641V73.1465H178.945ZM190.445 76.1688C189.923 76.1688 189.438 76.0864 188.989 75.9215C188.549 75.7567 188.169 75.5277 187.848 75.2346C187.537 74.9507 187.299 74.6164 187.134 74.2318L188.329 73.6823C188.458 74.0303 188.7 74.3234 189.057 74.5615C189.424 74.8088 189.882 74.9324 190.431 74.9324C190.853 74.9324 191.233 74.85 191.571 74.6851C191.919 74.5294 192.194 74.2913 192.396 73.9708C192.597 73.6594 192.698 73.2793 192.698 72.8305V71.1682L192.932 71.4155C192.675 71.9192 192.304 72.3039 191.819 72.5695C191.343 72.8351 190.816 72.9679 190.239 72.9679C189.543 72.9679 188.92 72.8076 188.371 72.4871C187.821 72.1574 187.391 71.7132 187.079 71.1545C186.768 70.5867 186.612 69.9593 186.612 69.2724C186.612 68.5763 186.768 67.949 187.079 67.3903C187.391 66.8316 187.816 66.392 188.357 66.0715C188.906 65.7417 189.529 65.5769 190.225 65.5769C190.802 65.5769 191.324 65.7097 191.791 65.9753C192.268 66.2317 192.648 66.5889 192.932 67.0469L192.739 67.3903V65.7417H193.989V72.8305C193.989 73.4716 193.838 74.044 193.536 74.5478C193.234 75.0515 192.812 75.4453 192.272 75.7292C191.741 76.0223 191.132 76.1688 190.445 76.1688ZM190.349 71.7315C190.788 71.7315 191.182 71.6216 191.53 71.4018C191.887 71.182 192.171 70.8889 192.382 70.5225C192.593 70.147 192.698 69.7303 192.698 69.2724C192.698 68.8236 192.593 68.4115 192.382 68.036C192.171 67.6605 191.887 67.3628 191.53 67.143C191.182 66.9232 190.788 66.8133 190.349 66.8133C189.9 66.8133 189.492 66.9232 189.126 67.143C188.76 67.3628 188.471 67.6605 188.261 68.036C188.059 68.4023 187.958 68.8145 187.958 69.2724C187.958 69.7303 188.059 70.147 188.261 70.5225C188.471 70.8889 188.755 71.182 189.112 71.4018C189.479 71.6216 189.891 71.7315 190.349 71.7315ZM200.515 73.3113C200.03 73.3113 199.599 73.2243 199.224 73.0503C198.858 72.8671 198.569 72.6199 198.358 72.3085C198.148 71.9879 198.042 71.6216 198.042 71.2094C198.042 70.8156 198.125 70.463 198.29 70.1516C198.464 69.8311 198.729 69.5609 199.087 69.3411C199.453 69.1213 199.911 68.9656 200.46 68.874L203.208 68.4206V69.4922L200.749 69.9043C200.273 69.9868 199.925 70.1379 199.705 70.3577C199.494 70.5775 199.389 70.8477 199.389 71.1682C199.389 71.4705 199.508 71.7223 199.746 71.9238C199.993 72.1253 200.3 72.226 200.666 72.226C201.133 72.226 201.536 72.1299 201.875 71.9375C202.223 71.7361 202.494 71.4659 202.686 71.127C202.887 70.7881 202.988 70.4126 202.988 70.0005V68.1184C202.988 67.7154 202.837 67.3903 202.535 67.143C202.242 66.8866 201.852 66.7584 201.367 66.7584C200.946 66.7584 200.57 66.8683 200.241 67.0881C199.92 67.2987 199.682 67.5826 199.526 67.9398L198.413 67.3628C198.551 67.024 198.771 66.7217 199.073 66.4561C199.375 66.1814 199.728 65.9661 200.131 65.8104C200.534 65.6547 200.955 65.5769 201.395 65.5769C201.962 65.5769 202.461 65.6868 202.892 65.9066C203.322 66.1173 203.657 66.4149 203.895 66.7996C204.142 67.1751 204.266 67.6147 204.266 68.1184V73.1465H203.016V71.7452L203.249 71.8276C203.093 72.1207 202.883 72.3772 202.617 72.597C202.352 72.8168 202.04 72.9908 201.683 73.119C201.326 73.2472 200.937 73.3113 200.515 73.3113ZM206.247 73.1465V65.7417H207.497V67.1842L207.291 67.0606C207.474 66.5935 207.767 66.2317 208.17 65.9753C208.582 65.7097 209.063 65.5769 209.612 65.5769C210.144 65.5769 210.615 65.696 211.027 65.9341C211.449 66.1722 211.778 66.5019 212.017 66.9232C212.264 67.3445 212.388 67.8208 212.388 68.352V73.1465H211.096V68.7641C211.096 68.352 211.023 68.0039 210.876 67.72C210.73 67.4361 210.519 67.2163 210.244 67.0606C209.979 66.8957 209.672 66.8133 209.324 66.8133C208.976 66.8133 208.665 66.8957 208.39 67.0606C208.124 67.2163 207.914 67.4407 207.758 67.7337C207.602 68.0177 207.524 68.3611 207.524 68.7641V73.1465H206.247ZM217.582 73.3113C216.885 73.3113 216.258 73.1419 215.699 72.803C215.15 72.4642 214.715 72.0017 214.394 71.4155C214.074 70.8294 213.914 70.1745 213.914 69.451C213.914 68.7091 214.074 68.0497 214.394 67.4727C214.715 66.8866 215.15 66.4241 215.699 66.0852C216.258 65.7463 216.885 65.5769 217.582 65.5769C218.195 65.5769 218.74 65.7097 219.216 65.9753C219.693 66.2317 220.068 66.5798 220.343 67.0194L220.137 67.3353V62.7469H221.428V73.1465H220.178V71.5666L220.343 71.7864C220.086 72.2718 219.711 72.6473 219.216 72.9129C218.731 73.1785 218.186 73.3113 217.582 73.3113ZM217.691 72.0749C218.159 72.0749 218.575 71.9604 218.942 71.7315C219.308 71.5025 219.596 71.1911 219.807 70.7973C220.027 70.3943 220.137 69.9456 220.137 69.451C220.137 68.9473 220.027 68.4985 219.807 68.1047C219.596 67.7017 219.308 67.3857 218.942 67.1568C218.575 66.9278 218.159 66.8133 217.691 66.8133C217.233 66.8133 216.817 66.9324 216.441 67.1705C216.075 67.3995 215.786 67.7109 215.576 68.1047C215.365 68.4893 215.26 68.9381 215.26 69.451C215.26 69.9456 215.365 70.3943 215.576 70.7973C215.786 71.1911 216.075 71.5025 216.441 71.7315C216.808 71.9604 217.224 72.0749 217.691 72.0749ZM46.194 93.3113C45.4796 93.3113 44.8431 93.1419 44.2844 92.803C43.7257 92.4642 43.2861 92.0017 42.9656 91.4155C42.645 90.8202 42.4847 90.1562 42.4847 89.4235C42.4847 88.6817 42.6404 88.0222 42.9518 87.4453C43.2724 86.8683 43.7028 86.4149 44.2432 86.0852C44.7927 85.7463 45.4063 85.5769 46.0841 85.5769C46.6336 85.5769 47.119 85.6776 47.5403 85.8791C47.9708 86.0715 48.3325 86.3371 48.6256 86.6759C48.9278 87.0056 49.1568 87.3857 49.3125 87.8162C49.4773 88.2375 49.5598 88.6771 49.5598 89.135C49.5598 89.2358 49.5506 89.3502 49.5323 89.4785C49.5231 89.5975 49.5094 89.712 49.4911 89.8219H43.4189V88.7229H48.7492L48.1448 89.2174C48.2272 88.7412 48.1814 88.3153 48.0074 87.9398C47.8334 87.5643 47.5769 87.2667 47.2381 87.0469C46.8992 86.827 46.5145 86.7171 46.0841 86.7171C45.6536 86.7171 45.2598 86.827 44.9026 87.0469C44.5454 87.2667 44.2661 87.5826 44.0646 87.9948C43.8723 88.3977 43.7944 88.8786 43.8311 89.4372C43.7944 89.9776 43.8769 90.4539 44.0783 90.866C44.289 91.269 44.5821 91.5849 44.9576 91.8139C45.3422 92.0337 45.7589 92.1436 46.2077 92.1436C46.7023 92.1436 47.119 92.0291 47.4579 91.8002C47.7967 91.5712 48.0715 91.2781 48.2821 90.9209L49.3537 91.4705C49.2072 91.8093 48.9782 92.1207 48.6668 92.4046C48.3646 92.6794 48.0028 92.8992 47.5815 93.0641C47.1694 93.2289 46.7069 93.3113 46.194 93.3113ZM53.3023 93.3113C52.8169 93.3113 52.3864 93.2243 52.0109 93.0503C51.6446 92.8671 51.3561 92.6199 51.1454 92.3085C50.9348 91.9879 50.8295 91.6216 50.8295 91.2094C50.8295 90.8156 50.9119 90.463 51.0767 90.1516C51.2508 89.8311 51.5164 89.5609 51.8735 89.3411C52.2399 89.1213 52.6978 88.9656 53.2473 88.874L55.9949 88.4206V89.4922L53.5358 89.9043C53.0596 89.9868 52.7115 90.1379 52.4917 90.3577C52.2811 90.5775 52.1758 90.8477 52.1758 91.1682C52.1758 91.4705 52.2948 91.7223 52.533 91.9238C52.7802 92.1253 53.0871 92.226 53.4534 92.226C53.9205 92.226 54.3235 92.1299 54.6623 91.9375C55.0104 91.7361 55.2805 91.4659 55.4729 91.127C55.6744 90.7881 55.7751 90.4126 55.7751 90.0005V88.1184C55.7751 87.7154 55.624 87.3903 55.3218 87.143C55.0287 86.8866 54.6394 86.7584 54.154 86.7584C53.7327 86.7584 53.3572 86.8683 53.0275 87.0881C52.707 87.2987 52.4688 87.5826 52.3132 87.9398L51.2004 87.3628C51.3378 87.024 51.5576 86.7217 51.8598 86.4561C52.162 86.1814 52.5146 85.9661 52.9176 85.8104C53.3206 85.6547 53.7419 85.5769 54.1815 85.5769C54.7493 85.5769 55.2485 85.6868 55.6789 85.9066C56.1094 86.1173 56.4437 86.4149 56.6818 86.7996C56.9291 87.1751 57.0527 87.6147 57.0527 88.1184V93.1465H55.8026V91.7452L56.0361 91.8276C55.8804 92.1207 55.6698 92.3772 55.4042 92.597C55.1386 92.8168 54.8272 92.9908 54.47 93.119C54.1128 93.2472 53.7236 93.3113 53.3023 93.3113ZM61.6851 93.3113C60.9432 93.3113 60.2976 93.1282 59.748 92.7618C59.1985 92.3955 58.8093 91.9009 58.5803 91.2781L59.5969 90.7836C59.8076 91.2232 60.0961 91.5712 60.4624 91.8276C60.8288 92.0841 61.2363 92.2123 61.6851 92.2123C62.0881 92.2123 62.4224 92.1161 62.688 91.9238C62.9536 91.7315 63.0864 91.4796 63.0864 91.1682C63.0864 90.9484 63.0222 90.7744 62.894 90.6462C62.775 90.5088 62.6284 90.4035 62.4544 90.3302C62.2804 90.2478 62.1201 90.1883 61.9736 90.1516L60.8608 89.8356C60.1922 89.6433 59.7023 89.3686 59.3909 89.0114C59.0886 88.6542 58.9375 88.2375 58.9375 87.7612C58.9375 87.3216 59.0474 86.9415 59.2672 86.621C59.4962 86.2913 59.803 86.0348 60.1877 85.8517C60.5815 85.6685 61.0211 85.5769 61.5065 85.5769C62.1568 85.5769 62.7383 85.7417 63.2512 86.0715C63.7733 86.4012 64.1442 86.8637 64.364 87.459L63.3199 87.9398C63.155 87.5552 62.9078 87.2529 62.5781 87.0331C62.2483 86.8041 61.8774 86.6897 61.4653 86.6897C61.0898 86.6897 60.7921 86.7858 60.5723 86.9782C60.3525 87.1613 60.2426 87.3949 60.2426 87.6788C60.2426 87.8894 60.2976 88.0635 60.4075 88.2008C60.5174 88.3291 60.6502 88.4298 60.8059 88.5031C60.9616 88.5672 61.1127 88.6221 61.2592 88.6679L62.4682 89.0251C63.0726 89.1991 63.5397 89.4693 63.8694 89.8356C64.2083 90.202 64.3777 90.6416 64.3777 91.1545C64.3777 91.5666 64.2632 91.9375 64.0343 92.2673C63.8053 92.597 63.4893 92.8534 63.0864 93.0366C62.6834 93.2198 62.2163 93.3113 61.6851 93.3113ZM66.0502 93.1465V85.7417H67.3278V93.1465H66.0502ZM66.0502 84.5603V82.9117H67.3278V84.5603H66.0502ZM69.3103 93.1465V82.7469H70.5879V93.1465H69.3103ZM72.9687 96.1688C72.8039 96.1688 72.639 96.1551 72.4742 96.1276C72.3093 96.1093 72.1536 96.0681 72.0071 96.004V94.8637C72.1078 94.8729 72.2315 94.8912 72.378 94.9187C72.5337 94.9462 72.6848 94.9599 72.8314 94.9599C73.2618 94.9599 73.587 94.8637 73.8068 94.6714C74.0357 94.4791 74.251 94.1539 74.4524 93.696L74.9195 92.5832L74.8921 93.696L71.7323 85.7417H73.1199L75.5789 92.0612H75.1668L77.6122 85.7417H79.0272L75.6889 94.0257C75.5332 94.4195 75.3317 94.7813 75.0844 95.111C74.8463 95.4407 74.5532 95.6972 74.2052 95.8803C73.8571 96.0727 73.445 96.1688 72.9687 96.1688ZM85.9042 93.3113C85.2081 93.3113 84.5808 93.1419 84.0221 92.803C83.4726 92.4642 83.0375 92.0017 82.717 91.4155C82.3964 90.8294 82.2361 90.1745 82.2361 89.451C82.2361 88.7091 82.3964 88.0497 82.717 87.4727C83.0375 86.8866 83.4726 86.4241 84.0221 86.0852C84.5808 85.7463 85.2081 85.5769 85.9042 85.5769C86.5178 85.5769 87.0627 85.7097 87.539 85.9753C88.0152 86.2317 88.3907 86.5798 88.6655 87.0194L88.4594 87.3353V82.7469H89.7508V93.1465H88.5006V91.5666L88.6655 91.7864C88.409 92.2718 88.0335 92.6473 87.539 92.9129C87.0536 93.1785 86.5086 93.3113 85.9042 93.3113ZM86.0141 92.0749C86.4812 92.0749 86.8979 91.9604 87.2642 91.7315C87.6306 91.5025 87.9191 91.1911 88.1297 90.7973C88.3495 90.3943 88.4594 89.9456 88.4594 89.451C88.4594 88.9473 88.3495 88.4985 88.1297 88.1047C87.9191 87.7017 87.6306 87.3857 87.2642 87.1568C86.8979 86.9278 86.4812 86.8133 86.0141 86.8133C85.5561 86.8133 85.1394 86.9324 84.7639 87.1705C84.3976 87.3995 84.1091 87.7109 83.8984 88.1047C83.6878 88.4893 83.5825 88.9381 83.5825 89.451C83.5825 89.9456 83.6878 90.3943 83.8984 90.7973C84.1091 91.1911 84.3976 91.5025 84.7639 91.7315C85.1303 91.9604 85.547 92.0749 86.0141 92.0749ZM91.7283 93.1465V85.7417H93.0059V93.1465H91.7283ZM91.7283 84.5603V82.9117H93.0059V84.5603H91.7283ZM98.519 96.1688C97.997 96.1688 97.5116 96.0864 97.0628 95.9215C96.6232 95.7567 96.2431 95.5277 95.9225 95.2346C95.6111 94.9507 95.373 94.6164 95.2082 94.2318L96.4034 93.6823C96.5316 94.0303 96.7743 94.3234 97.1315 94.5615C97.4978 94.8088 97.9558 94.9324 98.5053 94.9324C98.9266 94.9324 99.3066 94.85 99.6455 94.6851C99.9935 94.5294 100.268 94.2913 100.47 93.9708C100.671 93.6594 100.772 93.2793 100.772 92.8305V91.1682L101.006 91.4155C100.749 91.9192 100.378 92.3039 99.8928 92.5695C99.4166 92.8351 98.8899 92.9679 98.3129 92.9679C97.6169 92.9679 96.9941 92.8076 96.4446 92.4871C95.8951 92.1574 95.4646 91.7132 95.1532 91.1545C94.8418 90.5867 94.6861 89.9593 94.6861 89.2724C94.6861 88.5763 94.8418 87.949 95.1532 87.3903C95.4646 86.8316 95.8905 86.392 96.4308 86.0715C96.9804 85.7417 97.6031 85.5769 98.2992 85.5769C98.8762 85.5769 99.3982 85.7097 99.8653 85.9753C100.342 86.2317 100.722 86.5889 101.006 87.0469L100.813 87.3903V85.7417H102.063V92.8305C102.063 93.4716 101.912 94.044 101.61 94.5478C101.308 95.0515 100.887 95.4453 100.346 95.7292C99.8149 96.0223 99.2059 96.1688 98.519 96.1688ZM98.4228 91.7315C98.8625 91.7315 99.2563 91.6216 99.6043 91.4018C99.9615 91.182 100.245 90.8889 100.456 90.5225C100.667 90.147 100.772 89.7303 100.772 89.2724C100.772 88.8236 100.667 88.4115 100.456 88.036C100.245 87.6605 99.9615 87.3628 99.6043 87.143C99.2563 86.9232 98.8625 86.8133 98.4228 86.8133C97.9741 86.8133 97.5665 86.9232 97.2002 87.143C96.8338 87.3628 96.5453 87.6605 96.3347 88.036C96.1332 88.4023 96.0324 88.8145 96.0324 89.2724C96.0324 89.7303 96.1332 90.147 96.3347 90.5225C96.5453 90.8889 96.8292 91.182 97.1864 91.4018C97.5528 91.6216 97.9649 91.7315 98.4228 91.7315ZM107.451 93.3113C106.737 93.3113 106.1 93.1419 105.542 92.803C104.983 92.4642 104.543 92.0017 104.223 91.4155C103.902 90.8202 103.742 90.1562 103.742 89.4235C103.742 88.6817 103.898 88.0222 104.209 87.4453C104.53 86.8683 104.96 86.4149 105.5 86.0852C106.05 85.7463 106.663 85.5769 107.341 85.5769C107.891 85.5769 108.376 85.6776 108.797 85.8791C109.228 86.0715 109.59 86.3371 109.883 86.6759C110.185 87.0056 110.414 87.3857 110.57 87.8162C110.734 88.2375 110.817 88.6771 110.817 89.135C110.817 89.2358 110.808 89.3502 110.789 89.4785C110.78 89.5975 110.767 89.712 110.748 89.8219H104.676V88.7229H110.006L109.402 89.2174C109.484 88.7412 109.439 88.3153 109.265 87.9398C109.091 87.5643 108.834 87.2667 108.495 87.0469C108.156 86.827 107.772 86.7171 107.341 86.7171C106.911 86.7171 106.517 86.827 106.16 87.0469C105.803 87.2667 105.523 87.5826 105.322 87.9948C105.129 88.3977 105.052 88.8786 105.088 89.4372C105.052 89.9776 105.134 90.4539 105.335 90.866C105.546 91.269 105.839 91.5849 106.215 91.8139C106.599 92.0337 107.016 92.1436 107.465 92.1436C107.959 92.1436 108.376 92.0291 108.715 91.8002C109.054 91.5712 109.329 91.2781 109.539 90.9209L110.611 91.4705C110.464 91.8093 110.235 92.1207 109.924 92.4046C109.622 92.6794 109.26 92.8992 108.839 93.0641C108.427 93.2289 107.964 93.3113 107.451 93.3113ZM115.134 93.3113C114.392 93.3113 113.747 93.1282 113.197 92.7618C112.648 92.3955 112.258 91.9009 112.029 91.2781L113.046 90.7836C113.257 91.2232 113.545 91.5712 113.911 91.8276C114.278 92.0841 114.685 92.2123 115.134 92.2123C115.537 92.2123 115.871 92.1161 116.137 91.9238C116.403 91.7315 116.535 91.4796 116.535 91.1682C116.535 90.9484 116.471 90.7744 116.343 90.6462C116.224 90.5088 116.077 90.4035 115.903 90.3302C115.729 90.2478 115.569 90.1883 115.423 90.1516L114.31 89.8356C113.641 89.6433 113.151 89.3686 112.84 89.0114C112.538 88.6542 112.387 88.2375 112.387 87.7612C112.387 87.3216 112.496 86.9415 112.716 86.621C112.945 86.2913 113.252 86.0348 113.637 85.8517C114.031 85.6685 114.47 85.5769 114.956 85.5769C115.606 85.5769 116.187 85.7417 116.7 86.0715C117.222 86.4012 117.593 86.8637 117.813 87.459L116.769 87.9398C116.604 87.5552 116.357 87.2529 116.027 87.0331C115.697 86.8041 115.326 86.6897 114.914 86.6897C114.539 86.6897 114.241 86.7858 114.021 86.9782C113.802 87.1613 113.692 87.3949 113.692 87.6788C113.692 87.8894 113.747 88.0635 113.857 88.2008C113.966 88.3291 114.099 88.4298 114.255 88.5031C114.411 88.5672 114.562 88.6221 114.708 88.6679L115.917 89.0251C116.522 89.1991 116.989 89.4693 117.318 89.8356C117.657 90.202 117.827 90.6416 117.827 91.1545C117.827 91.5666 117.712 91.9375 117.483 92.2673C117.254 92.597 116.938 92.8534 116.535 93.0366C116.132 93.2198 115.665 93.3113 115.134 93.3113ZM122.508 93.2289C121.784 93.2289 121.226 93.0228 120.832 92.6107C120.447 92.1986 120.255 91.617 120.255 90.866V86.9644H118.909V85.7417H119.183C119.513 85.7417 119.774 85.641 119.966 85.4395C120.159 85.238 120.255 84.9724 120.255 84.6427V84.0382H121.532V85.7417H123.195V86.9644H121.532V90.8248C121.532 91.0721 121.569 91.2873 121.642 91.4705C121.725 91.6536 121.858 91.8002 122.041 91.9101C122.224 92.0108 122.467 92.0612 122.769 92.0612C122.833 92.0612 122.911 92.0566 123.002 92.0475C123.103 92.0383 123.195 92.0291 123.277 92.02V93.1465C123.158 93.174 123.025 93.1923 122.879 93.2014C122.732 93.2198 122.609 93.2289 122.508 93.2289ZM124.946 93.1465V85.7417H126.224V93.1465H124.946ZM124.946 84.5603V82.9117H126.224V84.5603H124.946ZM132.039 93.3113C131.444 93.3113 130.899 93.1785 130.404 92.9129C129.919 92.6473 129.543 92.2718 129.278 91.7864L129.456 91.5666V93.1465H128.206V82.7469H129.484V87.3353L129.292 87.0194C129.566 86.5798 129.942 86.2317 130.418 85.9753C130.894 85.7097 131.439 85.5769 132.053 85.5769C132.749 85.5769 133.372 85.7463 133.921 86.0852C134.48 86.4241 134.919 86.8866 135.24 87.4727C135.561 88.0497 135.721 88.7091 135.721 89.451C135.721 90.1745 135.561 90.8294 135.24 91.4155C134.919 92.0017 134.48 92.4642 133.921 92.803C133.372 93.1419 132.744 93.3113 132.039 93.3113ZM131.943 92.0749C132.41 92.0749 132.827 91.9604 133.193 91.7315C133.559 91.5025 133.843 91.1911 134.045 90.7973C134.255 90.3943 134.361 89.9456 134.361 89.451C134.361 88.9381 134.255 88.4893 134.045 88.1047C133.843 87.7109 133.559 87.3995 133.193 87.1705C132.827 86.9324 132.41 86.8133 131.943 86.8133C131.476 86.8133 131.055 86.9278 130.679 87.1568C130.313 87.3857 130.02 87.7017 129.8 88.1047C129.589 88.4985 129.484 88.9473 129.484 89.451C129.484 89.9456 129.589 90.3943 129.8 90.7973C130.02 91.1911 130.313 91.5025 130.679 91.7315C131.055 91.9604 131.476 92.0749 131.943 92.0749ZM137.396 93.1465V82.7469H138.674V93.1465H137.396ZM144.063 93.3113C143.349 93.3113 142.712 93.1419 142.154 92.803C141.595 92.4642 141.155 92.0017 140.835 91.4155C140.514 90.8202 140.354 90.1562 140.354 89.4235C140.354 88.6817 140.51 88.0222 140.821 87.4453C141.142 86.8683 141.572 86.4149 142.112 86.0852C142.662 85.7463 143.276 85.5769 143.953 85.5769C144.503 85.5769 144.988 85.6776 145.41 85.8791C145.84 86.0715 146.202 86.3371 146.495 86.6759C146.797 87.0056 147.026 87.3857 147.182 87.8162C147.347 88.2375 147.429 88.6771 147.429 89.135C147.429 89.2358 147.42 89.3502 147.402 89.4785C147.392 89.5975 147.379 89.712 147.36 89.8219H141.288V88.7229H146.618L146.014 89.2174C146.096 88.7412 146.051 88.3153 145.877 87.9398C145.703 87.5643 145.446 87.2667 145.107 87.0469C144.768 86.827 144.384 86.7171 143.953 86.7171C143.523 86.7171 143.129 86.827 142.772 87.0469C142.415 87.2667 142.135 87.5826 141.934 87.9948C141.741 88.3977 141.664 88.8786 141.7 89.4372C141.664 89.9776 141.746 90.4539 141.948 90.866C142.158 91.269 142.451 91.5849 142.827 91.8139C143.211 92.0337 143.628 92.1436 144.077 92.1436C144.571 92.1436 144.988 92.0291 145.327 91.8002C145.666 91.5712 145.941 91.2781 146.151 90.9209L147.223 91.4705C147.076 91.8093 146.847 92.1207 146.536 92.4046C146.234 92.6794 145.872 92.8992 145.451 93.0641C145.039 93.2289 144.576 93.3113 144.063 93.3113ZM154.121 93.3113C153.379 93.3113 152.733 93.1282 152.184 92.7618C151.634 92.3955 151.245 91.9009 151.016 91.2781L152.033 90.7836C152.243 91.2232 152.532 91.5712 152.898 91.8276C153.265 92.0841 153.672 92.2123 154.121 92.2123C154.524 92.2123 154.858 92.1161 155.124 91.9238C155.389 91.7315 155.522 91.4796 155.522 91.1682C155.522 90.9484 155.458 90.7744 155.33 90.6462C155.211 90.5088 155.064 90.4035 154.89 90.3302C154.716 90.2478 154.556 90.1883 154.409 90.1516L153.297 89.8356C152.628 89.6433 152.138 89.3686 151.827 89.0114C151.524 88.6542 151.373 88.2375 151.373 87.7612C151.373 87.3216 151.483 86.9415 151.703 86.621C151.932 86.2913 152.239 86.0348 152.623 85.8517C153.017 85.6685 153.457 85.5769 153.942 85.5769C154.593 85.5769 155.174 85.7417 155.687 86.0715C156.209 86.4012 156.58 86.8637 156.8 87.459L155.756 87.9398C155.591 87.5552 155.344 87.2529 155.014 87.0331C154.684 86.8041 154.313 86.6897 153.901 86.6897C153.526 86.6897 153.228 86.7858 153.008 86.9782C152.788 87.1613 152.678 87.3949 152.678 87.6788C152.678 87.8894 152.733 88.0635 152.843 88.2008C152.953 88.3291 153.086 88.4298 153.242 88.5031C153.397 88.5672 153.548 88.6221 153.695 88.6679L154.904 89.0251C155.508 89.1991 155.975 89.4693 156.305 89.8356C156.644 90.202 156.813 90.6416 156.813 91.1545C156.813 91.5666 156.699 91.9375 156.47 92.2673C156.241 92.597 155.925 92.8534 155.522 93.0366C155.119 93.2198 154.652 93.3113 154.121 93.3113ZM161.495 93.2289C160.771 93.2289 160.212 93.0228 159.819 92.6107C159.434 92.1986 159.242 91.617 159.242 90.866V86.9644H157.895V85.7417H158.17C158.5 85.7417 158.761 85.641 158.953 85.4395C159.145 85.238 159.242 84.9724 159.242 84.6427V84.0382H160.519V85.7417H162.181V86.9644H160.519V90.8248C160.519 91.0721 160.556 91.2873 160.629 91.4705C160.712 91.6536 160.844 91.8002 161.027 91.9101C161.211 92.0108 161.453 92.0612 161.756 92.0612C161.82 92.0612 161.898 92.0566 161.989 92.0475C162.09 92.0383 162.181 92.0291 162.264 92.02V93.1465C162.145 93.174 162.012 93.1923 161.865 93.2014C161.719 93.2198 161.595 93.2289 161.495 93.2289ZM163.933 93.1465V85.7417H165.183V87.1018L165.046 86.9095C165.22 86.4882 165.485 86.1768 165.842 85.9753C166.2 85.7646 166.635 85.6593 167.147 85.6593H167.601V86.8683H166.955C166.433 86.8683 166.012 87.0331 165.691 87.3628C165.371 87.6834 165.21 88.1413 165.21 88.7366V93.1465H163.933ZM171.36 93.3113C170.828 93.3113 170.348 93.1877 169.917 92.9404C169.496 92.6931 169.166 92.3497 168.928 91.9101C168.699 91.4613 168.585 90.9484 168.585 90.3714V85.7417H169.862V90.234C169.862 90.6004 169.936 90.9209 170.082 91.1957C170.238 91.4705 170.448 91.6857 170.714 91.8414C170.989 91.9971 171.3 92.0749 171.648 92.0749C171.996 92.0749 172.303 91.9971 172.569 91.8414C172.843 91.6857 173.054 91.4613 173.201 91.1682C173.356 90.8751 173.434 90.5271 173.434 90.1241V85.7417H174.725V93.1465H173.475V91.704L173.681 91.8276C173.507 92.2947 173.21 92.6611 172.788 92.9267C172.376 93.1831 171.9 93.3113 171.36 93.3113ZM180.139 93.3113C179.416 93.3113 178.77 93.1419 178.202 92.803C177.644 92.4642 177.204 92.0017 176.883 91.4155C176.563 90.8294 176.403 90.1699 176.403 89.4372C176.403 88.6954 176.563 88.036 176.883 87.459C177.204 86.882 177.644 86.4241 178.202 86.0852C178.77 85.7463 179.416 85.5769 180.139 85.5769C180.625 85.5769 181.078 85.6639 181.499 85.8379C181.921 86.0119 182.292 86.2455 182.612 86.5385C182.933 86.8316 183.166 87.1751 183.313 87.5689L182.172 88.1184C181.998 87.7337 181.733 87.4224 181.376 87.1842C181.019 86.9369 180.606 86.8133 180.139 86.8133C179.691 86.8133 179.283 86.9278 178.917 87.1568C178.559 87.3857 178.275 87.6971 178.065 88.0909C177.854 88.4848 177.749 88.9381 177.749 89.451C177.749 89.9456 177.854 90.3943 178.065 90.7973C178.275 91.1911 178.559 91.5025 178.917 91.7315C179.283 91.9604 179.691 92.0749 180.139 92.0749C180.606 92.0749 181.019 91.9559 181.376 91.7177C181.733 91.4705 181.998 91.1453 182.172 90.7423L183.313 91.3193C183.166 91.704 182.933 92.0475 182.612 92.3497C182.292 92.6428 181.921 92.8763 181.499 93.0503C181.078 93.2243 180.625 93.3113 180.139 93.3113ZM187.991 93.2289C187.267 93.2289 186.709 93.0228 186.315 92.6107C185.93 92.1986 185.738 91.617 185.738 90.866V86.9644H184.392V85.7417H184.666C184.996 85.7417 185.257 85.641 185.45 85.4395C185.642 85.238 185.738 84.9724 185.738 84.6427V84.0382H187.016V85.7417H188.678V86.9644H187.016V90.8248C187.016 91.0721 187.052 91.2873 187.126 91.4705C187.208 91.6536 187.341 91.8002 187.524 91.9101C187.707 92.0108 187.95 92.0612 188.252 92.0612C188.316 92.0612 188.394 92.0566 188.486 92.0475C188.586 92.0383 188.678 92.0291 188.76 92.02V93.1465C188.641 93.174 188.508 93.1923 188.362 93.2014C188.215 93.2198 188.092 93.2289 187.991 93.2289ZM193.053 93.3113C192.522 93.3113 192.041 93.1877 191.611 92.9404C191.189 92.6931 190.86 92.3497 190.622 91.9101C190.393 91.4613 190.278 90.9484 190.278 90.3714V85.7417H191.556V90.234C191.556 90.6004 191.629 90.9209 191.776 91.1957C191.931 91.4705 192.142 91.6857 192.408 91.8414C192.682 91.9971 192.994 92.0749 193.342 92.0749C193.69 92.0749 193.997 91.9971 194.262 91.8414C194.537 91.6857 194.748 91.4613 194.894 91.1682C195.05 90.8751 195.128 90.5271 195.128 90.1241V85.7417H196.419V93.1465H195.169V91.704L195.375 91.8276C195.201 92.2947 194.903 92.6611 194.482 92.9267C194.07 93.1831 193.594 93.3113 193.053 93.3113ZM198.398 93.1465V85.7417H199.649V87.1018L199.511 86.9095C199.685 86.4882 199.951 86.1768 200.308 85.9753C200.665 85.7646 201.1 85.6593 201.613 85.6593H202.066V86.8683H201.421C200.899 86.8683 200.477 87.0331 200.157 87.3628C199.836 87.6834 199.676 88.1413 199.676 88.7366V93.1465H198.398ZM206.608 93.3113C205.894 93.3113 205.257 93.1419 204.699 92.803C204.14 92.4642 203.7 92.0017 203.38 91.4155C203.059 90.8202 202.899 90.1562 202.899 89.4235C202.899 88.6817 203.055 88.0222 203.366 87.4453C203.687 86.8683 204.117 86.4149 204.657 86.0852C205.207 85.7463 205.821 85.5769 206.498 85.5769C207.048 85.5769 207.533 85.6776 207.955 85.8791C208.385 86.0715 208.747 86.3371 209.04 86.6759C209.342 87.0056 209.571 87.3857 209.727 87.8162C209.892 88.2375 209.974 88.6771 209.974 89.135C209.974 89.2358 209.965 89.3502 209.947 89.4785C209.937 89.5975 209.924 89.712 209.905 89.8219H203.833V88.7229H209.164L208.559 89.2174C208.641 88.7412 208.596 88.3153 208.422 87.9398C208.248 87.5643 207.991 87.2667 207.652 87.0469C207.313 86.827 206.929 86.7171 206.498 86.7171C206.068 86.7171 205.674 86.827 205.317 87.0469C204.96 87.2667 204.68 87.5826 204.479 87.9948C204.287 88.3977 204.209 88.8786 204.245 89.4372C204.209 89.9776 204.291 90.4539 204.493 90.866C204.703 91.269 204.996 91.5849 205.372 91.8139C205.757 92.0337 206.173 92.1436 206.622 92.1436C207.117 92.1436 207.533 92.0291 207.872 91.8002C208.211 91.5712 208.486 91.2781 208.696 90.9209L209.768 91.4705C209.621 91.8093 209.392 92.1207 209.081 92.4046C208.779 92.6794 208.417 92.8992 207.996 93.0641C207.584 93.2289 207.121 93.3113 206.608 93.3113ZM212.162 93.1465V91.4979H213.494V93.1465H212.162Z" fill="#535E6D"/>
<path fill-rule="evenodd" clip-rule="evenodd" d="M28.8911 21.3885L28.8911 21.3885C28.8911 23.2674 27.8976 24.9359 26.3611 25.9854C26.0457 26.2008 25.888 26.3085 25.7944 26.4204C25.7007 26.5323 25.6474 26.6507 25.5408 26.8876C25.5269 26.9185 25.5132 26.9494 25.4996 26.9804C23.5797 27.5755 21.522 27.5759 19.6019 26.9815C19.5882 26.9501 19.5743 26.9188 19.5603 26.8876C19.4537 26.6507 19.4004 26.5323 19.3067 26.4204C19.213 26.3085 19.0554 26.2008 18.74 25.9854L18.74 25.9854C17.2034 24.9359 16.21 23.2674 16.21 21.3885V21.3885C16.21 18.2123 19.0487 15.6375 22.5505 15.6375C26.0523 15.6375 28.8911 18.2123 28.8911 21.3885ZM20.3004 29.3295C20.3689 29.7388 20.4119 30.153 20.4288 30.5698C20.4388 30.8155 20.5808 31.0387 20.8047 31.1402C21.9142 31.6434 23.1869 31.6434 24.2964 31.1402C24.5203 31.0387 24.6623 30.8155 24.6722 30.5698C24.6892 30.1528 24.7322 29.7384 24.8008 29.329C23.3143 29.6109 21.787 29.6111 20.3004 29.3295Z" fill="#FFC33C"/>
</svg>
