<svg viewBox="0 0 647 458" fill="none" xmlns="http://www.w3.org/2000/svg">
<rect x="20.5547" y="3.11035" width="586.276" height="454.029" rx="18.283" fill="#F5F5F5"/>
<g filter="url(#filter0_d_580_156)">
<rect width="254.134" height="324.829" rx="8.55174" transform="matrix(1 0 0 -1 177.179 407.774)" fill="white"/>
</g>
<rect x="200.945" y="137.186" width="206.598" height="10.3604" rx="5.1802" fill="url(#paint0_linear_580_156)"/>
<rect x="200.945" y="166.438" width="206.598" height="10.3604" rx="5.1802" fill="url(#paint1_linear_580_156)"/>
<rect x="200.945" y="195.691" width="206.598" height="10.3604" rx="5.1802" fill="url(#paint2_linear_580_156)"/>
<rect x="200.945" y="224.944" width="206.598" height="10.3604" rx="5.1802" fill="url(#paint3_linear_580_156)"/>
<rect x="200.945" y="254.197" width="206.598" height="10.3604" rx="5.1802" fill="url(#paint4_linear_580_156)"/>
<rect x="200.945" y="283.449" width="206.598" height="10.3604" rx="5.1802" fill="url(#paint5_linear_580_156)"/>
<rect x="200.945" y="312.702" width="206.598" height="10.3604" rx="5.1802" fill="url(#paint6_linear_580_156)"/>
<rect x="200.945" y="341.956" width="206.598" height="10.3604" rx="5.1802" fill="url(#paint7_linear_580_156)"/>
<g filter="url(#filter1_d_580_156)">
<rect width="188.925" height="78.8398" rx="6.35804" transform="matrix(1 0 0 -1 348.43 122.172)" fill="white"/>
</g>
<rect x="367.914" y="59.6489" width="29.5785" height="45.7588" rx="6.41894" fill="#F2F2F2"/>
<path d="M391.271 86.8901C391.271 88.5871 391.073 90.0855 390.676 91.3854C390.29 92.6732 389.731 93.7503 388.997 94.6169C388.262 95.4955 387.366 96.1574 386.307 96.6027C385.248 97.0481 384.056 97.2707 382.732 97.2707C381.42 97.2707 380.235 97.0481 379.176 96.6027C378.117 96.1574 377.22 95.4955 376.486 94.6169C375.74 93.7503 375.162 92.6732 374.753 91.3854C374.355 90.0855 374.157 88.5871 374.157 86.8901V80.6075C374.157 78.9105 374.355 77.4181 374.753 76.1303C375.15 74.8305 375.721 73.7413 376.468 72.8627C377.202 71.9961 378.092 71.3402 379.14 70.8949C380.199 70.4496 381.384 70.2269 382.696 70.2269C384.02 70.2269 385.211 70.4496 386.271 70.8949C387.33 71.3402 388.232 71.9961 388.979 72.8627C389.713 73.7413 390.278 74.8305 390.676 76.1303C391.073 77.4181 391.271 78.9105 391.271 80.6075V86.8901ZM379.212 84.7237L386.216 79.5063C386.192 78.5194 386.084 77.6769 385.891 76.9788C385.711 76.2687 385.44 75.7031 385.079 75.2818C384.802 74.9448 384.459 74.6981 384.05 74.5416C383.653 74.3731 383.202 74.2889 382.696 74.2889C382.13 74.2889 381.631 74.3972 381.198 74.6139C380.776 74.8185 380.421 75.1314 380.132 75.5526C379.82 75.9979 379.585 76.5756 379.428 77.2857C379.284 77.9958 379.212 78.8383 379.212 79.8132V82.7198C379.212 83.2975 379.212 83.6826 379.212 83.8752C379.212 84.0678 379.212 84.3506 379.212 84.7237ZM386.216 87.6483V84.5973C386.216 84.2001 386.216 83.9113 386.216 83.7308C386.216 83.5382 386.216 83.2674 386.216 82.9184L379.212 88.1177C379.236 88.9121 379.314 89.6161 379.446 90.2299C379.591 90.8438 379.789 91.3553 380.042 91.7645C380.331 92.2579 380.698 92.625 381.143 92.8657C381.589 93.1064 382.118 93.2268 382.732 93.2268C383.298 93.2268 383.797 93.1245 384.231 92.9199C384.664 92.7032 385.025 92.3783 385.314 91.945C385.615 91.4877 385.837 90.9039 385.982 90.1938C386.138 89.4717 386.216 88.6232 386.216 87.6483Z" fill="#AAAAAA"/>
<rect x="401.189" y="59.6489" width="29.5785" height="45.7588" rx="6.41894" fill="#F2F2F2"/>
<path d="M425.313 86.7167C425.313 88.4138 425.115 89.9122 424.718 91.212C424.332 92.4998 423.773 93.577 423.039 94.4435C422.304 95.3221 421.408 95.9841 420.349 96.4294C419.29 96.8747 418.098 97.0974 416.774 97.0974C415.462 97.0974 414.277 96.8747 413.218 96.4294C412.159 95.9841 411.262 95.3221 410.528 94.4435C409.782 93.577 409.204 92.4998 408.795 91.212C408.397 89.9122 408.199 88.4138 408.199 86.7167V80.4342C408.199 78.7372 408.397 77.2448 408.795 75.957C409.192 74.6572 409.763 73.5679 410.51 72.6893C411.244 71.8228 412.134 71.1668 413.182 70.7215C414.241 70.2762 415.426 70.0536 416.738 70.0536C418.062 70.0536 419.253 70.2762 420.313 70.7215C421.372 71.1668 422.274 71.8228 423.021 72.6893C423.755 73.5679 424.32 74.6572 424.718 75.957C425.115 77.2448 425.313 78.7372 425.313 80.4342V86.7167ZM413.254 84.5503L420.258 79.333C420.234 78.346 420.126 77.5036 419.933 76.8055C419.753 76.0954 419.482 75.5297 419.121 75.1085C418.844 74.7715 418.501 74.5248 418.092 74.3683C417.695 74.1998 417.244 74.1156 416.738 74.1156C416.172 74.1156 415.673 74.2239 415.24 74.4405C414.818 74.6451 414.463 74.958 414.174 75.3793C413.862 75.8246 413.627 76.4023 413.47 77.1124C413.326 77.8225 413.254 78.665 413.254 79.6399V82.5464C413.254 83.1241 413.254 83.5093 413.254 83.7018C413.254 83.8944 413.254 84.1772 413.254 84.5503ZM420.258 87.475V84.424C420.258 84.0268 420.258 83.738 420.258 83.5574C420.258 83.3649 420.258 83.0941 420.258 82.745L413.254 87.9444C413.278 88.7387 413.356 89.4428 413.488 90.0566C413.633 90.6704 413.831 91.1819 414.084 91.5911C414.373 92.0846 414.74 92.4517 415.185 92.6924C415.631 92.9331 416.16 93.0534 416.774 93.0534C417.34 93.0534 417.839 92.9511 418.273 92.7465C418.706 92.5299 419.067 92.2049 419.356 91.7717C419.657 91.3143 419.879 90.7306 420.024 90.0205C420.18 89.2984 420.258 88.4499 420.258 87.475Z" fill="#AAAAAA"/>
<path d="M439.437 93.2848C439.437 92.3581 439.744 91.5758 440.358 90.9379C440.971 90.288 441.826 89.963 442.921 89.963C444.004 89.963 444.853 90.282 445.467 90.9198C446.093 91.5577 446.405 92.3461 446.405 93.2848C446.405 94.2236 446.087 95.0059 445.449 95.6318C444.823 96.2456 443.98 96.5525 442.921 96.5525C441.85 96.5525 441.001 96.2395 440.376 95.6137C439.75 94.9879 439.437 94.2116 439.437 93.2848ZM439.437 78.3728C439.437 77.4461 439.744 76.6638 440.358 76.0259C440.971 75.376 441.826 75.051 442.921 75.051C444.004 75.051 444.853 75.37 445.467 76.0078C446.093 76.6457 446.405 77.434 446.405 78.3728C446.405 79.3116 446.087 80.0939 445.449 80.7197C444.823 81.3336 443.98 81.6405 442.921 81.6405C441.85 81.6405 441.001 81.3275 440.376 80.7017C439.75 80.0758 439.437 79.2996 439.437 78.3728Z" fill="#2263FE"/>
<rect x="454.799" y="59.6489" width="29.5785" height="45.7588" rx="6.41894" fill="#F2F2F2"/>
<path d="M466.861 81.373H469.587C470.309 81.373 470.929 81.2767 471.447 81.0841C471.976 80.8795 472.404 80.5967 472.728 80.2356C473.029 79.9227 473.252 79.5436 473.396 79.0983C473.553 78.6409 473.631 78.1475 473.631 77.6179C473.631 77.1004 473.553 76.631 473.396 76.2097C473.252 75.7765 473.029 75.4034 472.728 75.0904C472.428 74.7895 472.042 74.5548 471.573 74.3864C471.116 74.2179 470.58 74.1336 469.966 74.1336C469.461 74.1336 468.985 74.2058 468.54 74.3502C468.107 74.4947 467.728 74.6993 467.403 74.9641C467.066 75.2409 466.801 75.5719 466.608 75.957C466.416 76.3421 466.32 76.7754 466.32 77.2568H461.301C461.301 76.1857 461.517 75.2108 461.951 74.3322C462.396 73.4536 463.004 72.6954 463.774 72.0575C464.544 71.4316 465.447 70.9442 466.482 70.5952C467.529 70.2461 468.654 70.0716 469.858 70.0716C471.158 70.0716 472.349 70.2341 473.433 70.5591C474.516 70.872 475.443 71.3414 476.213 71.9672C476.983 72.6051 477.579 73.3934 478 74.3322C478.433 75.2589 478.65 76.3361 478.65 77.5637C478.65 78.1294 478.566 78.6891 478.397 79.2427C478.229 79.7843 477.982 80.3018 477.657 80.7953C477.332 81.2887 476.929 81.7461 476.447 82.1673C475.966 82.5765 475.412 82.9316 474.787 83.2325C475.521 83.4972 476.153 83.8342 476.682 84.2434C477.224 84.6527 477.669 85.116 478.018 85.6335C478.367 86.1631 478.626 86.7408 478.794 87.3667C478.963 87.9925 479.047 88.6545 479.047 89.3525C479.047 90.5801 478.812 91.6754 478.343 92.6382C477.874 93.6011 477.23 94.4074 476.411 95.0574C475.593 95.7193 474.618 96.2248 473.487 96.5738C472.367 96.9108 471.158 97.0793 469.858 97.0793C468.739 97.0793 467.643 96.9289 466.572 96.628C465.513 96.3151 464.568 95.8457 463.738 95.2198C462.908 94.606 462.24 93.8297 461.734 92.891C461.241 91.9522 460.994 90.8449 460.994 89.5692H466.013C466.013 90.0747 466.109 90.544 466.302 90.9773C466.494 91.3986 466.771 91.7596 467.132 92.0605C467.481 92.3734 467.896 92.6202 468.378 92.8007C468.859 92.9692 469.389 93.0534 469.966 93.0534C470.616 93.0534 471.2 92.9632 471.718 92.7826C472.235 92.6021 472.668 92.3373 473.017 91.9883C473.354 91.6754 473.607 91.2902 473.776 90.8329C473.956 90.3755 474.046 89.864 474.046 89.2984C474.046 88.5883 473.944 87.9805 473.739 87.475C473.535 86.9695 473.24 86.5543 472.855 86.2293C472.458 85.9043 471.982 85.6636 471.429 85.5072C470.887 85.3507 470.273 85.2725 469.587 85.2725H466.861V81.373Z" fill="#AAAAAA"/>
<rect x="488.075" y="59.6489" width="29.5785" height="45.7588" rx="6.41894" fill="#F2F2F2"/>
<path d="M509.743 86.9514H512.794V91.0134H509.743V96.7183H504.724V91.0134H493.802L493.603 87.8722L504.652 70.4327H509.743V86.9514ZM498.532 86.9514H504.724V77.1846L504.237 78.0512L498.532 86.9514Z" fill="#AAAAAA"/>
<g filter="url(#filter2_d_580_156)">
<rect width="220.53" height="63.9906" rx="7.42093" transform="matrix(1 0 0 -1 47.9785 159.126)" fill="white"/>
</g>
<path d="M89.5685 138.761H85.4753V122.49L80.1148 124.413V120.888L89.35 117.552H89.5685V138.761ZM111.433 138.761H96.9684V135.994L103.829 128.623C104.363 128.04 104.815 127.511 105.184 127.035C105.553 126.559 105.854 126.122 106.087 125.724C106.31 125.336 106.471 124.971 106.568 124.632C106.675 124.292 106.728 123.962 106.728 123.641C106.728 123.165 106.66 122.743 106.524 122.374C106.388 122.005 106.199 121.689 105.956 121.427C105.703 121.174 105.402 120.98 105.053 120.844C104.713 120.708 104.334 120.64 103.917 120.64C103.373 120.64 102.892 120.718 102.475 120.873C102.067 121.019 101.727 121.238 101.455 121.529C101.173 121.83 100.96 122.204 100.814 122.651C100.668 123.097 100.595 123.607 100.595 124.18H96.5314C96.5314 123.238 96.711 122.349 97.0703 121.514C97.4296 120.669 97.9395 119.931 98.5998 119.3C99.2505 118.669 100.037 118.174 100.96 117.814C101.892 117.445 102.921 117.261 104.048 117.261C105.126 117.261 106.077 117.411 106.903 117.712C107.738 118.013 108.437 118.436 109 118.98C109.554 119.524 109.976 120.179 110.268 120.946C110.559 121.704 110.705 122.544 110.705 123.466C110.705 124.165 110.593 124.836 110.37 125.476C110.156 126.108 109.85 126.734 109.452 127.356C109.044 127.977 108.559 128.613 107.995 129.264C107.432 129.905 106.806 130.58 106.116 131.289L102.125 135.513H111.433V138.761ZM129.292 130.691C129.292 132.061 129.131 133.27 128.811 134.318C128.5 135.357 128.049 136.227 127.456 136.926C126.864 137.635 126.14 138.169 125.286 138.528C124.431 138.887 123.47 139.067 122.402 139.067C121.343 139.067 120.387 138.887 119.532 138.528C118.677 138.169 117.954 137.635 117.362 136.926C116.76 136.227 116.293 135.357 115.963 134.318C115.643 133.27 115.483 132.061 115.483 130.691V125.622C115.483 124.253 115.643 123.049 115.963 122.01C116.284 120.961 116.745 120.082 117.347 119.373C117.939 118.674 118.658 118.145 119.503 117.785C120.358 117.426 121.314 117.246 122.373 117.246C123.441 117.246 124.402 117.426 125.257 117.785C126.111 118.145 126.84 118.674 127.442 119.373C128.034 120.082 128.491 120.961 128.811 122.01C129.131 123.049 129.292 124.253 129.292 125.622V130.691ZM119.561 128.943L125.213 124.734C125.194 123.937 125.106 123.257 124.951 122.694C124.805 122.121 124.587 121.665 124.295 121.325C124.072 121.053 123.795 120.854 123.465 120.728C123.145 120.592 122.78 120.524 122.373 120.524C121.916 120.524 121.513 120.611 121.164 120.786C120.824 120.951 120.537 121.204 120.304 121.543C120.052 121.903 119.862 122.369 119.736 122.942C119.619 123.515 119.561 124.195 119.561 124.981V127.326C119.561 127.793 119.561 128.103 119.561 128.259C119.561 128.414 119.561 128.642 119.561 128.943ZM125.213 131.303V128.841C125.213 128.521 125.213 128.288 125.213 128.142C125.213 127.987 125.213 127.768 125.213 127.487L119.561 131.682C119.581 132.323 119.644 132.891 119.751 133.386C119.867 133.881 120.027 134.294 120.231 134.624C120.464 135.022 120.761 135.319 121.12 135.513C121.479 135.707 121.906 135.804 122.402 135.804C122.858 135.804 123.261 135.722 123.611 135.557C123.96 135.382 124.252 135.12 124.485 134.77C124.728 134.401 124.907 133.93 125.024 133.357C125.15 132.774 125.213 132.09 125.213 131.303ZM152.482 138.761L149.656 123H153.356L154.536 132.366L154.725 133.867L155.002 132.366L156.706 123H159.416L161.12 132.323L161.397 133.823L161.601 132.294L162.766 123H166.48L163.654 138.761H160.1L158.367 130.342L158.032 128.739L157.711 130.342L156.036 138.761H152.482ZM168.68 130.735C168.68 129.589 168.845 128.531 169.175 127.559C169.505 126.579 169.991 125.729 170.632 125.01C171.263 124.292 172.035 123.728 172.948 123.321C173.87 122.913 174.924 122.709 176.109 122.709C177.294 122.709 178.347 122.913 179.27 123.321C180.192 123.728 180.974 124.292 181.615 125.01C182.246 125.729 182.727 126.579 183.057 127.559C183.387 128.531 183.552 129.589 183.552 130.735V131.041C183.552 132.197 183.387 133.265 183.057 134.246C182.727 135.217 182.246 136.062 181.615 136.78C180.984 137.499 180.207 138.062 179.284 138.47C178.362 138.868 177.313 139.067 176.138 139.067C174.953 139.067 173.895 138.868 172.962 138.47C172.04 138.062 171.263 137.499 170.632 136.78C169.991 136.062 169.505 135.217 169.175 134.246C168.845 133.265 168.68 132.197 168.68 131.041V130.735ZM172.729 131.041C172.729 131.701 172.793 132.323 172.919 132.905C173.045 133.478 173.244 133.979 173.516 134.406C173.788 134.843 174.138 135.188 174.565 135.44C175.002 135.693 175.526 135.819 176.138 135.819C176.73 135.819 177.24 135.693 177.668 135.44C178.095 135.188 178.444 134.843 178.716 134.406C178.979 133.979 179.173 133.478 179.299 132.905C179.425 132.323 179.488 131.701 179.488 131.041V130.735C179.488 130.094 179.425 129.487 179.299 128.914C179.173 128.341 178.979 127.836 178.716 127.399C178.444 126.962 178.095 126.618 177.668 126.365C177.24 126.113 176.721 125.986 176.109 125.986C175.507 125.986 174.992 126.113 174.565 126.365C174.138 126.618 173.788 126.962 173.516 127.399C173.244 127.836 173.045 128.341 172.919 128.914C172.793 129.487 172.729 130.094 172.729 130.735V131.041ZM198.469 122.709C199.08 122.709 199.644 122.752 200.158 122.84C200.683 122.918 201.105 123.005 201.426 123.102L200.828 127.137C200.294 127.011 199.746 126.919 199.182 126.86C198.629 126.792 198.1 126.758 197.595 126.758C197.07 126.758 196.594 126.807 196.167 126.904C195.75 126.991 195.376 127.127 195.046 127.312C194.647 127.525 194.307 127.797 194.026 128.128C193.744 128.458 193.511 128.846 193.327 129.293V138.761H189.277V123H193.05L193.21 125.229L193.239 125.578C193.88 124.685 194.647 123.986 195.541 123.481C196.434 122.966 197.41 122.709 198.469 122.709ZM204.645 130.764C204.645 129.57 204.781 128.477 205.053 127.487C205.334 126.496 205.742 125.646 206.276 124.937C206.81 124.229 207.456 123.68 208.214 123.291C208.981 122.903 209.855 122.709 210.836 122.709C211.661 122.709 212.385 122.859 213.006 123.16C213.637 123.452 214.196 123.869 214.681 124.413V116.387H218.745V138.761H215.089L214.885 137.115C214.39 137.727 213.807 138.203 213.137 138.543C212.467 138.883 211.69 139.053 210.807 139.053C209.845 139.053 208.981 138.853 208.214 138.455C207.456 138.047 206.815 137.489 206.291 136.78C205.757 136.071 205.349 135.231 205.067 134.26C204.786 133.279 204.645 132.216 204.645 131.07V130.764ZM208.694 131.07C208.694 131.73 208.748 132.347 208.855 132.92C208.971 133.483 209.156 133.974 209.408 134.391C209.661 134.819 209.986 135.154 210.384 135.396C210.782 135.639 211.268 135.761 211.841 135.761C212.54 135.761 213.118 135.61 213.574 135.309C214.04 135.008 214.409 134.595 214.681 134.071V127.691C214.409 127.156 214.045 126.744 213.589 126.452C213.132 126.151 212.559 126.001 211.87 126.001C211.297 126.001 210.807 126.127 210.399 126.38C210.001 126.622 209.675 126.957 209.423 127.385C209.17 127.822 208.986 128.332 208.869 128.914C208.753 129.487 208.694 130.104 208.694 130.764V131.07ZM233.152 134.435C233.152 134.192 233.094 133.979 232.977 133.794C232.87 133.609 232.676 133.435 232.394 133.27C232.103 133.114 231.719 132.969 231.244 132.833C230.768 132.697 230.166 132.561 229.437 132.425C228.515 132.24 227.67 132.012 226.903 131.74C226.145 131.458 225.495 131.119 224.951 130.72C224.407 130.332 223.98 129.88 223.669 129.366C223.368 128.851 223.217 128.259 223.217 127.589C223.217 126.938 223.373 126.316 223.684 125.724C223.994 125.132 224.441 124.612 225.024 124.165C225.606 123.719 226.315 123.364 227.15 123.102C227.986 122.84 228.928 122.709 229.976 122.709C231.074 122.709 232.059 122.84 232.933 123.102C233.807 123.355 234.55 123.704 235.162 124.151C235.764 124.607 236.225 125.146 236.546 125.768C236.866 126.389 237.027 127.064 237.027 127.793H232.977C232.977 127.53 232.933 127.288 232.846 127.064C232.759 126.831 232.627 126.622 232.453 126.438C232.21 126.195 231.88 126.001 231.462 125.855C231.054 125.71 230.559 125.637 229.976 125.637C229.481 125.637 229.049 125.685 228.68 125.782C228.311 125.879 228.01 126.015 227.777 126.19C227.563 126.346 227.398 126.53 227.281 126.744C227.175 126.948 227.121 127.166 227.121 127.399C227.121 127.632 227.17 127.851 227.267 128.055C227.364 128.249 227.539 128.424 227.791 128.579C228.034 128.744 228.369 128.895 228.796 129.031C229.224 129.157 229.768 129.269 230.428 129.366C231.38 129.521 232.263 129.72 233.079 129.963C233.895 130.206 234.599 130.517 235.191 130.895C235.784 131.284 236.245 131.755 236.575 132.308C236.915 132.852 237.085 133.503 237.085 134.26C237.085 134.959 236.915 135.605 236.575 136.198C236.245 136.78 235.774 137.285 235.162 137.712C234.541 138.14 233.793 138.475 232.919 138.718C232.045 138.951 231.069 139.067 229.991 139.067C228.806 139.067 227.757 138.912 226.844 138.601C225.941 138.29 225.184 137.882 224.572 137.377C223.96 136.882 223.494 136.319 223.174 135.688C222.863 135.047 222.708 134.406 222.708 133.765H226.568C226.597 134.192 226.713 134.561 226.917 134.872C227.121 135.173 227.383 135.416 227.704 135.6C228.024 135.794 228.389 135.935 228.796 136.023C229.214 136.11 229.641 136.154 230.078 136.154C230.603 136.154 231.059 136.11 231.448 136.023C231.846 135.926 232.171 135.799 232.423 135.644C232.666 135.489 232.846 135.309 232.962 135.105C233.089 134.901 233.152 134.678 233.152 134.435Z" fill="#8A8A8A"/>
<g filter="url(#filter3_d_580_156)">
<rect width="220.615" height="43.8793" rx="7.42093" transform="matrix(1 0 0 -1 367.932 198.739)" fill="white"/>
</g>
<path d="M430.692 181.301H427.239L426.559 183.704H424.22L427.99 172.198H430.005L433.703 183.704H431.364L430.692 181.301ZM427.784 179.413H430.171L428.993 175.177L427.784 179.413ZM440.412 183.704L440.285 182.502C439.996 182.929 439.645 183.264 439.234 183.506C438.829 183.748 438.384 183.87 437.899 183.87C437.456 183.87 437.051 183.801 436.682 183.664C436.313 183.527 435.997 183.309 435.734 183.008C435.47 182.713 435.265 182.337 435.117 181.878C434.975 181.415 434.904 180.859 434.904 180.211V175.153H437.101V180.227C437.101 180.574 437.125 180.867 437.172 181.104C437.225 181.341 437.306 181.531 437.417 181.673C437.528 181.82 437.672 181.926 437.852 181.989C438.031 182.052 438.249 182.084 438.507 182.084C438.739 182.084 438.947 182.06 439.132 182.013C439.321 181.965 439.487 181.897 439.63 181.807C439.751 181.728 439.859 181.633 439.954 181.523C440.048 181.412 440.13 181.288 440.199 181.151V175.153H442.403V183.704H440.412ZM448.583 173.059V175.153H451.775V176.773H448.583V180.448C448.583 180.759 448.617 181.019 448.686 181.23C448.759 181.436 448.862 181.599 448.994 181.72C449.125 181.847 449.283 181.936 449.468 181.989C449.657 182.042 449.868 182.068 450.1 182.068C450.269 182.068 450.44 182.06 450.614 182.044C450.793 182.028 450.964 182.007 451.127 181.981C451.285 181.96 451.433 181.936 451.57 181.91C451.712 181.883 451.833 181.857 451.933 181.831L452.147 183.34C451.994 183.43 451.815 183.509 451.609 183.577C451.404 183.64 451.185 183.693 450.953 183.735C450.722 183.777 450.479 183.809 450.226 183.83C449.979 183.856 449.734 183.87 449.492 183.87C449.023 183.87 448.596 183.809 448.211 183.688C447.832 183.561 447.508 183.366 447.239 183.103C446.965 182.845 446.755 182.516 446.607 182.115C446.46 181.71 446.386 181.225 446.386 180.661V176.773H444.434V175.153H446.386V173.059H448.583ZM453.972 179.349C453.972 178.728 454.062 178.154 454.241 177.627C454.42 177.095 454.683 176.634 455.031 176.244C455.373 175.854 455.792 175.549 456.287 175.327C456.788 175.106 457.36 174.995 458.002 174.995C458.645 174.995 459.217 175.106 459.717 175.327C460.217 175.549 460.642 175.854 460.989 176.244C461.332 176.634 461.592 177.095 461.772 177.627C461.951 178.154 462.04 178.728 462.04 179.349V179.515C462.04 180.142 461.951 180.722 461.772 181.254C461.592 181.781 461.332 182.239 460.989 182.629C460.647 183.019 460.225 183.324 459.725 183.546C459.224 183.762 458.655 183.87 458.018 183.87C457.375 183.87 456.801 183.762 456.295 183.546C455.795 183.324 455.373 183.019 455.031 182.629C454.683 182.239 454.42 181.781 454.241 181.254C454.062 180.722 453.972 180.142 453.972 179.515V179.349ZM456.169 179.515C456.169 179.874 456.203 180.211 456.272 180.527C456.34 180.838 456.448 181.109 456.596 181.341C456.743 181.578 456.933 181.765 457.165 181.902C457.402 182.039 457.686 182.107 458.018 182.107C458.339 182.107 458.616 182.039 458.848 181.902C459.08 181.765 459.269 181.578 459.417 181.341C459.559 181.109 459.664 180.838 459.733 180.527C459.801 180.211 459.836 179.874 459.836 179.515V179.349C459.836 179.002 459.801 178.673 459.733 178.362C459.664 178.051 459.559 177.777 459.417 177.54C459.269 177.303 459.08 177.116 458.848 176.979C458.616 176.842 458.334 176.773 458.002 176.773C457.676 176.773 457.396 176.842 457.165 176.979C456.933 177.116 456.743 177.303 456.596 177.54C456.448 177.777 456.34 178.051 456.272 178.362C456.203 178.673 456.169 179.002 456.169 179.349V179.515ZM481.622 180.1C481.585 180.68 481.459 181.201 481.243 181.665C481.032 182.128 480.747 182.524 480.389 182.85C480.031 183.177 479.604 183.43 479.109 183.609C478.614 183.783 478.066 183.87 477.465 183.87C476.991 183.87 476.551 183.809 476.146 183.688C475.745 183.561 475.384 183.382 475.063 183.15C474.768 182.934 474.505 182.674 474.273 182.368C474.046 182.063 473.854 181.725 473.696 181.357C473.543 180.988 473.425 180.582 473.34 180.14C473.261 179.697 473.222 179.228 473.222 178.733V177.184C473.222 176.721 473.259 176.281 473.333 175.865C473.406 175.443 473.517 175.053 473.664 174.695C473.833 174.258 474.054 173.868 474.328 173.526C474.602 173.183 474.913 172.893 475.261 172.656C475.571 172.456 475.911 172.303 476.28 172.198C476.654 172.087 477.054 172.032 477.481 172.032C478.113 172.032 478.674 172.122 479.164 172.301C479.66 172.48 480.081 172.735 480.429 173.067C480.776 173.399 481.05 173.805 481.251 174.284C481.451 174.764 481.577 175.304 481.63 175.904H479.417C479.396 175.562 479.343 175.261 479.259 175.003C479.18 174.745 479.064 174.529 478.911 174.355C478.753 174.187 478.556 174.06 478.319 173.976C478.087 173.886 477.808 173.842 477.481 173.842C477.307 173.842 477.144 173.86 476.991 173.897C476.844 173.934 476.707 173.989 476.58 174.063C476.364 174.189 476.18 174.371 476.027 174.608C475.88 174.84 475.761 175.111 475.672 175.422C475.603 175.664 475.553 175.933 475.521 176.228C475.49 176.518 475.474 176.831 475.474 177.168V178.733C475.474 179.191 475.498 179.602 475.545 179.966C475.598 180.324 475.677 180.638 475.782 180.906C475.856 181.091 475.943 181.254 476.043 181.396C476.148 181.538 476.267 181.657 476.399 181.752C476.541 181.857 476.699 181.936 476.873 181.989C477.052 182.036 477.249 182.06 477.465 182.06C477.755 182.06 478.016 182.023 478.248 181.949C478.479 181.876 478.677 181.76 478.84 181.602C479.004 181.444 479.133 181.241 479.228 180.993C479.322 180.746 479.38 180.448 479.401 180.1H481.622ZM483.131 179.349C483.131 178.728 483.221 178.154 483.4 177.627C483.579 177.095 483.842 176.634 484.19 176.244C484.533 175.854 484.951 175.549 485.447 175.327C485.947 175.106 486.519 174.995 487.161 174.995C487.804 174.995 488.376 175.106 488.876 175.327C489.377 175.549 489.801 175.854 490.148 176.244C490.491 176.634 490.752 177.095 490.931 177.627C491.11 178.154 491.199 178.728 491.199 179.349V179.515C491.199 180.142 491.11 180.722 490.931 181.254C490.752 181.781 490.491 182.239 490.148 182.629C489.806 183.019 489.385 183.324 488.884 183.546C488.384 183.762 487.815 183.87 487.177 183.87C486.534 183.87 485.96 183.762 485.454 183.546C484.954 183.324 484.533 183.019 484.19 182.629C483.842 182.239 483.579 181.781 483.4 181.254C483.221 180.722 483.131 180.142 483.131 179.515V179.349ZM485.328 179.515C485.328 179.874 485.362 180.211 485.431 180.527C485.499 180.838 485.607 181.109 485.755 181.341C485.902 181.578 486.092 181.765 486.324 181.902C486.561 182.039 486.845 182.107 487.177 182.107C487.499 182.107 487.775 182.039 488.007 181.902C488.239 181.765 488.428 181.578 488.576 181.341C488.718 181.109 488.823 180.838 488.892 180.527C488.96 180.211 488.995 179.874 488.995 179.515V179.349C488.995 179.002 488.96 178.673 488.892 178.362C488.823 178.051 488.718 177.777 488.576 177.54C488.428 177.303 488.239 177.116 488.007 176.979C487.775 176.842 487.493 176.773 487.161 176.773C486.835 176.773 486.556 176.842 486.324 176.979C486.092 177.116 485.902 177.303 485.755 177.54C485.607 177.777 485.499 178.051 485.431 178.362C485.362 178.673 485.328 179.002 485.328 179.349V179.515ZM499.291 174.995C499.623 174.995 499.929 175.019 500.208 175.067C500.492 175.109 500.722 175.156 500.895 175.209L500.571 177.398C500.282 177.329 499.984 177.279 499.678 177.248C499.378 177.211 499.091 177.192 498.817 177.192C498.533 177.192 498.275 177.219 498.043 177.271C497.816 177.319 497.613 177.392 497.434 177.492C497.218 177.608 497.034 177.756 496.881 177.935C496.728 178.114 496.602 178.325 496.502 178.567V183.704H494.305V175.153H496.352L496.439 176.362L496.454 176.552C496.802 176.067 497.218 175.688 497.703 175.414C498.188 175.135 498.717 174.995 499.291 174.995ZM509.011 174.995C509.343 174.995 509.648 175.019 509.928 175.067C510.212 175.109 510.441 175.156 510.615 175.209L510.291 177.398C510.001 177.329 509.704 177.279 509.398 177.248C509.098 177.211 508.811 177.192 508.537 177.192C508.252 177.192 507.994 177.219 507.762 177.271C507.536 177.319 507.333 177.392 507.154 177.492C506.938 177.608 506.754 177.756 506.601 177.935C506.448 178.114 506.322 178.325 506.221 178.567V183.704H504.025V175.153H506.071L506.158 176.362L506.174 176.552C506.522 176.067 506.938 175.688 507.423 175.414C507.907 175.135 508.437 174.995 509.011 174.995ZM516.739 183.862C516.081 183.862 515.483 183.754 514.946 183.538C514.408 183.322 513.947 183.027 513.563 182.653C513.178 182.284 512.88 181.849 512.67 181.349C512.464 180.843 512.361 180.303 512.361 179.729V179.413C512.361 178.759 512.464 178.164 512.67 177.627C512.875 177.084 513.162 176.618 513.531 176.228C513.9 175.838 514.337 175.535 514.843 175.319C515.349 175.103 515.899 174.995 516.494 174.995C517.111 174.995 517.659 175.098 518.138 175.304C518.623 175.504 519.034 175.788 519.371 176.157C519.703 176.526 519.956 176.971 520.129 177.492C520.303 178.009 520.39 178.58 520.39 179.207V180.14H514.59V180.163C514.664 180.506 514.758 180.782 514.874 180.993C514.99 181.199 515.146 181.386 515.341 181.554C515.541 181.728 515.77 181.862 516.028 181.957C516.286 182.052 516.568 182.099 516.874 182.099C517.306 182.099 517.724 182.018 518.13 181.854C518.536 181.691 518.865 181.446 519.118 181.12L520.216 182.305C519.937 182.7 519.495 183.058 518.889 183.38C518.283 183.701 517.566 183.862 516.739 183.862ZM516.479 176.773C516.231 176.773 516.004 176.818 515.799 176.908C515.593 176.992 515.414 177.116 515.262 177.279C515.104 177.442 514.972 177.637 514.866 177.864C514.761 178.09 514.682 178.343 514.629 178.622H518.233V178.449C518.233 178.217 518.191 177.998 518.106 177.793C518.022 177.587 517.906 177.408 517.759 177.255C517.611 177.108 517.429 176.992 517.213 176.908C517.003 176.818 516.758 176.773 516.479 176.773ZM526.096 182.107C526.312 182.107 526.517 182.076 526.712 182.013C526.907 181.949 527.078 181.86 527.226 181.744C527.373 181.628 527.486 181.488 527.565 181.325C527.65 181.162 527.687 180.98 527.676 180.78H529.746C529.757 181.222 529.665 181.633 529.47 182.013C529.28 182.392 529.019 182.718 528.687 182.992C528.356 183.266 527.968 183.482 527.526 183.64C527.089 183.793 526.625 183.87 526.135 183.87C525.471 183.87 524.889 183.759 524.389 183.538C523.888 183.311 523.472 183.003 523.14 182.613C522.803 182.223 522.547 181.768 522.374 181.246C522.205 180.719 522.121 180.156 522.121 179.555V179.318C522.121 178.717 522.205 178.156 522.374 177.635C522.542 177.108 522.795 176.65 523.132 176.26C523.469 175.87 523.886 175.562 524.381 175.335C524.881 175.109 525.461 174.995 526.119 174.995C526.646 174.995 527.133 175.074 527.581 175.232C528.029 175.39 528.416 175.612 528.743 175.896C529.064 176.186 529.314 176.536 529.493 176.947C529.673 177.353 529.757 177.809 529.746 178.314H527.676C527.687 178.104 527.655 177.903 527.581 177.714C527.507 177.524 527.399 177.361 527.257 177.224C527.115 177.087 526.944 176.979 526.744 176.9C526.543 176.816 526.325 176.773 526.088 176.773C525.74 176.773 525.453 176.844 525.226 176.987C525 177.129 524.821 177.319 524.689 177.556C524.552 177.793 524.455 178.064 524.397 178.37C524.344 178.675 524.318 178.991 524.318 179.318V179.555C524.318 179.887 524.344 180.208 524.397 180.519C524.449 180.825 524.544 181.093 524.681 181.325C524.813 181.562 524.992 181.752 525.218 181.894C525.45 182.036 525.743 182.107 526.096 182.107ZM536.06 173.059V175.153H539.253V176.773H536.06V180.448C536.06 180.759 536.094 181.019 536.163 181.23C536.237 181.436 536.339 181.599 536.471 181.72C536.603 181.847 536.761 181.936 536.945 181.989C537.135 182.042 537.346 182.068 537.577 182.068C537.746 182.068 537.917 182.06 538.091 182.044C538.27 182.028 538.441 182.007 538.605 181.981C538.763 181.96 538.91 181.936 539.047 181.91C539.189 181.883 539.311 181.857 539.411 181.831L539.624 183.34C539.471 183.43 539.292 183.509 539.087 183.577C538.881 183.64 538.663 183.693 538.431 183.735C538.199 183.777 537.957 183.809 537.704 183.83C537.456 183.856 537.211 183.87 536.969 183.87C536.5 183.87 536.073 183.809 535.689 183.688C535.31 183.561 534.986 183.366 534.717 183.103C534.443 182.845 534.232 182.516 534.085 182.115C533.937 181.71 533.863 181.225 533.863 180.661V176.773H531.912V175.153H533.863V173.059H536.06ZM542.335 175.153H546.989V181.918H549.304V183.704H542.335V181.918H544.768V176.947H542.335V175.153ZM544.61 172.965C544.61 172.796 544.639 172.641 544.697 172.498C544.761 172.351 544.847 172.224 544.958 172.119C545.069 172.019 545.2 171.94 545.353 171.882C545.511 171.824 545.685 171.795 545.875 171.795C546.265 171.795 546.573 171.906 546.799 172.127C547.031 172.343 547.147 172.622 547.147 172.965C547.147 173.307 547.031 173.589 546.799 173.81C546.573 174.026 546.265 174.134 545.875 174.134C545.685 174.134 545.511 174.105 545.353 174.047C545.2 173.989 545.069 173.908 544.958 173.802C544.847 173.702 544.761 173.581 544.697 173.439C544.639 173.291 544.61 173.133 544.61 172.965ZM551.169 179.349C551.169 178.728 551.259 178.154 551.438 177.627C551.617 177.095 551.88 176.634 552.228 176.244C552.571 175.854 552.989 175.549 553.485 175.327C553.985 175.106 554.557 174.995 555.199 174.995C555.842 174.995 556.414 175.106 556.914 175.327C557.415 175.549 557.839 175.854 558.186 176.244C558.529 176.634 558.79 177.095 558.969 177.627C559.148 178.154 559.237 178.728 559.237 179.349V179.515C559.237 180.142 559.148 180.722 558.969 181.254C558.79 181.781 558.529 182.239 558.186 182.629C557.844 183.019 557.423 183.324 556.922 183.546C556.422 183.762 555.853 183.87 555.215 183.87C554.572 183.87 553.998 183.762 553.492 183.546C552.992 183.324 552.571 183.019 552.228 182.629C551.88 182.239 551.617 181.781 551.438 181.254C551.259 180.722 551.169 180.142 551.169 179.515V179.349ZM553.366 179.515C553.366 179.874 553.4 180.211 553.469 180.527C553.537 180.838 553.645 181.109 553.793 181.341C553.94 181.578 554.13 181.765 554.362 181.902C554.599 182.039 554.883 182.107 555.215 182.107C555.537 182.107 555.813 182.039 556.045 181.902C556.277 181.765 556.466 181.578 556.614 181.341C556.756 181.109 556.861 180.838 556.93 180.527C556.998 180.211 557.033 179.874 557.033 179.515V179.349C557.033 179.002 556.998 178.673 556.93 178.362C556.861 178.051 556.756 177.777 556.614 177.54C556.466 177.303 556.277 177.116 556.045 176.979C555.813 176.842 555.531 176.773 555.199 176.773C554.873 176.773 554.594 176.842 554.362 176.979C554.13 177.116 553.94 177.303 553.793 177.54C553.645 177.777 553.537 178.051 553.469 178.362C553.4 178.673 553.366 179.002 553.366 179.349V179.515ZM561.189 183.704V175.153H563.181L563.315 176.339C563.426 176.181 563.547 176.036 563.678 175.904C563.81 175.772 563.95 175.654 564.097 175.549C564.35 175.369 564.627 175.232 564.927 175.138C565.227 175.043 565.546 174.995 565.883 174.995C566.315 174.995 566.71 175.059 567.068 175.185C567.427 175.311 567.738 175.512 568.001 175.786C568.259 176.065 568.459 176.423 568.602 176.86C568.749 177.292 568.823 177.819 568.823 178.441V183.704H566.626V178.472C566.626 178.135 566.586 177.859 566.507 177.643C566.434 177.421 566.326 177.248 566.183 177.121C566.041 176.995 565.87 176.908 565.67 176.86C565.47 176.808 565.243 176.781 564.99 176.781C564.779 176.781 564.585 176.805 564.405 176.852C564.232 176.9 564.076 176.971 563.939 177.066C563.829 177.134 563.728 177.216 563.639 177.311C563.549 177.406 563.468 177.511 563.394 177.627V183.704H561.189Z" fill="#EA1537"/>
<path fill-rule="evenodd" clip-rule="evenodd" d="M411.355 176.19C411.355 180.986 407.467 184.874 402.671 184.874C397.874 184.874 393.986 180.986 393.986 176.19C393.986 171.394 397.874 167.505 402.671 167.505C407.467 167.505 411.355 171.394 411.355 176.19ZM398.129 180.732C397.752 180.355 397.752 179.744 398.129 179.367L401.306 176.19L398.129 173.012C397.752 172.635 397.752 172.025 398.129 171.648C398.505 171.271 399.116 171.271 399.493 171.648L402.671 174.825L405.849 171.648C406.226 171.271 406.837 171.271 407.213 171.648C407.59 172.025 407.59 172.635 407.213 173.012L404.036 176.19L407.213 179.367C407.59 179.744 407.59 180.355 407.213 180.732C406.836 181.109 406.225 181.109 405.848 180.732L402.671 177.555L399.494 180.732C399.117 181.109 398.506 181.109 398.129 180.732Z" fill="#EA1537"/>
<defs>
<filter id="filter0_d_580_156" x="164.99" y="70.7571" width="278.511" height="349.206" filterUnits="userSpaceOnUse" color-interpolation-filters="sRGB">
<feFlood flood-opacity="0" result="BackgroundImageFix"/>
<feColorMatrix in="SourceAlpha" type="matrix" values="0 0 0 0 0 0 0 0 0 0 0 0 0 0 0 0 0 0 127 0" result="hardAlpha"/>
<feOffset/>
<feGaussianBlur stdDeviation="6.09435"/>
<feComposite in2="hardAlpha" operator="out"/>
<feColorMatrix type="matrix" values="0 0 0 0 0 0 0 0 0 0 0 0 0 0 0 0 0 0 0.1 0"/>
<feBlend mode="normal" in2="BackgroundImageFix" result="effect1_dropShadow_580_156"/>
<feBlend mode="normal" in="SourceGraphic" in2="effect1_dropShadow_580_156" result="shape"/>
</filter>
<filter id="filter1_d_580_156" x="307.65" y="0.740433" width="279.545" height="169.46" filterUnits="userSpaceOnUse" color-interpolation-filters="sRGB">
<feFlood flood-opacity="0" result="BackgroundImageFix"/>
<feColorMatrix in="SourceAlpha" type="matrix" values="0 0 0 0 0 0 0 0 0 0 0 0 0 0 0 0 0 0 127 0" result="hardAlpha"/>
<feOffset dx="4.53102" dy="2.71861"/>
<feGaussianBlur stdDeviation="22.6551"/>
<feComposite in2="hardAlpha" operator="out"/>
<feColorMatrix type="matrix" values="0 0 0 0 0 0 0 0 0 0 0 0 0 0 0 0 0 0 0.1 0"/>
<feBlend mode="normal" in2="BackgroundImageFix" result="effect1_dropShadow_580_156"/>
<feBlend mode="normal" in="SourceGraphic" in2="effect1_dropShadow_580_156" result="shape"/>
</filter>
<filter id="filter2_d_580_156" x="0.382172" y="44.8952" width="326.299" height="169.76" filterUnits="userSpaceOnUse" color-interpolation-filters="sRGB">
<feFlood flood-opacity="0" result="BackgroundImageFix"/>
<feColorMatrix in="SourceAlpha" type="matrix" values="0 0 0 0 0 0 0 0 0 0 0 0 0 0 0 0 0 0 127 0" result="hardAlpha"/>
<feOffset dx="5.28848" dy="2.64424"/>
<feGaussianBlur stdDeviation="26.4424"/>
<feComposite in2="hardAlpha" operator="out"/>
<feColorMatrix type="matrix" values="0 0 0 0 0 0 0 0 0 0 0 0 0 0 0 0 0 0 0.1 0"/>
<feBlend mode="normal" in2="BackgroundImageFix" result="effect1_dropShadow_580_156"/>
<feBlend mode="normal" in="SourceGraphic" in2="effect1_dropShadow_580_156" result="shape"/>
</filter>
<filter id="filter3_d_580_156" x="320.335" y="104.619" width="326.385" height="149.649" filterUnits="userSpaceOnUse" color-interpolation-filters="sRGB">
<feFlood flood-opacity="0" result="BackgroundImageFix"/>
<feColorMatrix in="SourceAlpha" type="matrix" values="0 0 0 0 0 0 0 0 0 0 0 0 0 0 0 0 0 0 127 0" result="hardAlpha"/>
<feOffset dx="5.28848" dy="2.64424"/>
<feGaussianBlur stdDeviation="26.4424"/>
<feComposite in2="hardAlpha" operator="out"/>
<feColorMatrix type="matrix" values="0 0 0 0 0 0 0 0 0 0 0 0 0 0 0 0 0 0 0.1 0"/>
<feBlend mode="normal" in2="BackgroundImageFix" result="effect1_dropShadow_580_156"/>
<feBlend mode="normal" in="SourceGraphic" in2="effect1_dropShadow_580_156" result="shape"/>
</filter>
<linearGradient id="paint0_linear_580_156" x1="-32.1637" y1="124.741" x2="7.46483" y2="286.756" gradientUnits="userSpaceOnUse">
<stop stop-color="#D9D9D9"/>
<stop offset="1" stop-color="#D9D9D9" stop-opacity="0"/>
</linearGradient>
<linearGradient id="paint1_linear_580_156" x1="-32.1637" y1="153.993" x2="7.46483" y2="316.008" gradientUnits="userSpaceOnUse">
<stop stop-color="#D9D9D9"/>
<stop offset="1" stop-color="#D9D9D9" stop-opacity="0"/>
</linearGradient>
<linearGradient id="paint2_linear_580_156" x1="-32.1637" y1="183.247" x2="7.46483" y2="345.262" gradientUnits="userSpaceOnUse">
<stop stop-color="#D9D9D9"/>
<stop offset="1" stop-color="#D9D9D9" stop-opacity="0"/>
</linearGradient>
<linearGradient id="paint3_linear_580_156" x1="-32.1637" y1="212.5" x2="7.46483" y2="374.515" gradientUnits="userSpaceOnUse">
<stop stop-color="#D9D9D9"/>
<stop offset="1" stop-color="#D9D9D9" stop-opacity="0"/>
</linearGradient>
<linearGradient id="paint4_linear_580_156" x1="-32.1637" y1="241.753" x2="7.46483" y2="403.767" gradientUnits="userSpaceOnUse">
<stop stop-color="#D9D9D9"/>
<stop offset="1" stop-color="#D9D9D9" stop-opacity="0"/>
</linearGradient>
<linearGradient id="paint5_linear_580_156" x1="-32.1637" y1="271.005" x2="7.46483" y2="433.02" gradientUnits="userSpaceOnUse">
<stop stop-color="#D9D9D9"/>
<stop offset="1" stop-color="#D9D9D9" stop-opacity="0"/>
</linearGradient>
<linearGradient id="paint6_linear_580_156" x1="-32.1637" y1="300.258" x2="7.46483" y2="462.273" gradientUnits="userSpaceOnUse">
<stop stop-color="#D9D9D9"/>
<stop offset="1" stop-color="#D9D9D9" stop-opacity="0"/>
</linearGradient>
<linearGradient id="paint7_linear_580_156" x1="-32.1637" y1="329.511" x2="7.46483" y2="491.526" gradientUnits="userSpaceOnUse">
<stop stop-color="#D9D9D9"/>
<stop offset="1" stop-color="#D9D9D9" stop-opacity="0"/>
</linearGradient>
</defs>
</svg>
