<svg width="65" height="65" viewBox="0 0 76 76" fill="none" xmlns="http://www.w3.org/2000/svg">
<circle cx="38.0001" cy="38" r="37.3092" fill="#F2F6FF"/>
<circle cx="37.3217" cy="37.3216" r="28.4907" fill="#DEE8FF"/>
<path d="M39.6778 50.6824C41.4324 50.373 43.1088 49.7211 44.6115 48.7638C46.1141 47.8065 47.4134 46.5626 48.4354 45.1032C49.4573 43.6438 50.1817 41.9973 50.5673 40.2579C50.9529 38.5185 50.9922 36.7202 50.6828 34.9656C50.3734 33.211 49.7215 31.5346 48.7642 30.032C47.8069 28.5293 46.5631 27.23 45.1036 26.2081C43.6442 25.1862 41.9978 24.4617 40.2584 24.0761C38.519 23.6905 36.7206 23.6513 34.966 23.9606C33.2115 24.27 31.535 24.9219 30.0324 25.8792C28.5298 26.8365 27.2304 28.0804 26.2085 29.5398C25.1866 30.9992 24.4622 32.6457 24.0765 34.3851C23.6909 36.1245 23.6517 37.9228 23.9611 39.6774C24.2704 41.432 24.9224 43.1084 25.8797 44.611C26.8369 46.1137 28.0808 47.413 29.5402 48.4349C30.9997 49.4568 32.6461 50.1813 34.3855 50.5669C36.1249 50.9525 37.9232 50.9917 39.6778 50.6824L39.6778 50.6824Z" stroke="#0046FF" stroke-width="1.62804"/>
<path d="M37.3218 35.9648L37.3218 45.4617" stroke="#0046FF" stroke-width="1.62804" stroke-linecap="round"/>
<path d="M37.3218 33.2515L37.3218 31.8948" stroke="#0046FF" stroke-width="1.62804" stroke-linecap="round"/>
</svg>
