<svg width="9" height="18" viewBox="0 0 14 24" fill="none" xmlns="http://www.w3.org/2000/svg">
<path d="M0 11.9931C0 12.1681 0.0314005 12.3316 0.0942015 12.4836C0.157003 12.6356 0.251204 12.776 0.376807 12.905L11.0485 23.6132C11.2907 23.8618 11.5823 23.9861 11.9232 23.9861C12.1565 23.9861 12.3651 23.9309 12.549 23.8203C12.7329 23.7099 12.8809 23.5602 12.9931 23.3714C13.1052 23.1825 13.1613 22.9684 13.1613 22.7289C13.1613 22.388 13.0402 22.0886 12.7979 21.8307L3.00098 11.9931L12.7979 2.15544C13.0402 1.89752 13.1613 1.59816 13.1613 1.25734C13.1613 1.01785 13.1052 0.803684 12.9931 0.614852C12.8809 0.426022 12.7329 0.276339 12.549 0.165804C12.3651 0.0552679 12.1565 0 11.9232 0C11.5823 0 11.2907 0.119747 11.0485 0.35924L0.376807 11.0812C0.251204 11.2101 0.157003 11.3506 0.0942015 11.5026C0.0314005 11.6546 0 11.8181 0 11.9931Z" fill="white"/>
</svg>
