<svg width="19" height="19" viewBox="0 0 19 19" fill="none" xmlns="http://www.w3.org/2000/svg">
<path d="M3.16663 6.33329L2.60683 5.7735L2.04704 6.33329L2.60683 6.89309L3.16663 6.33329ZM15.0416 7.91663C15.0416 8.35385 15.3961 8.70829 15.8333 8.70829C16.2705 8.70829 16.625 8.35385 16.625 7.91663H15.0416ZM5.7735 2.60683L2.60683 5.7735L3.72642 6.89309L6.89309 3.72642L5.7735 2.60683ZM2.60683 6.89309L5.7735 10.0598L6.89309 8.94017L3.72642 5.7735L2.60683 6.89309ZM3.16663 7.12496H14.25V5.54163H3.16663V7.12496ZM14.25 7.12496C14.6872 7.12496 15.0416 7.4794 15.0416 7.91663H16.625C16.625 6.60495 15.5616 5.54163 14.25 5.54163V7.12496Z" fill="#2263FE"/>
<path d="M15.8334 12.6667L16.3932 12.1069L16.953 12.6667L16.3932 13.2265L15.8334 12.6667ZM3.95837 12.6667L3.95837 11.875H3.95837L3.95837 12.6667ZM1.58337 11.0833C1.58337 10.6461 1.93781 10.2917 2.37504 10.2917C2.81227 10.2917 3.16671 10.6461 3.16671 11.0833L1.58337 11.0833ZM13.2265 8.94021L16.3932 12.1069L15.2736 13.2265L12.1069 10.0598L13.2265 8.94021ZM16.3932 13.2265L13.2265 16.3931L12.1069 15.2735L15.2736 12.1069L16.3932 13.2265ZM15.8334 13.4583L3.95837 13.4583L3.95837 11.875L15.8334 11.875L15.8334 13.4583ZM3.95837 13.4583C2.6467 13.4583 1.58337 12.395 1.58337 11.0833L3.16671 11.0833C3.16671 11.5206 3.52115 11.875 3.95837 11.875L3.95837 13.4583Z" fill="#2263FE"/>
</svg>
