<svg xmlns="http://www.w3.org/2000/svg" width="12" height="8" viewBox="0 0 10 6" fill="none">
  <path d="M8.25412 1.05086L4.99237 3.87951L1.68 1.10508C1.52 0.964974 1.28 0.964974 1.12 1.10508C0.96 1.24518 0.96 1.45534 1.12 1.59545L1.05404 1.67061L1.05407 1.67064C1.05409 1.67065 1.05411 1.67067 1.05412 1.67068L4.93404 5.07517L4.9998 5.13286L5.06572 5.07537L8.94572 1.69183L8.94588 1.6917C9.04503 1.60487 9.1 1.49087 9.1 1.37128C9.1 1.25169 9.04503 1.13769 8.94588 1.05086C8.74824 0.877797 8.45205 0.877734 8.25434 1.05067C8.25426 1.05074 8.25419 1.0508 8.25412 1.05086Z" fill="#ACABAB" stroke="#ACABAB" stroke-width="0.2"/>
</svg>