<svg width="20" height="20" viewBox="0 0 20 20" fill="none" xmlns="http://www.w3.org/2000/svg">
<g id="Education">
<path id="Vector 57" d="M16.6666 10V14.1667C16.6666 15.738 16.6666 16.5237 16.1785 17.0118C15.6903 17.5 14.9047 17.5 13.3333 17.5H5.41664C4.26605 17.5 3.33331 16.5673 3.33331 15.4167V15.4167C3.33331 14.2661 4.26605 13.3333 5.41665 13.3333H13.3333C14.9047 13.3333 15.6903 13.3333 16.1785 12.8452C16.6666 12.357 16.6666 11.5713 16.6666 10V5.83333C16.6666 4.26198 16.6666 3.47631 16.1785 2.98816C15.6903 2.5 14.9047 2.5 13.3333 2.5H6.66664C5.0953 2.5 4.30962 2.5 3.82147 2.98816C3.33331 3.47631 3.33331 4.26198 3.33331 5.83333V15.4167" stroke="#344054" stroke-width="0.833333"/>
<path id="Vector 55" d="M7.5 6.66663L12.5 6.66663" stroke="#344054" stroke-width="0.833333" stroke-linecap="round"/>
</g>
</svg>
