<svg width="135" height="135" viewBox="0 0 135 135" fill="none" xmlns="http://www.w3.org/2000/svg">
<circle cx="67.3034" cy="71.2375" r="42.0241" fill="#F1F5FF"/>
<circle cx="27.913" cy="42.8619" r="2.63367" fill="#EAF0FF"/>
<circle cx="97.2349" cy="25.7407" r="4.9082" fill="#DDE7FF"/>
<circle cx="28.7518" cy="98.2952" r="4.66878" fill="#EAF0FF"/>
<circle cx="112.32" cy="93.7456" r="4.66878" fill="#EAF0FF"/>
<circle cx="103.222" cy="99.0138" r="2.27453" fill="#F1F5FF"/>
<path d="M114.514 79.3382L115.247 82.802L118.661 83.5459L115.247 84.2897L114.514 87.7535L113.781 84.2897L110.366 83.5459L113.781 82.802L114.514 79.3382Z" fill="white"/>
<path d="M110.128 43.969C110.182 43.7158 110.543 43.7158 110.597 43.969L111.064 46.1746C111.083 46.2668 111.155 46.339 111.247 46.359L113.436 46.8359C113.687 46.8907 113.687 47.2491 113.436 47.3038L111.247 47.7807C111.155 47.8008 111.083 47.873 111.064 47.9651L110.597 50.1708C110.543 50.4239 110.182 50.4239 110.128 50.1708L109.661 47.9651C109.642 47.873 109.57 47.8008 109.478 47.7807L107.289 47.3038C107.038 47.2491 107.038 46.8907 107.289 46.8359L109.478 46.359C109.57 46.339 109.642 46.2668 109.661 46.1746L110.128 43.969Z" fill="#B9C9F0"/>
<path d="M23.1772 72.9429C23.2308 72.6897 23.5922 72.6897 23.6457 72.9429L24.4462 76.7245C24.4657 76.8166 24.5374 76.8888 24.6295 76.9088L28.372 77.7241C28.6233 77.7789 28.6233 78.1373 28.372 78.1921L24.6295 79.0074C24.5374 79.0274 24.4657 79.0996 24.4462 79.1918L23.6457 82.9734C23.5922 83.2265 23.2308 83.2265 23.1772 82.9734L22.3768 79.1918C22.3573 79.0996 22.2855 79.0274 22.1935 79.0074L18.4509 78.1921C18.1996 78.1373 18.1996 77.7789 18.4509 77.7241L22.1935 76.9088C22.2855 76.8888 22.3573 76.8166 22.3768 76.7245L23.1772 72.9429Z" fill="#B9C9F0"/>
<path d="M38.0959 32.6947C37.9571 32.6652 37.9571 32.4671 38.0959 32.4375L40.1945 31.9913C40.2451 31.9805 40.2847 31.9411 40.2957 31.8905L40.7475 29.8067C40.7775 29.6685 40.9745 29.6685 41.0045 29.8067L41.4564 31.8905C41.4673 31.9411 41.5069 31.9805 41.5575 31.9913L43.6561 32.4375C43.795 32.4671 43.795 32.6652 43.6561 32.6947L41.5575 33.141C41.5069 33.1517 41.4673 33.1912 41.4564 33.2417L41.0045 35.3256C40.9745 35.4637 40.7775 35.4637 40.7475 35.3256L40.2957 33.2417C40.2847 33.1912 40.2451 33.1517 40.1945 33.141L38.0959 32.6947Z" fill="#B9C9F0"/>
<path d="M73.5 81V81C69.6761 82.5933 65.3596 82.5121 61.5983 80.7761L61 80.5" stroke="url(#paint0_linear_444_308)" stroke-width="5.08333"/>
<path d="M52.25 65.4167L49.7083 65.4167L49.7083 65.4167L52.25 65.4167ZM72.5896 90.2333L75.1307 90.2864L75.1307 90.2864L72.5896 90.2333ZM58.3598 77.6251L56.835 79.6586L58.3598 77.6251ZM60.2404 79.8681L57.8914 80.8388L60.2404 79.8681ZM59.6676 78.719L57.6591 80.2766L59.6676 78.719ZM62.4104 90.2333L59.8693 90.2864L62.4104 90.2333ZM76.6402 77.6251L75.1153 75.5917L76.6402 77.6251ZM74.7596 79.8681L77.1086 80.8388L74.7596 79.8681ZM75.3324 78.719L77.3409 80.2766L75.3324 78.719ZM80.2083 65.4167C80.2083 69.5764 78.2125 73.2692 75.1153 75.5917L78.165 79.6586C82.4872 76.4175 85.2917 71.2442 85.2917 65.4167H80.2083ZM67.5 52.7083C74.5186 52.7083 80.2083 58.398 80.2083 65.4167H85.2917C85.2917 55.5906 77.3261 47.625 67.5 47.625V52.7083ZM54.7917 65.4167C54.7917 58.398 60.4814 52.7083 67.5 52.7083V47.625C57.6739 47.625 49.7083 55.5906 49.7083 65.4167H54.7917ZM54.7917 65.4167C54.7917 65.4167 54.7917 65.4167 54.7917 65.4167C54.7917 65.4167 54.7917 65.4167 54.7917 65.4167C54.7917 65.4167 54.7917 65.4167 54.7917 65.4167C54.7917 65.4167 54.7917 65.4167 54.7917 65.4167C54.7917 65.4167 54.7917 65.4167 54.7917 65.4167C54.7917 65.4167 54.7917 65.4167 54.7917 65.4167C54.7917 65.4167 54.7917 65.4167 54.7917 65.4167C54.7917 65.4167 54.7917 65.4167 54.7917 65.4167C54.7917 65.4167 54.7917 65.4167 54.7917 65.4167C54.7917 65.4167 54.7917 65.4167 54.7917 65.4167C54.7917 65.4167 54.7917 65.4167 54.7917 65.4167C54.7917 65.4167 54.7917 65.4167 54.7917 65.4167C54.7917 65.4167 54.7917 65.4167 54.7917 65.4167C54.7917 65.4167 54.7917 65.4167 54.7917 65.4167C54.7917 65.4167 54.7917 65.4167 54.7917 65.4167C54.7917 65.4167 54.7917 65.4167 54.7917 65.4167C54.7917 65.4167 54.7917 65.4167 54.7917 65.4167C54.7917 65.4167 54.7917 65.4167 54.7917 65.4167C54.7917 65.4167 54.7917 65.4167 54.7917 65.4167C54.7917 65.4167 54.7917 65.4167 54.7917 65.4167C54.7917 65.4167 54.7917 65.4167 54.7917 65.4167C54.7917 65.4167 54.7917 65.4167 54.7917 65.4167C54.7917 65.4167 54.7917 65.4167 54.7917 65.4167C54.7917 65.4167 54.7917 65.4167 54.7917 65.4167C54.7917 65.4167 54.7917 65.4167 54.7917 65.4167C54.7917 65.4167 54.7917 65.4167 54.7917 65.4167C54.7917 65.4167 54.7917 65.4167 54.7917 65.4167C54.7917 65.4167 54.7917 65.4167 54.7917 65.4167C54.7917 65.4167 54.7917 65.4167 54.7917 65.4167C54.7917 65.4167 54.7917 65.4167 54.7917 65.4167C54.7917 65.4167 54.7917 65.4167 54.7917 65.4167C54.7917 65.4167 54.7917 65.4167 54.7917 65.4167C54.7917 65.4167 54.7917 65.4167 54.7917 65.4167C54.7917 65.4167 54.7917 65.4167 54.7917 65.4167C54.7917 65.4167 54.7917 65.4167 54.7917 65.4167C54.7917 65.4167 54.7917 65.4167 54.7917 65.4167C54.7917 65.4167 54.7917 65.4167 54.7917 65.4167C54.7917 65.4167 54.7917 65.4167 54.7917 65.4167C54.7917 65.4167 54.7917 65.4167 54.7917 65.4167C54.7917 65.4167 54.7917 65.4167 54.7917 65.4167C54.7917 65.4167 54.7917 65.4167 54.7917 65.4167C54.7917 65.4167 54.7917 65.4167 54.7917 65.4167C54.7917 65.4167 54.7917 65.4167 54.7917 65.4167C54.7917 65.4167 54.7917 65.4167 54.7917 65.4167C54.7917 65.4167 54.7917 65.4167 54.7917 65.4167C54.7917 65.4167 54.7917 65.4167 54.7917 65.4167C54.7917 65.4167 54.7917 65.4167 54.7917 65.4167C54.7917 65.4167 54.7917 65.4167 54.7917 65.4167C54.7917 65.4167 54.7917 65.4167 54.7917 65.4167C54.7917 65.4167 54.7917 65.4167 54.7917 65.4167C54.7917 65.4167 54.7917 65.4167 54.7917 65.4167C54.7917 65.4167 54.7917 65.4167 54.7917 65.4167C54.7917 65.4167 54.7917 65.4167 54.7917 65.4167C54.7917 65.4167 54.7917 65.4167 54.7917 65.4167C54.7917 65.4167 54.7917 65.4167 54.7917 65.4167C54.7917 65.4167 54.7917 65.4167 54.7917 65.4167C54.7917 65.4167 54.7917 65.4167 54.7917 65.4167C54.7917 65.4167 54.7917 65.4167 54.7917 65.4167C54.7917 65.4167 54.7917 65.4167 54.7917 65.4167C54.7917 65.4167 54.7917 65.4167 54.7917 65.4167C54.7917 65.4167 54.7917 65.4167 54.7917 65.4167C54.7917 65.4167 54.7917 65.4167 54.7917 65.4167C54.7917 65.4167 54.7917 65.4167 54.7917 65.4167C54.7917 65.4167 54.7917 65.4167 54.7917 65.4167C54.7917 65.4167 54.7917 65.4167 54.7917 65.4167C54.7917 65.4167 54.7917 65.4167 54.7917 65.4167C54.7917 65.4167 54.7917 65.4167 54.7917 65.4167C54.7917 65.4167 54.7917 65.4167 54.7917 65.4167C54.7917 65.4167 54.7917 65.4167 54.7917 65.4167C54.7917 65.4167 54.7917 65.4167 54.7917 65.4167C54.7917 65.4167 54.7917 65.4167 54.7917 65.4167C54.7917 65.4167 54.7917 65.4167 54.7917 65.4167C54.7917 65.4167 54.7917 65.4167 54.7917 65.4167C54.7917 65.4167 54.7917 65.4167 54.7917 65.4167C54.7917 65.4167 54.7917 65.4167 54.7917 65.4167C54.7917 65.4167 54.7917 65.4167 54.7917 65.4167C54.7917 65.4167 54.7917 65.4167 54.7917 65.4167C54.7917 65.4167 54.7917 65.4167 54.7917 65.4167C54.7917 65.4167 54.7917 65.4167 54.7917 65.4167C54.7917 65.4167 54.7917 65.4167 54.7917 65.4167C54.7917 65.4167 54.7917 65.4167 54.7917 65.4167C54.7917 65.4167 54.7917 65.4167 54.7917 65.4167C54.7917 65.4167 54.7917 65.4167 54.7917 65.4167C54.7917 65.4167 54.7917 65.4167 54.7917 65.4167C54.7917 65.4167 54.7917 65.4167 54.7917 65.4167C54.7917 65.4167 54.7917 65.4167 54.7917 65.4167C54.7917 65.4167 54.7917 65.4167 54.7917 65.4167C54.7917 65.4167 54.7917 65.4167 54.7917 65.4167C54.7917 65.4167 54.7917 65.4167 54.7917 65.4167C54.7917 65.4167 54.7917 65.4167 54.7917 65.4167C54.7917 65.4167 54.7917 65.4167 54.7917 65.4167C54.7917 65.4167 54.7917 65.4167 54.7917 65.4167C54.7917 65.4167 54.7917 65.4167 54.7917 65.4167C54.7917 65.4167 54.7917 65.4167 54.7917 65.4167C54.7917 65.4167 54.7917 65.4167 54.7917 65.4167C54.7917 65.4167 54.7917 65.4167 54.7917 65.4167C54.7917 65.4167 54.7917 65.4167 54.7917 65.4167C54.7917 65.4167 54.7917 65.4167 54.7917 65.4167C54.7917 65.4167 54.7917 65.4167 54.7917 65.4167C54.7917 65.4167 54.7917 65.4167 54.7917 65.4167C54.7917 65.4167 54.7917 65.4167 54.7917 65.4167C54.7917 65.4167 54.7917 65.4167 54.7917 65.4167C54.7917 65.4167 54.7917 65.4167 54.7917 65.4167C54.7917 65.4167 54.7917 65.4167 54.7917 65.4167C54.7917 65.4167 54.7917 65.4167 54.7917 65.4167C54.7917 65.4167 54.7917 65.4167 54.7917 65.4167C54.7917 65.4167 54.7917 65.4167 54.7917 65.4167C54.7917 65.4167 54.7917 65.4167 54.7917 65.4167C54.7917 65.4167 54.7917 65.4167 54.7917 65.4167C54.7917 65.4167 54.7917 65.4167 54.7917 65.4167C54.7917 65.4167 54.7917 65.4167 54.7917 65.4167C54.7917 65.4167 54.7917 65.4167 54.7917 65.4167C54.7917 65.4167 54.7917 65.4167 54.7917 65.4167C54.7917 65.4167 54.7917 65.4167 54.7917 65.4167C54.7917 65.4167 54.7917 65.4167 54.7917 65.4167C54.7917 65.4167 54.7917 65.4167 54.7917 65.4167C54.7917 65.4167 54.7917 65.4167 54.7917 65.4167C54.7917 65.4167 54.7917 65.4167 54.7917 65.4167C54.7917 65.4167 54.7917 65.4167 54.7917 65.4167C54.7917 65.4167 54.7917 65.4167 54.7917 65.4167C54.7917 65.4167 54.7917 65.4167 54.7917 65.4167C54.7917 65.4167 54.7917 65.4167 54.7917 65.4167C54.7917 65.4167 54.7917 65.4167 54.7917 65.4167C54.7917 65.4167 54.7917 65.4167 54.7917 65.4167C54.7917 65.4167 54.7917 65.4167 54.7917 65.4167C54.7917 65.4167 54.7917 65.4167 54.7917 65.4167C54.7917 65.4167 54.7917 65.4167 54.7917 65.4167C54.7917 65.4167 54.7917 65.4167 54.7917 65.4167C54.7917 65.4167 54.7917 65.4167 54.7917 65.4167C54.7917 65.4167 54.7917 65.4167 54.7917 65.4167C54.7917 65.4167 54.7917 65.4167 54.7917 65.4167C54.7917 65.4167 54.7917 65.4167 54.7917 65.4167C54.7917 65.4167 54.7917 65.4167 54.7917 65.4167C54.7917 65.4167 54.7917 65.4167 54.7917 65.4167C54.7917 65.4167 54.7917 65.4167 54.7917 65.4167C54.7917 65.4167 54.7917 65.4167 54.7917 65.4167C54.7917 65.4167 54.7917 65.4167 54.7917 65.4167C54.7917 65.4167 54.7917 65.4167 54.7917 65.4167C54.7917 65.4167 54.7917 65.4167 54.7917 65.4167C54.7917 65.4167 54.7917 65.4167 54.7917 65.4167C54.7917 65.4167 54.7917 65.4167 54.7917 65.4167C54.7917 65.4167 54.7917 65.4167 54.7917 65.4167C54.7917 65.4167 54.7917 65.4167 54.7917 65.4167C54.7917 65.4167 54.7917 65.4167 54.7917 65.4167C54.7917 65.4167 54.7917 65.4167 54.7917 65.4167C54.7917 65.4167 54.7917 65.4167 54.7917 65.4167C54.7917 65.4167 54.7917 65.4167 54.7917 65.4167C54.7917 65.4167 54.7917 65.4167 54.7917 65.4167C54.7917 65.4167 54.7917 65.4167 54.7917 65.4167C54.7917 65.4167 54.7917 65.4167 54.7917 65.4167C54.7917 65.4167 54.7917 65.4167 54.7917 65.4167C54.7917 65.4167 54.7917 65.4167 54.7917 65.4167C54.7917 65.4167 54.7917 65.4167 54.7917 65.4167C54.7917 65.4167 54.7917 65.4167 54.7917 65.4167C54.7917 65.4167 54.7917 65.4167 54.7917 65.4167C54.7917 65.4167 54.7917 65.4167 54.7917 65.4167C54.7917 65.4167 54.7917 65.4167 54.7917 65.4167C54.7917 65.4167 54.7917 65.4167 54.7917 65.4167C54.7917 65.4167 54.7917 65.4167 54.7917 65.4167C54.7917 65.4167 54.7917 65.4167 54.7917 65.4167C54.7917 65.4167 54.7917 65.4167 54.7917 65.4167C54.7917 65.4167 54.7917 65.4167 54.7917 65.4167C54.7917 65.4167 54.7917 65.4167 54.7917 65.4167C54.7917 65.4167 54.7917 65.4167 54.7917 65.4167C54.7917 65.4167 54.7917 65.4167 54.7917 65.4167C54.7917 65.4167 54.7917 65.4167 54.7917 65.4167C54.7917 65.4167 54.7917 65.4167 54.7917 65.4167C54.7917 65.4167 54.7917 65.4167 54.7917 65.4167C54.7917 65.4167 54.7917 65.4167 54.7917 65.4167C54.7917 65.4167 54.7917 65.4167 54.7917 65.4167C54.7917 65.4167 54.7917 65.4167 54.7917 65.4167C54.7917 65.4167 54.7917 65.4167 54.7917 65.4167C54.7917 65.4167 54.7917 65.4167 54.7917 65.4167C54.7917 65.4167 54.7917 65.4167 54.7917 65.4167C54.7917 65.4167 54.7917 65.4167 54.7917 65.4167C54.7917 65.4167 54.7917 65.4167 54.7917 65.4167C54.7917 65.4167 54.7917 65.4167 54.7917 65.4167C54.7917 65.4167 54.7917 65.4167 54.7917 65.4167C54.7917 65.4167 54.7917 65.4167 54.7917 65.4167C54.7917 65.4167 54.7917 65.4167 54.7917 65.4167C54.7917 65.4167 54.7917 65.4167 54.7917 65.4167C54.7917 65.4167 54.7917 65.4167 54.7917 65.4167C54.7917 65.4167 54.7917 65.4167 54.7917 65.4167C54.7917 65.4167 54.7917 65.4167 54.7917 65.4167C54.7917 65.4167 54.7917 65.4167 54.7917 65.4167C54.7917 65.4167 54.7917 65.4167 54.7917 65.4167C54.7917 65.4167 54.7917 65.4167 54.7917 65.4167C54.7917 65.4167 54.7917 65.4167 54.7917 65.4167C54.7917 65.4167 54.7917 65.4167 54.7917 65.4167C54.7917 65.4167 54.7917 65.4167 54.7917 65.4167C54.7917 65.4167 54.7917 65.4167 54.7917 65.4167C54.7917 65.4167 54.7917 65.4167 54.7917 65.4167C54.7917 65.4167 54.7917 65.4167 54.7917 65.4167C54.7917 65.4167 54.7917 65.4167 54.7917 65.4167C54.7917 65.4167 54.7917 65.4167 54.7917 65.4167C54.7917 65.4167 54.7917 65.4167 54.7917 65.4167C54.7917 65.4167 54.7917 65.4167 54.7917 65.4167C54.7917 65.4167 54.7917 65.4167 54.7917 65.4167C54.7917 65.4167 54.7917 65.4167 54.7917 65.4167C54.7917 65.4167 54.7917 65.4167 54.7917 65.4167C54.7917 65.4167 54.7917 65.4167 54.7917 65.4167C54.7917 65.4167 54.7917 65.4167 54.7917 65.4167C54.7917 65.4167 54.7917 65.4167 54.7917 65.4167C54.7917 65.4167 54.7917 65.4167 54.7917 65.4167C54.7917 65.4167 54.7917 65.4167 54.7917 65.4167C54.7917 65.4167 54.7917 65.4167 54.7917 65.4167C54.7917 65.4167 54.7917 65.4167 54.7917 65.4167C54.7917 65.4167 54.7917 65.4167 54.7917 65.4167C54.7917 65.4167 54.7917 65.4167 54.7917 65.4167C54.7917 65.4167 54.7917 65.4167 54.7917 65.4167C54.7917 65.4167 54.7917 65.4167 54.7917 65.4167C54.7917 65.4167 54.7917 65.4167 54.7917 65.4167C54.7917 65.4167 54.7917 65.4167 54.7917 65.4167C54.7917 65.4167 54.7917 65.4167 54.7917 65.4167C54.7917 65.4167 54.7917 65.4167 54.7917 65.4167C54.7917 65.4167 54.7917 65.4167 54.7917 65.4167C54.7917 65.4167 54.7917 65.4167 54.7917 65.4167C54.7917 65.4167 54.7917 65.4167 54.7917 65.4167C54.7917 65.4167 54.7917 65.4167 54.7917 65.4167C54.7917 65.4167 54.7917 65.4167 54.7917 65.4167C54.7917 65.4167 54.7917 65.4167 54.7917 65.4167C54.7917 65.4167 54.7917 65.4167 54.7917 65.4167C54.7917 65.4167 54.7917 65.4167 54.7917 65.4167C54.7917 65.4167 54.7917 65.4167 54.7917 65.4167C54.7917 65.4167 54.7917 65.4167 54.7917 65.4167C54.7917 65.4167 54.7917 65.4167 54.7917 65.4167C54.7917 65.4167 54.7917 65.4167 54.7917 65.4167C54.7917 65.4167 54.7917 65.4167 54.7917 65.4167C54.7917 65.4167 54.7917 65.4167 54.7917 65.4167C54.7917 65.4167 54.7917 65.4167 54.7917 65.4167C54.7917 65.4167 54.7917 65.4167 54.7917 65.4167C54.7917 65.4167 54.7917 65.4167 54.7917 65.4167C54.7917 65.4167 54.7917 65.4167 54.7917 65.4167C54.7917 65.4167 54.7917 65.4167 54.7917 65.4167C54.7917 65.4167 54.7917 65.4167 54.7917 65.4167C54.7917 65.4167 54.7917 65.4167 54.7917 65.4167C54.7917 65.4167 54.7917 65.4167 54.7917 65.4167C54.7917 65.4167 54.7917 65.4167 54.7917 65.4167C54.7917 65.4167 54.7917 65.4167 54.7917 65.4167C54.7917 65.4167 54.7917 65.4167 54.7917 65.4167C54.7917 65.4167 54.7917 65.4167 54.7917 65.4167C54.7917 65.4167 54.7917 65.4167 54.7917 65.4167C54.7917 65.4167 54.7917 65.4167 54.7917 65.4167C54.7917 65.4167 54.7917 65.4167 54.7917 65.4167C54.7917 65.4167 54.7917 65.4167 54.7917 65.4167C54.7917 65.4167 54.7917 65.4167 54.7917 65.4167C54.7917 65.4167 54.7917 65.4167 54.7917 65.4167C54.7917 65.4167 54.7917 65.4167 54.7917 65.4167C54.7917 65.4167 54.7917 65.4167 54.7917 65.4167C54.7917 65.4167 54.7917 65.4167 54.7917 65.4167C54.7917 65.4167 54.7917 65.4167 54.7917 65.4167C54.7917 65.4167 54.7917 65.4167 54.7917 65.4167C54.7917 65.4167 54.7917 65.4167 54.7917 65.4167C54.7917 65.4167 54.7917 65.4167 54.7917 65.4167C54.7917 65.4167 54.7917 65.4167 54.7917 65.4167C54.7917 65.4167 54.7917 65.4167 54.7917 65.4167C54.7917 65.4167 54.7917 65.4167 54.7917 65.4167C54.7917 65.4167 54.7917 65.4167 54.7917 65.4167C54.7917 65.4167 54.7917 65.4167 54.7917 65.4167C54.7917 65.4167 54.7917 65.4167 54.7917 65.4167C54.7917 65.4167 54.7917 65.4167 54.7917 65.4167C54.7917 65.4167 54.7917 65.4167 54.7917 65.4167C54.7917 65.4167 54.7917 65.4167 54.7917 65.4167C54.7917 65.4167 54.7917 65.4167 54.7917 65.4167C54.7917 65.4167 54.7917 65.4167 54.7917 65.4167C54.7917 65.4167 54.7917 65.4167 54.7917 65.4167C54.7917 65.4167 54.7917 65.4167 54.7917 65.4167C54.7917 65.4167 54.7917 65.4167 54.7917 65.4167C54.7917 65.4167 54.7917 65.4167 54.7917 65.4167C54.7917 65.4167 54.7917 65.4167 54.7917 65.4167C54.7917 65.4167 54.7917 65.4167 54.7917 65.4167C54.7917 65.4167 54.7917 65.4167 54.7917 65.4167C54.7917 65.4167 54.7917 65.4167 54.7917 65.4167C54.7917 65.4167 54.7917 65.4167 54.7917 65.4167C54.7917 65.4167 54.7917 65.4167 54.7917 65.4167C54.7917 65.4167 54.7917 65.4167 54.7917 65.4167C54.7917 65.4167 54.7917 65.4167 54.7917 65.4167C54.7917 65.4167 54.7917 65.4167 54.7917 65.4167C54.7917 65.4167 54.7917 65.4167 54.7917 65.4167C54.7917 65.4167 54.7917 65.4167 54.7917 65.4167C54.7917 65.4167 54.7917 65.4167 54.7917 65.4167C54.7917 65.4167 54.7917 65.4167 54.7917 65.4167C54.7917 65.4167 54.7917 65.4167 54.7917 65.4167C54.7917 65.4167 54.7917 65.4167 54.7917 65.4167C54.7917 65.4167 54.7917 65.4167 54.7917 65.4167C54.7917 65.4167 54.7917 65.4167 54.7917 65.4167C54.7917 65.4167 54.7917 65.4167 54.7917 65.4167C54.7917 65.4167 54.7917 65.4167 54.7917 65.4167C54.7917 65.4167 54.7917 65.4167 54.7917 65.4167C54.7917 65.4167 54.7917 65.4167 54.7917 65.4167C54.7917 65.4167 54.7917 65.4167 54.7917 65.4167C54.7917 65.4167 54.7917 65.4167 54.7917 65.4167C54.7917 65.4167 54.7917 65.4167 54.7917 65.4167C54.7917 65.4167 54.7917 65.4167 54.7917 65.4167C54.7917 65.4167 54.7917 65.4167 54.7917 65.4167C54.7917 65.4167 54.7917 65.4167 54.7917 65.4167C54.7917 65.4167 54.7917 65.4167 54.7917 65.4167C54.7917 65.4167 54.7917 65.4167 54.7917 65.4167C54.7917 65.4167 54.7917 65.4167 54.7917 65.4167C54.7917 65.4167 54.7917 65.4167 54.7917 65.4167C54.7917 65.4167 54.7917 65.4167 54.7917 65.4167C54.7917 65.4167 54.7917 65.4167 54.7917 65.4167C54.7917 65.4167 54.7917 65.4167 54.7917 65.4167C54.7917 65.4167 54.7917 65.4167 54.7917 65.4167C54.7917 65.4167 54.7917 65.4167 54.7917 65.4167C54.7917 65.4167 54.7917 65.4167 54.7917 65.4167C54.7917 65.4167 54.7917 65.4167 54.7917 65.4167C54.7917 65.4167 54.7917 65.4167 54.7917 65.4167C54.7917 65.4167 54.7917 65.4167 54.7917 65.4167C54.7917 65.4167 54.7917 65.4167 54.7917 65.4167C54.7917 65.4167 54.7917 65.4167 54.7917 65.4167C54.7917 65.4167 54.7917 65.4167 54.7917 65.4167C54.7917 65.4167 54.7917 65.4167 54.7917 65.4167C54.7917 65.4167 54.7917 65.4167 54.7917 65.4167C54.7917 65.4167 54.7917 65.4167 54.7917 65.4167C54.7917 65.4167 54.7917 65.4167 54.7917 65.4167C54.7917 65.4167 54.7917 65.4167 54.7917 65.4167C54.7917 65.4167 54.7917 65.4167 54.7917 65.4167C54.7917 65.4167 54.7917 65.4167 54.7917 65.4167C54.7917 65.4167 54.7917 65.4167 54.7917 65.4167C54.7917 65.4167 54.7917 65.4167 54.7917 65.4167C54.7917 65.4167 54.7917 65.4167 54.7917 65.4167C54.7917 65.4167 54.7917 65.4167 54.7917 65.4167C54.7917 65.4167 54.7917 65.4167 54.7917 65.4167C54.7917 65.4167 54.7917 65.4167 54.7917 65.4167C54.7917 65.4167 54.7917 65.4167 54.7917 65.4167C54.7917 65.4167 54.7917 65.4167 54.7917 65.4167C54.7917 65.4167 54.7917 65.4167 54.7917 65.4167C54.7917 65.4167 54.7917 65.4167 54.7917 65.4167C54.7917 65.4167 54.7917 65.4167 54.7917 65.4167C54.7917 65.4167 54.7917 65.4167 54.7917 65.4167C54.7917 65.4167 54.7917 65.4167 54.7917 65.4167C54.7917 65.4167 54.7917 65.4167 54.7917 65.4167C54.7917 65.4167 54.7917 65.4167 54.7917 65.4167C54.7917 65.4167 54.7917 65.4167 54.7917 65.4167C54.7917 65.4167 54.7917 65.4167 54.7917 65.4167C54.7917 65.4167 54.7917 65.4167 54.7917 65.4167C54.7917 65.4167 54.7917 65.4167 54.7917 65.4167C54.7917 65.4167 54.7917 65.4167 54.7917 65.4167C54.7917 65.4167 54.7917 65.4167 54.7917 65.4167C54.7917 65.4167 54.7917 65.4167 54.7917 65.4167C54.7917 65.4167 54.7917 65.4167 54.7917 65.4167C54.7917 65.4167 54.7917 65.4167 54.7917 65.4167C54.7917 65.4167 54.7917 65.4167 54.7917 65.4167C54.7917 65.4167 54.7917 65.4167 54.7917 65.4167C54.7917 65.4167 54.7917 65.4167 54.7917 65.4167C54.7917 65.4167 54.7917 65.4167 54.7917 65.4167C54.7917 65.4167 54.7917 65.4167 54.7917 65.4167C54.7917 65.4167 54.7917 65.4167 54.7917 65.4167C54.7917 65.4167 54.7917 65.4167 54.7917 65.4167C54.7917 65.4167 54.7917 65.4167 54.7917 65.4167C54.7917 65.4167 54.7917 65.4167 54.7917 65.4167C54.7917 65.4167 54.7917 65.4167 54.7917 65.4167C54.7917 65.4167 54.7917 65.4167 54.7917 65.4167C54.7917 65.4167 54.7917 65.4167 54.7917 65.4167C54.7917 65.4167 54.7917 65.4167 54.7917 65.4167C54.7917 65.4167 54.7917 65.4167 54.7917 65.4167C54.7917 65.4167 54.7917 65.4167 54.7917 65.4167C54.7917 65.4167 54.7917 65.4167 54.7917 65.4167C54.7917 65.4167 54.7917 65.4167 54.7917 65.4167C54.7917 65.4167 54.7917 65.4167 54.7917 65.4167C54.7917 65.4167 54.7917 65.4167 54.7917 65.4167C54.7917 65.4167 54.7917 65.4167 54.7917 65.4167C54.7917 65.4167 54.7917 65.4167 54.7917 65.4167C54.7917 65.4167 54.7917 65.4167 54.7917 65.4167C54.7917 65.4167 54.7917 65.4167 54.7917 65.4167C54.7917 65.4167 54.7917 65.4167 54.7917 65.4167C54.7917 65.4167 54.7917 65.4167 54.7917 65.4167C54.7917 65.4167 54.7917 65.4167 54.7917 65.4167C54.7917 65.4167 54.7917 65.4167 54.7917 65.4167C54.7917 65.4167 54.7917 65.4167 54.7917 65.4167C54.7917 65.4167 54.7917 65.4167 54.7917 65.4167C54.7917 65.4167 54.7917 65.4167 54.7917 65.4167C54.7917 65.4167 54.7917 65.4167 54.7917 65.4167C54.7917 65.4167 54.7917 65.4167 54.7917 65.4167C54.7917 65.4167 54.7917 65.4167 54.7917 65.4167C54.7917 65.4167 54.7917 65.4167 54.7917 65.4167C54.7917 65.4167 54.7917 65.4167 54.7917 65.4167C54.7917 65.4167 54.7917 65.4167 54.7917 65.4167C54.7917 65.4167 54.7917 65.4167 54.7917 65.4167C54.7917 65.4167 54.7917 65.4167 54.7917 65.4167C54.7917 65.4167 54.7917 65.4167 54.7917 65.4167C54.7917 65.4167 54.7917 65.4167 54.7917 65.4167C54.7917 65.4167 54.7917 65.4167 54.7917 65.4167C54.7917 65.4167 54.7917 65.4167 54.7917 65.4167C54.7917 65.4167 54.7917 65.4167 54.7917 65.4167C54.7917 65.4167 54.7917 65.4167 54.7917 65.4167C54.7917 65.4167 54.7917 65.4167 54.7917 65.4167C54.7917 65.4167 54.7917 65.4167 54.7917 65.4167C54.7917 65.4167 54.7917 65.4167 54.7917 65.4167C54.7917 65.4167 54.7917 65.4167 54.7917 65.4167C54.7917 65.4167 54.7917 65.4167 54.7917 65.4167C54.7917 65.4167 54.7917 65.4167 54.7917 65.4167C54.7917 65.4167 54.7917 65.4167 54.7917 65.4167C54.7917 65.4167 54.7917 65.4167 54.7917 65.4167C54.7917 65.4167 54.7917 65.4167 54.7917 65.4167C54.7917 65.4167 54.7917 65.4167 54.7917 65.4167C54.7917 65.4167 54.7917 65.4167 54.7917 65.4167C54.7917 65.4167 54.7917 65.4167 54.7917 65.4167C54.7917 65.4167 54.7917 65.4167 54.7917 65.4167C54.7917 65.4167 54.7917 65.4167 54.7917 65.4167C54.7917 65.4167 54.7917 65.4167 54.7917 65.4167C54.7917 65.4167 54.7917 65.4167 54.7917 65.4167C54.7917 65.4167 54.7917 65.4167 54.7917 65.4167C54.7917 65.4167 54.7917 65.4167 54.7917 65.4167C54.7917 65.4167 54.7917 65.4167 54.7917 65.4167C54.7917 65.4167 54.7917 65.4167 54.7917 65.4167C54.7917 65.4167 54.7917 65.4167 54.7917 65.4167C54.7917 65.4167 54.7917 65.4167 54.7917 65.4167C54.7917 65.4167 54.7917 65.4167 54.7917 65.4167C54.7917 65.4167 54.7917 65.4167 54.7917 65.4167C54.7917 65.4167 54.7917 65.4167 54.7917 65.4167C54.7917 65.4167 54.7917 65.4167 54.7917 65.4167C54.7917 65.4167 54.7917 65.4167 54.7917 65.4167C54.7917 65.4167 54.7917 65.4167 54.7917 65.4167C54.7917 65.4167 54.7917 65.4167 54.7917 65.4167C54.7917 65.4167 54.7917 65.4167 54.7917 65.4167C54.7917 65.4167 54.7917 65.4167 54.7917 65.4167C54.7917 65.4167 54.7917 65.4167 54.7917 65.4167C54.7917 65.4167 54.7917 65.4167 54.7917 65.4167C54.7917 65.4167 54.7917 65.4167 54.7917 65.4167C54.7917 65.4167 54.7917 65.4167 54.7917 65.4167C54.7917 65.4167 54.7917 65.4167 54.7917 65.4167C54.7917 65.4167 54.7917 65.4167 54.7917 65.4167C54.7917 65.4167 54.7917 65.4167 54.7917 65.4167C54.7917 65.4167 54.7917 65.4167 54.7917 65.4167C54.7917 65.4167 54.7917 65.4167 54.7917 65.4167C54.7917 65.4167 54.7917 65.4167 54.7917 65.4167C54.7917 65.4167 54.7917 65.4167 54.7917 65.4167C54.7917 65.4167 54.7917 65.4167 54.7917 65.4167C54.7917 65.4167 54.7917 65.4167 54.7917 65.4167C54.7917 65.4167 54.7917 65.4167 54.7917 65.4167C54.7917 65.4167 54.7917 65.4167 54.7917 65.4167C54.7917 65.4167 54.7917 65.4167 54.7917 65.4167C54.7917 65.4167 54.7917 65.4167 54.7917 65.4167C54.7917 65.4167 54.7917 65.4167 54.7917 65.4167C54.7917 65.4167 54.7917 65.4167 54.7917 65.4167C54.7917 65.4167 54.7917 65.4167 54.7917 65.4167C54.7917 65.4167 54.7917 65.4167 54.7917 65.4167C54.7917 65.4167 54.7917 65.4167 54.7917 65.4167C54.7917 65.4167 54.7917 65.4167 54.7917 65.4167C54.7917 65.4167 54.7917 65.4167 54.7917 65.4167C54.7917 65.4167 54.7917 65.4167 54.7917 65.4167C54.7917 65.4167 54.7917 65.4167 54.7917 65.4167C54.7917 65.4167 54.7917 65.4167 54.7917 65.4167C54.7917 65.4167 54.7917 65.4167 54.7917 65.4167C54.7917 65.4167 54.7917 65.4167 54.7917 65.4167C54.7917 65.4167 54.7917 65.4167 54.7917 65.4167C54.7917 65.4167 54.7917 65.4167 54.7917 65.4167C54.7917 65.4167 54.7917 65.4167 54.7917 65.4167C54.7917 65.4167 54.7917 65.4167 54.7917 65.4167C54.7917 65.4167 54.7917 65.4167 54.7917 65.4167C54.7917 65.4167 54.7917 65.4167 54.7917 65.4167C54.7917 65.4167 54.7917 65.4167 54.7917 65.4167C54.7917 65.4167 54.7917 65.4167 54.7917 65.4167C54.7917 65.4167 54.7917 65.4167 54.7917 65.4167C54.7917 65.4167 54.7917 65.4167 54.7917 65.4167C54.7917 65.4167 54.7917 65.4167 54.7917 65.4167C54.7917 65.4167 54.7917 65.4167 54.7917 65.4167C54.7917 65.4167 54.7917 65.4167 54.7917 65.4167C54.7917 65.4167 54.7917 65.4167 54.7917 65.4167C54.7917 65.4167 54.7917 65.4167 54.7917 65.4167C54.7917 65.4167 54.7917 65.4167 54.7917 65.4167C54.7917 65.4167 54.7917 65.4167 54.7917 65.4167C54.7917 65.4167 54.7917 65.4167 54.7917 65.4167C54.7917 65.4167 54.7917 65.4167 54.7917 65.4167C54.7917 65.4167 54.7917 65.4167 54.7917 65.4167C54.7917 65.4167 54.7917 65.4167 54.7917 65.4167C54.7917 65.4167 54.7917 65.4167 54.7917 65.4167C54.7917 65.4167 54.7917 65.4167 54.7917 65.4167C54.7917 65.4167 54.7917 65.4167 54.7917 65.4167C54.7917 65.4167 54.7917 65.4167 54.7917 65.4167C54.7917 65.4167 54.7917 65.4167 54.7917 65.4167C54.7917 65.4167 54.7917 65.4167 54.7917 65.4167C54.7917 65.4167 54.7917 65.4167 54.7917 65.4167C54.7917 65.4167 54.7917 65.4167 54.7917 65.4167C54.7917 65.4167 54.7917 65.4167 54.7917 65.4167C54.7917 65.4167 54.7917 65.4167 54.7917 65.4167C54.7917 65.4167 54.7917 65.4167 54.7917 65.4167C54.7917 65.4167 54.7917 65.4167 54.7917 65.4167C54.7917 65.4167 54.7917 65.4167 54.7917 65.4167C54.7917 65.4167 54.7917 65.4167 54.7917 65.4167C54.7917 65.4167 54.7917 65.4167 54.7917 65.4167C54.7917 65.4167 54.7917 65.4167 54.7917 65.4167C54.7917 65.4167 54.7917 65.4167 54.7917 65.4167C54.7917 65.4167 54.7917 65.4167 54.7917 65.4167C54.7917 65.4167 54.7917 65.4167 54.7917 65.4167C54.7917 65.4167 54.7917 65.4167 54.7917 65.4167C54.7917 65.4167 54.7917 65.4167 54.7917 65.4167C54.7917 65.4167 54.7917 65.4167 54.7917 65.4167C54.7917 65.4167 54.7917 65.4167 54.7917 65.4167C54.7917 65.4167 54.7917 65.4167 54.7917 65.4167C54.7917 65.4167 54.7917 65.4167 54.7917 65.4167C54.7917 65.4167 54.7917 65.4167 54.7917 65.4167C54.7917 65.4167 54.7917 65.4167 54.7917 65.4167C54.7917 65.4167 54.7917 65.4167 54.7917 65.4167C54.7917 65.4167 54.7917 65.4167 54.7917 65.4167C54.7917 65.4167 54.7917 65.4167 54.7917 65.4167C54.7917 65.4167 54.7917 65.4167 54.7917 65.4167C54.7917 65.4167 54.7917 65.4167 54.7917 65.4167C54.7917 65.4167 54.7917 65.4167 54.7917 65.4167C54.7917 65.4167 54.7917 65.4167 54.7917 65.4167C54.7917 65.4167 54.7917 65.4167 54.7917 65.4167C54.7917 65.4167 54.7917 65.4167 54.7917 65.4167C54.7917 65.4167 54.7917 65.4167 54.7917 65.4167C54.7917 65.4167 54.7917 65.4167 54.7917 65.4167C54.7917 65.4167 54.7917 65.4167 54.7917 65.4167C54.7917 65.4167 54.7917 65.4167 54.7917 65.4167C54.7917 65.4167 54.7917 65.4167 54.7917 65.4167C54.7917 65.4167 54.7917 65.4167 54.7917 65.4167C54.7917 65.4167 54.7917 65.4167 54.7917 65.4167C54.7917 65.4167 54.7917 65.4167 54.7917 65.4167H49.7083C49.7083 65.4167 49.7083 65.4167 49.7083 65.4167C49.7083 65.4167 49.7083 65.4167 49.7083 65.4167C49.7083 65.4167 49.7083 65.4167 49.7083 65.4167C49.7083 65.4167 49.7083 65.4167 49.7083 65.4167C49.7083 65.4167 49.7083 65.4167 49.7083 65.4167C49.7083 65.4167 49.7083 65.4167 49.7083 65.4167C49.7083 65.4167 49.7083 65.4167 49.7083 65.4167C49.7083 65.4167 49.7083 65.4167 49.7083 65.4167C49.7083 65.4167 49.7083 65.4167 49.7083 65.4167C49.7083 65.4167 49.7083 65.4167 49.7083 65.4167C49.7083 65.4167 49.7083 65.4167 49.7083 65.4167C49.7083 65.4167 49.7083 65.4167 49.7083 65.4167C49.7083 65.4167 49.7083 65.4167 49.7083 65.4167C49.7083 65.4167 49.7083 65.4167 49.7083 65.4167C49.7083 65.4167 49.7083 65.4167 49.7083 65.4167C49.7083 65.4167 49.7083 65.4167 49.7083 65.4167C49.7083 65.4167 49.7083 65.4167 49.7083 65.4167C49.7083 65.4167 49.7083 65.4167 49.7083 65.4167C49.7083 65.4167 49.7083 65.4167 49.7083 65.4167C49.7083 65.4167 49.7083 65.4167 49.7083 65.4167C49.7083 65.4167 49.7083 65.4167 49.7083 65.4167C49.7083 65.4167 49.7083 65.4167 49.7083 65.4167C49.7083 65.4167 49.7083 65.4167 49.7083 65.4167C49.7083 65.4167 49.7083 65.4167 49.7083 65.4167C49.7083 65.4167 49.7083 65.4167 49.7083 65.4167C49.7083 65.4167 49.7083 65.4167 49.7083 65.4167C49.7083 65.4167 49.7083 65.4167 49.7083 65.4167C49.7083 65.4167 49.7083 65.4167 49.7083 65.4167C49.7083 65.4167 49.7083 65.4167 49.7083 65.4167C49.7083 65.4167 49.7083 65.4167 49.7083 65.4167C49.7083 65.4167 49.7083 65.4167 49.7083 65.4167C49.7083 65.4167 49.7083 65.4167 49.7083 65.4167C49.7083 65.4167 49.7083 65.4167 49.7083 65.4167C49.7083 65.4167 49.7083 65.4167 49.7083 65.4167C49.7083 65.4167 49.7083 65.4167 49.7083 65.4167C49.7083 65.4167 49.7083 65.4167 49.7083 65.4167C49.7083 65.4167 49.7083 65.4167 49.7083 65.4167C49.7083 65.4167 49.7083 65.4167 49.7083 65.4167C49.7083 65.4167 49.7083 65.4167 49.7083 65.4167C49.7083 65.4167 49.7083 65.4167 49.7083 65.4167C49.7083 65.4167 49.7083 65.4167 49.7083 65.4167C49.7083 65.4167 49.7083 65.4167 49.7083 65.4167C49.7083 65.4167 49.7083 65.4167 49.7083 65.4167C49.7083 65.4167 49.7083 65.4167 49.7083 65.4167C49.7083 65.4167 49.7083 65.4167 49.7083 65.4167C49.7083 65.4167 49.7083 65.4167 49.7083 65.4167C49.7083 65.4167 49.7083 65.4167 49.7083 65.4167C49.7083 65.4167 49.7083 65.4167 49.7083 65.4167C49.7083 65.4167 49.7083 65.4167 49.7083 65.4167C49.7083 65.4167 49.7083 65.4167 49.7083 65.4167C49.7083 65.4167 49.7083 65.4167 49.7083 65.4167C49.7083 65.4167 49.7083 65.4167 49.7083 65.4167C49.7083 65.4167 49.7083 65.4167 49.7083 65.4167C49.7083 65.4167 49.7083 65.4167 49.7083 65.4167C49.7083 65.4167 49.7083 65.4167 49.7083 65.4167C49.7083 65.4167 49.7083 65.4167 49.7083 65.4167C49.7083 65.4167 49.7083 65.4167 49.7083 65.4167C49.7083 65.4167 49.7083 65.4167 49.7083 65.4167C49.7083 65.4167 49.7083 65.4167 49.7083 65.4167C49.7083 65.4167 49.7083 65.4167 49.7083 65.4167C49.7083 65.4167 49.7083 65.4167 49.7083 65.4167C49.7083 65.4167 49.7083 65.4167 49.7083 65.4167C49.7083 65.4167 49.7083 65.4167 49.7083 65.4167C49.7083 65.4167 49.7083 65.4167 49.7083 65.4167C49.7083 65.4167 49.7083 65.4167 49.7083 65.4167C49.7083 65.4167 49.7083 65.4167 49.7083 65.4167C49.7083 65.4167 49.7083 65.4167 49.7083 65.4167C49.7083 65.4167 49.7083 65.4167 49.7083 65.4167C49.7083 65.4167 49.7083 65.4167 49.7083 65.4167C49.7083 65.4167 49.7083 65.4167 49.7083 65.4167C49.7083 65.4167 49.7083 65.4167 49.7083 65.4167C49.7083 65.4167 49.7083 65.4167 49.7083 65.4167C49.7083 65.4167 49.7083 65.4167 49.7083 65.4167C49.7083 65.4167 49.7083 65.4167 49.7083 65.4167C49.7083 65.4167 49.7083 65.4167 49.7083 65.4167C49.7083 65.4167 49.7083 65.4167 49.7083 65.4167C49.7083 65.4167 49.7083 65.4167 49.7083 65.4167C49.7083 65.4167 49.7083 65.4167 49.7083 65.4167C49.7083 65.4167 49.7083 65.4167 49.7083 65.4167C49.7083 65.4167 49.7083 65.4167 49.7083 65.4167C49.7083 65.4167 49.7083 65.4167 49.7083 65.4167C49.7083 65.4167 49.7083 65.4167 49.7083 65.4167C49.7083 65.4167 49.7083 65.4167 49.7083 65.4167C49.7083 65.4167 49.7083 65.4167 49.7083 65.4167C49.7083 65.4167 49.7083 65.4167 49.7083 65.4167C49.7083 65.4167 49.7083 65.4167 49.7083 65.4167C49.7083 65.4167 49.7083 65.4167 49.7083 65.4167C49.7083 65.4167 49.7083 65.4167 49.7083 65.4167C49.7083 65.4167 49.7083 65.4167 49.7083 65.4167C49.7083 65.4167 49.7083 65.4167 49.7083 65.4167C49.7083 65.4167 49.7083 65.4167 49.7083 65.4167C49.7083 65.4167 49.7083 65.4167 49.7083 65.4167C49.7083 65.4167 49.7083 65.4167 49.7083 65.4167C49.7083 65.4167 49.7083 65.4167 49.7083 65.4167C49.7083 65.4167 49.7083 65.4167 49.7083 65.4167C49.7083 65.4167 49.7083 65.4167 49.7083 65.4167C49.7083 65.4167 49.7083 65.4167 49.7083 65.4167C49.7083 65.4167 49.7083 65.4167 49.7083 65.4167C49.7083 65.4167 49.7083 65.4167 49.7083 65.4167C49.7083 65.4167 49.7083 65.4167 49.7083 65.4167C49.7083 65.4167 49.7083 65.4167 49.7083 65.4167C49.7083 65.4167 49.7083 65.4167 49.7083 65.4167C49.7083 65.4167 49.7083 65.4167 49.7083 65.4167C49.7083 65.4167 49.7083 65.4167 49.7083 65.4167C49.7083 65.4167 49.7083 65.4167 49.7083 65.4167C49.7083 65.4167 49.7083 65.4167 49.7083 65.4167C49.7083 65.4167 49.7083 65.4167 49.7083 65.4167C49.7083 65.4167 49.7083 65.4167 49.7083 65.4167C49.7083 65.4167 49.7083 65.4167 49.7083 65.4167C49.7083 65.4167 49.7083 65.4167 49.7083 65.4167C49.7083 65.4167 49.7083 65.4167 49.7083 65.4167C49.7083 65.4167 49.7083 65.4167 49.7083 65.4167C49.7083 65.4167 49.7083 65.4167 49.7083 65.4167C49.7083 65.4167 49.7083 65.4167 49.7083 65.4167C49.7083 65.4167 49.7083 65.4167 49.7083 65.4167C49.7083 65.4167 49.7083 65.4167 49.7083 65.4167C49.7083 65.4167 49.7083 65.4167 49.7083 65.4167C49.7083 65.4167 49.7083 65.4167 49.7083 65.4167C49.7083 65.4167 49.7083 65.4167 49.7083 65.4167C49.7083 65.4167 49.7083 65.4167 49.7083 65.4167C49.7083 65.4167 49.7083 65.4167 49.7083 65.4167C49.7083 65.4167 49.7083 65.4167 49.7083 65.4167C49.7083 65.4167 49.7083 65.4167 49.7083 65.4167C49.7083 65.4167 49.7083 65.4167 49.7083 65.4167C49.7083 65.4167 49.7083 65.4167 49.7083 65.4167C49.7083 65.4167 49.7083 65.4167 49.7083 65.4167C49.7083 65.4167 49.7083 65.4167 49.7083 65.4167C49.7083 65.4167 49.7083 65.4167 49.7083 65.4167C49.7083 65.4167 49.7083 65.4167 49.7083 65.4167C49.7083 65.4167 49.7083 65.4167 49.7083 65.4167C49.7083 65.4167 49.7083 65.4167 49.7083 65.4167C49.7083 65.4167 49.7083 65.4167 49.7083 65.4167C49.7083 65.4167 49.7083 65.4167 49.7083 65.4167C49.7083 65.4167 49.7083 65.4167 49.7083 65.4167C49.7083 65.4167 49.7083 65.4167 49.7083 65.4167C49.7083 65.4167 49.7083 65.4167 49.7083 65.4167C49.7083 65.4167 49.7083 65.4167 49.7083 65.4167C49.7083 65.4167 49.7083 65.4167 49.7083 65.4167C49.7083 65.4167 49.7083 65.4167 49.7083 65.4167C49.7083 65.4167 49.7083 65.4167 49.7083 65.4167C49.7083 65.4167 49.7083 65.4167 49.7083 65.4167C49.7083 65.4167 49.7083 65.4167 49.7083 65.4167C49.7083 65.4167 49.7083 65.4167 49.7083 65.4167C49.7083 65.4167 49.7083 65.4167 49.7083 65.4167C49.7083 65.4167 49.7083 65.4167 49.7083 65.4167C49.7083 65.4167 49.7083 65.4167 49.7083 65.4167C49.7083 65.4167 49.7083 65.4167 49.7083 65.4167C49.7083 65.4167 49.7083 65.4167 49.7083 65.4167C49.7083 65.4167 49.7083 65.4167 49.7083 65.4167C49.7083 65.4167 49.7083 65.4167 49.7083 65.4167C49.7083 65.4167 49.7083 65.4167 49.7083 65.4167C49.7083 65.4167 49.7083 65.4167 49.7083 65.4167C49.7083 65.4167 49.7083 65.4167 49.7083 65.4167C49.7083 65.4167 49.7083 65.4167 49.7083 65.4167C49.7083 65.4167 49.7083 65.4167 49.7083 65.4167C49.7083 65.4167 49.7083 65.4167 49.7083 65.4167C49.7083 65.4167 49.7083 65.4167 49.7083 65.4167C49.7083 65.4167 49.7083 65.4167 49.7083 65.4167C49.7083 65.4167 49.7083 65.4167 49.7083 65.4167C49.7083 65.4167 49.7083 65.4167 49.7083 65.4167C49.7083 65.4167 49.7083 65.4167 49.7083 65.4167C49.7083 65.4167 49.7083 65.4167 49.7083 65.4167C49.7083 65.4167 49.7083 65.4167 49.7083 65.4167C49.7083 65.4167 49.7083 65.4167 49.7083 65.4167C49.7083 65.4167 49.7083 65.4167 49.7083 65.4167C49.7083 65.4167 49.7083 65.4167 49.7083 65.4167C49.7083 65.4167 49.7083 65.4167 49.7083 65.4167C49.7083 65.4167 49.7083 65.4167 49.7083 65.4167C49.7083 65.4167 49.7083 65.4167 49.7083 65.4167C49.7083 65.4167 49.7083 65.4167 49.7083 65.4167C49.7083 65.4167 49.7083 65.4167 49.7083 65.4167C49.7083 65.4167 49.7083 65.4167 49.7083 65.4167C49.7083 65.4167 49.7083 65.4167 49.7083 65.4167C49.7083 65.4167 49.7083 65.4167 49.7083 65.4167C49.7083 65.4167 49.7083 65.4167 49.7083 65.4167C49.7083 65.4167 49.7083 65.4167 49.7083 65.4167C49.7083 65.4167 49.7083 65.4167 49.7083 65.4167C49.7083 65.4167 49.7083 65.4167 49.7083 65.4167C49.7083 65.4167 49.7083 65.4167 49.7083 65.4167C49.7083 65.4167 49.7083 65.4167 49.7083 65.4167C49.7083 65.4167 49.7083 65.4167 49.7083 65.4167C49.7083 65.4167 49.7083 65.4167 49.7083 65.4167C49.7083 65.4167 49.7083 65.4167 49.7083 65.4167C49.7083 65.4167 49.7083 65.4167 49.7083 65.4167C49.7083 65.4167 49.7083 65.4167 49.7083 65.4167C49.7083 65.4167 49.7083 65.4167 49.7083 65.4167C49.7083 65.4167 49.7083 65.4167 49.7083 65.4167C49.7083 65.4167 49.7083 65.4167 49.7083 65.4167C49.7083 65.4167 49.7083 65.4167 49.7083 65.4167C49.7083 65.4167 49.7083 65.4167 49.7083 65.4167C49.7083 65.4167 49.7083 65.4167 49.7083 65.4167C49.7083 65.4167 49.7083 65.4167 49.7083 65.4167C49.7083 65.4167 49.7083 65.4167 49.7083 65.4167C49.7083 65.4167 49.7083 65.4167 49.7083 65.4167C49.7083 65.4167 49.7083 65.4167 49.7083 65.4167C49.7083 65.4167 49.7083 65.4167 49.7083 65.4167C49.7083 65.4167 49.7083 65.4167 49.7083 65.4167C49.7083 65.4167 49.7083 65.4167 49.7083 65.4167C49.7083 65.4167 49.7083 65.4167 49.7083 65.4167C49.7083 65.4167 49.7083 65.4167 49.7083 65.4167C49.7083 65.4167 49.7083 65.4167 49.7083 65.4167C49.7083 65.4167 49.7083 65.4167 49.7083 65.4167C49.7083 65.4167 49.7083 65.4167 49.7083 65.4167C49.7083 65.4167 49.7083 65.4167 49.7083 65.4167C49.7083 65.4167 49.7083 65.4167 49.7083 65.4167C49.7083 65.4167 49.7083 65.4167 49.7083 65.4167C49.7083 65.4167 49.7083 65.4167 49.7083 65.4167C49.7083 65.4167 49.7083 65.4167 49.7083 65.4167C49.7083 65.4167 49.7083 65.4167 49.7083 65.4167C49.7083 65.4167 49.7083 65.4167 49.7083 65.4167C49.7083 65.4167 49.7083 65.4167 49.7083 65.4167C49.7083 65.4167 49.7083 65.4167 49.7083 65.4167C49.7083 65.4167 49.7083 65.4167 49.7083 65.4167C49.7083 65.4167 49.7083 65.4167 49.7083 65.4167C49.7083 65.4167 49.7083 65.4167 49.7083 65.4167C49.7083 65.4167 49.7083 65.4167 49.7083 65.4167C49.7083 65.4167 49.7083 65.4167 49.7083 65.4167C49.7083 65.4167 49.7083 65.4167 49.7083 65.4167C49.7083 65.4167 49.7083 65.4167 49.7083 65.4167C49.7083 65.4167 49.7083 65.4167 49.7083 65.4167C49.7083 65.4167 49.7083 65.4167 49.7083 65.4167C49.7083 65.4167 49.7083 65.4167 49.7083 65.4167C49.7083 65.4167 49.7083 65.4167 49.7083 65.4167C49.7083 65.4167 49.7083 65.4167 49.7083 65.4167C49.7083 65.4167 49.7083 65.4167 49.7083 65.4167C49.7083 65.4167 49.7083 65.4167 49.7083 65.4167C49.7083 65.4167 49.7083 65.4167 49.7083 65.4167C49.7083 65.4167 49.7083 65.4167 49.7083 65.4167C49.7083 65.4167 49.7083 65.4167 49.7083 65.4167C49.7083 65.4167 49.7083 65.4167 49.7083 65.4167C49.7083 65.4167 49.7083 65.4167 49.7083 65.4167C49.7083 65.4167 49.7083 65.4167 49.7083 65.4167C49.7083 65.4167 49.7083 65.4167 49.7083 65.4167C49.7083 65.4167 49.7083 65.4167 49.7083 65.4167C49.7083 65.4167 49.7083 65.4167 49.7083 65.4167C49.7083 65.4167 49.7083 65.4167 49.7083 65.4167C49.7083 65.4167 49.7083 65.4167 49.7083 65.4167C49.7083 65.4167 49.7083 65.4167 49.7083 65.4167C49.7083 65.4167 49.7083 65.4167 49.7083 65.4167C49.7083 65.4167 49.7083 65.4167 49.7083 65.4167C49.7083 65.4167 49.7083 65.4167 49.7083 65.4167C49.7083 65.4167 49.7083 65.4167 49.7083 65.4167C49.7083 65.4167 49.7083 65.4167 49.7083 65.4167C49.7083 65.4167 49.7083 65.4167 49.7083 65.4167C49.7083 65.4167 49.7083 65.4167 49.7083 65.4167C49.7083 65.4167 49.7083 65.4167 49.7083 65.4167C49.7083 65.4167 49.7083 65.4167 49.7083 65.4167C49.7083 65.4167 49.7083 65.4167 49.7083 65.4167C49.7083 65.4167 49.7083 65.4167 49.7083 65.4167C49.7083 65.4167 49.7083 65.4167 49.7083 65.4167C49.7083 65.4167 49.7083 65.4167 49.7083 65.4167C49.7083 65.4167 49.7083 65.4167 49.7083 65.4167C49.7083 65.4167 49.7083 65.4167 49.7083 65.4167C49.7083 65.4167 49.7083 65.4167 49.7083 65.4167C49.7083 65.4167 49.7083 65.4167 49.7083 65.4167C49.7083 65.4167 49.7083 65.4167 49.7083 65.4167C49.7083 65.4167 49.7083 65.4167 49.7083 65.4167C49.7083 65.4167 49.7083 65.4167 49.7083 65.4167C49.7083 65.4167 49.7083 65.4167 49.7083 65.4167C49.7083 65.4167 49.7083 65.4167 49.7083 65.4167C49.7083 65.4167 49.7083 65.4167 49.7083 65.4167C49.7083 65.4167 49.7083 65.4167 49.7083 65.4167C49.7083 65.4167 49.7083 65.4167 49.7083 65.4167C49.7083 65.4167 49.7083 65.4167 49.7083 65.4167C49.7083 65.4167 49.7083 65.4167 49.7083 65.4167C49.7083 65.4167 49.7083 65.4167 49.7083 65.4167C49.7083 65.4167 49.7083 65.4167 49.7083 65.4167C49.7083 65.4167 49.7083 65.4167 49.7083 65.4167C49.7083 65.4167 49.7083 65.4167 49.7083 65.4167C49.7083 65.4167 49.7083 65.4167 49.7083 65.4167C49.7083 65.4167 49.7083 65.4167 49.7083 65.4167C49.7083 65.4167 49.7083 65.4167 49.7083 65.4167C49.7083 65.4167 49.7083 65.4167 49.7083 65.4167C49.7083 65.4167 49.7083 65.4167 49.7083 65.4167C49.7083 65.4167 49.7083 65.4167 49.7083 65.4167C49.7083 65.4167 49.7083 65.4167 49.7083 65.4167C49.7083 65.4167 49.7083 65.4167 49.7083 65.4167C49.7083 65.4167 49.7083 65.4167 49.7083 65.4167C49.7083 65.4167 49.7083 65.4167 49.7083 65.4167C49.7083 65.4167 49.7083 65.4167 49.7083 65.4167C49.7083 65.4167 49.7083 65.4167 49.7083 65.4167C49.7083 65.4167 49.7083 65.4167 49.7083 65.4167C49.7083 65.4167 49.7083 65.4167 49.7083 65.4167C49.7083 65.4167 49.7083 65.4167 49.7083 65.4167C49.7083 65.4167 49.7083 65.4167 49.7083 65.4167C49.7083 65.4167 49.7083 65.4167 49.7083 65.4167C49.7083 65.4167 49.7083 65.4167 49.7083 65.4167C49.7083 65.4167 49.7083 65.4167 49.7083 65.4167C49.7083 65.4167 49.7083 65.4167 49.7083 65.4167C49.7083 65.4167 49.7083 65.4167 49.7083 65.4167C49.7083 65.4167 49.7083 65.4167 49.7083 65.4167C49.7083 65.4167 49.7083 65.4167 49.7083 65.4167C49.7083 65.4167 49.7083 65.4167 49.7083 65.4167C49.7083 65.4167 49.7083 65.4167 49.7083 65.4167C49.7083 65.4167 49.7083 65.4167 49.7083 65.4167C49.7083 65.4167 49.7083 65.4167 49.7083 65.4167C49.7083 65.4167 49.7083 65.4167 49.7083 65.4167C49.7083 65.4167 49.7083 65.4167 49.7083 65.4167C49.7083 65.4167 49.7083 65.4167 49.7083 65.4167C49.7083 65.4167 49.7083 65.4167 49.7083 65.4167C49.7083 65.4167 49.7083 65.4167 49.7083 65.4167C49.7083 65.4167 49.7083 65.4167 49.7083 65.4167C49.7083 65.4167 49.7083 65.4167 49.7083 65.4167C49.7083 65.4167 49.7083 65.4167 49.7083 65.4167C49.7083 65.4167 49.7083 65.4167 49.7083 65.4167C49.7083 65.4167 49.7083 65.4167 49.7083 65.4167C49.7083 65.4167 49.7083 65.4167 49.7083 65.4167C49.7083 65.4167 49.7083 65.4167 49.7083 65.4167C49.7083 65.4167 49.7083 65.4167 49.7083 65.4167C49.7083 65.4167 49.7083 65.4167 49.7083 65.4167C49.7083 65.4167 49.7083 65.4167 49.7083 65.4167C49.7083 65.4167 49.7083 65.4167 49.7083 65.4167C49.7083 65.4167 49.7083 65.4167 49.7083 65.4167C49.7083 65.4167 49.7083 65.4167 49.7083 65.4167C49.7083 65.4167 49.7083 65.4167 49.7083 65.4167C49.7083 65.4167 49.7083 65.4167 49.7083 65.4167C49.7083 65.4167 49.7083 65.4167 49.7083 65.4167C49.7083 65.4167 49.7083 65.4167 49.7083 65.4167C49.7083 65.4167 49.7083 65.4167 49.7083 65.4167C49.7083 65.4167 49.7083 65.4167 49.7083 65.4167C49.7083 65.4167 49.7083 65.4167 49.7083 65.4167C49.7083 65.4167 49.7083 65.4167 49.7083 65.4167C49.7083 65.4167 49.7083 65.4167 49.7083 65.4167C49.7083 65.4167 49.7083 65.4167 49.7083 65.4167C49.7083 65.4167 49.7083 65.4167 49.7083 65.4167C49.7083 65.4167 49.7083 65.4167 49.7083 65.4167C49.7083 65.4167 49.7083 65.4167 49.7083 65.4167C49.7083 65.4167 49.7083 65.4167 49.7083 65.4167C49.7083 65.4167 49.7083 65.4167 49.7083 65.4167C49.7083 65.4167 49.7083 65.4167 49.7083 65.4167C49.7083 65.4167 49.7083 65.4167 49.7083 65.4167C49.7083 65.4167 49.7083 65.4167 49.7083 65.4167C49.7083 65.4167 49.7083 65.4167 49.7083 65.4167C49.7083 65.4167 49.7083 65.4167 49.7083 65.4167C49.7083 65.4167 49.7083 65.4167 49.7083 65.4167C49.7083 65.4167 49.7083 65.4167 49.7083 65.4167C49.7083 65.4167 49.7083 65.4167 49.7083 65.4167C49.7083 65.4167 49.7083 65.4167 49.7083 65.4167C49.7083 65.4167 49.7083 65.4167 49.7083 65.4167C49.7083 65.4167 49.7083 65.4167 49.7083 65.4167C49.7083 65.4167 49.7083 65.4167 49.7083 65.4167C49.7083 65.4167 49.7083 65.4167 49.7083 65.4167C49.7083 65.4167 49.7083 65.4167 49.7083 65.4167C49.7083 65.4167 49.7083 65.4167 49.7083 65.4167C49.7083 65.4167 49.7083 65.4167 49.7083 65.4167C49.7083 65.4167 49.7083 65.4167 49.7083 65.4167C49.7083 65.4167 49.7083 65.4167 49.7083 65.4167C49.7083 65.4167 49.7083 65.4167 49.7083 65.4167C49.7083 65.4167 49.7083 65.4167 49.7083 65.4167C49.7083 65.4167 49.7083 65.4167 49.7083 65.4167C49.7083 65.4167 49.7083 65.4167 49.7083 65.4167C49.7083 65.4167 49.7083 65.4167 49.7083 65.4167C49.7083 65.4167 49.7083 65.4167 49.7083 65.4167C49.7083 65.4167 49.7083 65.4167 49.7083 65.4167C49.7083 65.4167 49.7083 65.4167 49.7083 65.4167C49.7083 65.4167 49.7083 65.4167 49.7083 65.4167C49.7083 65.4167 49.7083 65.4167 49.7083 65.4167C49.7083 65.4167 49.7083 65.4167 49.7083 65.4167C49.7083 65.4167 49.7083 65.4167 49.7083 65.4167C49.7083 65.4167 49.7083 65.4167 49.7083 65.4167C49.7083 65.4167 49.7083 65.4167 49.7083 65.4167C49.7083 65.4167 49.7083 65.4167 49.7083 65.4167C49.7083 65.4167 49.7083 65.4167 49.7083 65.4167C49.7083 65.4167 49.7083 65.4167 49.7083 65.4167C49.7083 65.4167 49.7083 65.4167 49.7083 65.4167C49.7083 65.4167 49.7083 65.4167 49.7083 65.4167C49.7083 65.4167 49.7083 65.4167 49.7083 65.4167C49.7083 65.4167 49.7083 65.4167 49.7083 65.4167C49.7083 65.4167 49.7083 65.4167 49.7083 65.4167C49.7083 65.4167 49.7083 65.4167 49.7083 65.4167C49.7083 65.4167 49.7083 65.4167 49.7083 65.4167C49.7083 65.4167 49.7083 65.4167 49.7083 65.4167C49.7083 65.4167 49.7083 65.4167 49.7083 65.4167C49.7083 65.4167 49.7083 65.4167 49.7083 65.4167C49.7083 65.4167 49.7083 65.4167 49.7083 65.4167C49.7083 65.4167 49.7083 65.4167 49.7083 65.4167C49.7083 65.4167 49.7083 65.4167 49.7083 65.4167C49.7083 65.4167 49.7083 65.4167 49.7083 65.4167C49.7083 65.4167 49.7083 65.4167 49.7083 65.4167C49.7083 65.4167 49.7083 65.4167 49.7083 65.4167C49.7083 65.4167 49.7083 65.4167 49.7083 65.4167C49.7083 65.4167 49.7083 65.4167 49.7083 65.4167C49.7083 65.4167 49.7083 65.4167 49.7083 65.4167C49.7083 65.4167 49.7083 65.4167 49.7083 65.4167C49.7083 65.4167 49.7083 65.4167 49.7083 65.4167C49.7083 65.4167 49.7083 65.4167 49.7083 65.4167C49.7083 65.4167 49.7083 65.4167 49.7083 65.4167C49.7083 65.4167 49.7083 65.4167 49.7083 65.4167C49.7083 65.4167 49.7083 65.4167 49.7083 65.4167C49.7083 65.4167 49.7083 65.4167 49.7083 65.4167C49.7083 65.4167 49.7083 65.4167 49.7083 65.4167C49.7083 65.4167 49.7083 65.4167 49.7083 65.4167C49.7083 65.4167 49.7083 65.4167 49.7083 65.4167C49.7083 65.4167 49.7083 65.4167 49.7083 65.4167C49.7083 65.4167 49.7083 65.4167 49.7083 65.4167C49.7083 65.4167 49.7083 65.4167 49.7083 65.4167C49.7083 65.4167 49.7083 65.4167 49.7083 65.4167C49.7083 65.4167 49.7083 65.4167 49.7083 65.4167C49.7083 65.4167 49.7083 65.4167 49.7083 65.4167C49.7083 65.4167 49.7083 65.4167 49.7083 65.4167C49.7083 65.4167 49.7083 65.4167 49.7083 65.4167C49.7083 65.4167 49.7083 65.4167 49.7083 65.4167C49.7083 65.4167 49.7083 65.4167 49.7083 65.4167C49.7083 65.4167 49.7083 65.4167 49.7083 65.4167C49.7083 65.4167 49.7083 65.4167 49.7083 65.4167C49.7083 65.4167 49.7083 65.4167 49.7083 65.4167C49.7083 65.4167 49.7083 65.4167 49.7083 65.4167C49.7083 65.4167 49.7083 65.4167 49.7083 65.4167C49.7083 65.4167 49.7083 65.4167 49.7083 65.4167C49.7083 65.4167 49.7083 65.4167 49.7083 65.4167C49.7083 65.4167 49.7083 65.4167 49.7083 65.4167C49.7083 65.4167 49.7083 65.4167 49.7083 65.4167C49.7083 65.4167 49.7083 65.4167 49.7083 65.4167C49.7083 65.4167 49.7083 65.4167 49.7083 65.4167C49.7083 65.4167 49.7083 65.4167 49.7083 65.4167C49.7083 65.4167 49.7083 65.4167 49.7083 65.4167C49.7083 65.4167 49.7083 65.4167 49.7083 65.4167C49.7083 65.4167 49.7083 65.4167 49.7083 65.4167C49.7083 65.4167 49.7083 65.4167 49.7083 65.4167C49.7083 65.4167 49.7083 65.4167 49.7083 65.4167C49.7083 65.4167 49.7083 65.4167 49.7083 65.4167C49.7083 65.4167 49.7083 65.4167 49.7083 65.4167C49.7083 65.4167 49.7083 65.4167 49.7083 65.4167C49.7083 65.4167 49.7083 65.4167 49.7083 65.4167C49.7083 65.4167 49.7083 65.4167 49.7083 65.4167C49.7083 65.4167 49.7083 65.4167 49.7083 65.4167C49.7083 65.4167 49.7083 65.4167 49.7083 65.4167C49.7083 65.4167 49.7083 65.4167 49.7083 65.4167C49.7083 65.4167 49.7083 65.4167 49.7083 65.4167C49.7083 65.4167 49.7083 65.4167 49.7083 65.4167C49.7083 65.4167 49.7083 65.4167 49.7083 65.4167C49.7083 65.4167 49.7083 65.4167 49.7083 65.4167C49.7083 65.4167 49.7083 65.4167 49.7083 65.4167C49.7083 65.4167 49.7083 65.4167 49.7083 65.4167C49.7083 65.4167 49.7083 65.4167 49.7083 65.4167C49.7083 65.4167 49.7083 65.4167 49.7083 65.4167C49.7083 65.4167 49.7083 65.4167 49.7083 65.4167C49.7083 65.4167 49.7083 65.4167 49.7083 65.4167C49.7083 65.4167 49.7083 65.4167 49.7083 65.4167C49.7083 65.4167 49.7083 65.4167 49.7083 65.4167C49.7083 65.4167 49.7083 65.4167 49.7083 65.4167C49.7083 65.4167 49.7083 65.4167 49.7083 65.4167C49.7083 65.4167 49.7083 65.4167 49.7083 65.4167C49.7083 65.4167 49.7083 65.4167 49.7083 65.4167C49.7083 65.4167 49.7083 65.4167 49.7083 65.4167C49.7083 65.4167 49.7083 65.4167 49.7083 65.4167C49.7083 65.4167 49.7083 65.4167 49.7083 65.4167C49.7083 65.4167 49.7083 65.4167 49.7083 65.4167C49.7083 65.4167 49.7083 65.4167 49.7083 65.4167C49.7083 65.4167 49.7083 65.4167 49.7083 65.4167C49.7083 65.4167 49.7083 65.4167 49.7083 65.4167C49.7083 65.4167 49.7083 65.4167 49.7083 65.4167C49.7083 65.4167 49.7083 65.4167 49.7083 65.4167C49.7083 65.4167 49.7083 65.4167 49.7083 65.4167C49.7083 65.4167 49.7083 65.4167 49.7083 65.4167C49.7083 65.4167 49.7083 65.4167 49.7083 65.4167C49.7083 65.4167 49.7083 65.4167 49.7083 65.4167C49.7083 65.4167 49.7083 65.4167 49.7083 65.4167C49.7083 65.4167 49.7083 65.4167 49.7083 65.4167C49.7083 65.4167 49.7083 65.4167 49.7083 65.4167C49.7083 65.4167 49.7083 65.4167 49.7083 65.4167C49.7083 65.4167 49.7083 65.4167 49.7083 65.4167C49.7083 65.4167 49.7083 65.4167 49.7083 65.4167C49.7083 65.4167 49.7083 65.4167 49.7083 65.4167C49.7083 65.4167 49.7083 65.4167 49.7083 65.4167C49.7083 65.4167 49.7083 65.4167 49.7083 65.4167C49.7083 65.4167 49.7083 65.4167 49.7083 65.4167C49.7083 65.4167 49.7083 65.4167 49.7083 65.4167C49.7083 65.4167 49.7083 65.4167 49.7083 65.4167C49.7083 65.4167 49.7083 65.4167 49.7083 65.4167C49.7083 65.4167 49.7083 65.4167 49.7083 65.4167C49.7083 65.4167 49.7083 65.4167 49.7083 65.4167C49.7083 65.4167 49.7083 65.4167 49.7083 65.4167C49.7083 65.4167 49.7083 65.4167 49.7083 65.4167C49.7083 65.4167 49.7083 65.4167 49.7083 65.4167C49.7083 65.4167 49.7083 65.4167 49.7083 65.4167C49.7083 65.4167 49.7083 65.4167 49.7083 65.4167C49.7083 65.4167 49.7083 65.4167 49.7083 65.4167C49.7083 65.4167 49.7083 65.4167 49.7083 65.4167C49.7083 65.4167 49.7083 65.4167 49.7083 65.4167C49.7083 65.4167 49.7083 65.4167 49.7083 65.4167C49.7083 65.4167 49.7083 65.4167 49.7083 65.4167C49.7083 65.4167 49.7083 65.4167 49.7083 65.4167C49.7083 65.4167 49.7083 65.4167 49.7083 65.4167C49.7083 65.4167 49.7083 65.4167 49.7083 65.4167C49.7083 65.4167 49.7083 65.4167 49.7083 65.4167C49.7083 65.4167 49.7083 65.4167 49.7083 65.4167C49.7083 65.4167 49.7083 65.4167 49.7083 65.4167C49.7083 65.4167 49.7083 65.4167 49.7083 65.4167C49.7083 65.4167 49.7083 65.4167 49.7083 65.4167C49.7083 65.4167 49.7083 65.4167 49.7083 65.4167C49.7083 65.4167 49.7083 65.4167 49.7083 65.4167C49.7083 65.4167 49.7083 65.4167 49.7083 65.4167C49.7083 65.4167 49.7083 65.4167 49.7083 65.4167C49.7083 65.4167 49.7083 65.4167 49.7083 65.4167C49.7083 65.4167 49.7083 65.4167 49.7083 65.4167C49.7083 65.4167 49.7083 65.4167 49.7083 65.4167C49.7083 65.4167 49.7083 65.4167 49.7083 65.4167C49.7083 65.4167 49.7083 65.4167 49.7083 65.4167C49.7083 65.4167 49.7083 65.4167 49.7083 65.4167C49.7083 65.4167 49.7083 65.4167 49.7083 65.4167C49.7083 65.4167 49.7083 65.4167 49.7083 65.4167C49.7083 65.4167 49.7083 65.4167 49.7083 65.4167C49.7083 65.4167 49.7083 65.4167 49.7083 65.4167C49.7083 65.4167 49.7083 65.4167 49.7083 65.4167C49.7083 65.4167 49.7083 65.4167 49.7083 65.4167C49.7083 65.4167 49.7083 65.4167 49.7083 65.4167C49.7083 65.4167 49.7083 65.4167 49.7083 65.4167C49.7083 65.4167 49.7083 65.4167 49.7083 65.4167C49.7083 65.4167 49.7083 65.4167 49.7083 65.4167C49.7083 65.4167 49.7083 65.4167 49.7083 65.4167C49.7083 65.4167 49.7083 65.4167 49.7083 65.4167H54.7917ZM59.8847 75.5917C56.7875 73.2692 54.7917 69.5764 54.7917 65.4167L49.7083 65.4167C49.7083 71.2442 52.5128 76.4175 56.835 79.6586L59.8847 75.5917ZM64.9515 90.1802C64.8703 86.2958 64.0659 82.4705 62.5894 78.8975L57.8914 80.8388C59.1277 83.8307 59.8013 87.0339 59.8693 90.2864L64.9515 90.1802ZM70.91 88.8283C68.7634 89.9017 66.2366 89.9017 64.09 88.8283L61.8167 93.375C65.3944 95.1639 69.6056 95.1639 73.1833 93.375L70.91 88.8283ZM72.4106 78.8975C70.9341 82.4705 70.1297 86.2958 70.0485 90.1802L75.1307 90.2864C75.1987 87.0339 75.8723 83.8307 77.1086 80.8388L72.4106 78.8975ZM73.1833 93.375C74.3829 92.7752 75.1039 91.5673 75.1307 90.2864L70.0485 90.1802C70.0599 89.6346 70.3683 89.0992 70.91 88.8283L73.1833 93.375ZM56.835 79.6586C57.2185 79.9462 57.4426 80.1149 57.6008 80.2442C57.7599 80.3743 57.7298 80.3677 57.6591 80.2766L61.6761 77.1614C61.2004 76.548 60.4613 76.0241 59.8847 75.5917L56.835 79.6586ZM62.5894 78.8975C62.3903 78.4156 62.1404 77.7602 61.6761 77.1614L57.6591 80.2766C57.6247 80.2323 57.6184 80.2084 57.6516 80.2774C57.6715 80.3188 57.6991 80.3798 57.7405 80.4769C57.7823 80.5749 57.8293 80.6886 57.8914 80.8388L62.5894 78.8975ZM59.8693 90.2864C59.8961 91.5673 60.6171 92.7752 61.8167 93.375L64.09 88.8283C64.6317 89.0992 64.9401 89.6346 64.9515 90.1802L59.8693 90.2864ZM75.1153 75.5917C74.5387 76.0241 73.7996 76.548 73.3239 77.1614L77.3409 80.2766C77.2702 80.3677 77.2401 80.3743 77.3992 80.2442C77.5574 80.1149 77.7815 79.9462 78.165 79.6586L75.1153 75.5917ZM77.1086 80.8388C77.1707 80.6886 77.2177 80.5749 77.2595 80.4769C77.3009 80.3798 77.3285 80.3188 77.3484 80.2774C77.3816 80.2084 77.3753 80.2323 77.3409 80.2766L73.3239 77.1614C72.8596 77.7602 72.6097 78.4156 72.4106 78.8975L77.1086 80.8388Z" fill="url(#paint1_linear_444_308)"/>
<defs>
<linearGradient id="paint0_linear_444_308" x1="57.1957" y1="78.61" x2="77.7065" y2="83.186" gradientUnits="userSpaceOnUse">
<stop stop-color="#517CE1"/>
<stop offset="1" stop-color="#ACC5FF"/>
</linearGradient>
<linearGradient id="paint1_linear_444_308" x1="42.9674" y1="23.7014" x2="95.4256" y2="25.7408" gradientUnits="userSpaceOnUse">
<stop stop-color="#517CE1"/>
<stop offset="1" stop-color="#ACC5FF"/>
</linearGradient>
</defs>
</svg>
