<svg width="135" height="135" viewBox="0 0 135 135" fill="none" xmlns="http://www.w3.org/2000/svg">
<circle cx="66.448" cy="71.2375" r="42.0241" fill="#F1F5FF"/>
<circle cx="27.0575" cy="42.8619" r="2.63367" fill="#EAF0FF"/>
<circle cx="96.3794" cy="25.7407" r="4.9082" fill="#DDE7FF"/>
<circle cx="27.8963" cy="98.2952" r="4.66878" fill="#EAF0FF"/>
<circle cx="111.465" cy="93.7456" r="4.66878" fill="#EAF0FF"/>
<circle cx="102.366" cy="99.0138" r="2.27453" fill="#F1F5FF"/>
<path d="M113.658 79.3382L114.391 82.8021L117.806 83.5459L114.391 84.2897L113.658 87.7535L112.925 84.2897L109.511 83.5459L112.925 82.8021L113.658 79.3382Z" fill="white"/>
<path d="M109.273 43.969C109.326 43.7158 109.688 43.7158 109.741 43.969L110.208 46.1746C110.228 46.2668 110.299 46.339 110.391 46.359L112.58 46.8359C112.832 46.8907 112.832 47.2491 112.58 47.3038L110.391 47.7807C110.299 47.8008 110.228 47.873 110.208 47.9651L109.741 50.1708C109.688 50.424 109.326 50.424 109.273 50.1708L108.806 47.9651C108.786 47.873 108.715 47.8008 108.622 47.7807L106.433 47.3038C106.182 47.2491 106.182 46.8907 106.433 46.8359L108.622 46.359C108.715 46.339 108.786 46.2668 108.806 46.1746L109.273 43.969Z" fill="#B9C9F0"/>
<path d="M22.3218 72.9429C22.3753 72.6897 22.7367 72.6897 22.7903 72.9429L23.5907 76.7245C23.6102 76.8166 23.682 76.8888 23.774 76.9088L27.5166 77.7241C27.7679 77.7789 27.7679 78.1373 27.5166 78.1921L23.774 79.0074C23.682 79.0274 23.6102 79.0996 23.5907 79.1918L22.7903 82.9734C22.7367 83.2265 22.3753 83.2265 22.3218 82.9734L21.5213 79.1918C21.5018 79.0996 21.4301 79.0274 21.338 79.0074L17.5955 78.1921C17.3442 78.1373 17.3442 77.7789 17.5955 77.7241L21.338 76.9088C21.4301 76.8888 21.5018 76.8166 21.5213 76.7245L22.3218 72.9429Z" fill="#B9C9F0"/>
<path d="M37.2404 32.6947C37.1016 32.6652 37.1016 32.4671 37.2404 32.4375L39.3391 31.9913C39.3897 31.9805 39.4292 31.9411 39.4402 31.8905L39.8921 29.8067C39.922 29.6686 40.1191 29.6686 40.149 29.8067L40.6009 31.8905C40.6119 31.9411 40.6514 31.9805 40.702 31.9913L42.8007 32.4375C42.9395 32.4671 42.9395 32.6652 42.8007 32.6947L40.702 33.141C40.6514 33.1518 40.6119 33.1912 40.6009 33.2417L40.149 35.3256C40.1191 35.4637 39.922 35.4637 39.8921 35.3256L39.4402 33.2417C39.4292 33.1912 39.3897 33.1518 39.3391 33.141L37.2404 32.6947Z" fill="#B9C9F0"/>
<path d="M60.0577 66.8636L66.6935 71.8404C67.5458 72.4796 68.7467 72.354 69.4483 71.5522L82.4614 56.68" stroke="url(#paint0_linear_444_290)" stroke-width="4.07341" stroke-linecap="round"/>
<path d="M84.4986 70.937C84.4986 74.767 83.2989 78.5008 81.068 81.614C78.8371 84.7272 75.6871 87.0634 72.0603 88.2945C68.4336 89.5257 64.5123 89.5898 60.8472 88.478C57.1821 87.3662 53.9574 85.1343 51.6258 82.0958C49.2942 79.0572 47.973 75.3647 47.8477 71.5367C47.7224 67.7088 48.7993 63.9377 50.9271 60.7532C53.0549 57.5686 56.1268 55.1306 59.7114 53.7815C63.2959 52.4324 67.213 52.2399 70.9125 53.2312" stroke="url(#paint1_linear_444_290)" stroke-width="4.07341" stroke-linecap="round"/>
<defs>
<linearGradient id="paint0_linear_444_290" x1="96.5758" y1="51.7211" x2="95.4845" y2="79.7451" gradientUnits="userSpaceOnUse">
<stop stop-color="#517CE1"/>
<stop offset="1" stop-color="#ACC5FF"/>
</linearGradient>
<linearGradient id="paint1_linear_444_290" x1="36.6803" y1="29.5104" x2="99.6493" y2="32.882" gradientUnits="userSpaceOnUse">
<stop stop-color="#517CE1"/>
<stop offset="1" stop-color="#ACC5FF"/>
</linearGradient>
</defs>
</svg>
