<svg xmlns="http://www.w3.org/2000/svg" width="22" height="22" viewBox="0 0 22 22" fill="none">
  <path d="M12.0085 6.92919L5.65555 13.2822C5.64582 13.2919 5.63615 13.3015 5.62656 13.3111C5.48308 13.4543 5.35607 13.581 5.26656 13.7391C5.17704 13.8972 5.13371 14.0714 5.08476 14.268C5.08148 14.2812 5.07819 14.2944 5.07485 14.3078L4.48889 16.6516C4.48694 16.6594 4.48497 16.6673 4.48299 16.6752C4.44834 16.8136 4.41133 16.9613 4.39919 17.0854C4.38582 17.2221 4.38894 17.4526 4.57386 17.6375C4.75879 17.8225 4.98933 17.8256 5.12597 17.8122C5.25007 17.8001 5.39785 17.7631 5.53622 17.7284C5.54411 17.7264 5.55197 17.7245 5.55979 17.7225L7.9036 17.1366C7.91696 17.1332 7.93021 17.1299 7.94336 17.1267C8.14005 17.0777 8.31417 17.0344 8.47227 16.9449C8.63037 16.8553 8.75712 16.7283 8.90029 16.5848C8.90986 16.5753 8.91951 16.5656 8.92924 16.5559L15.2822 10.2029L15.3028 10.1823C15.5796 9.90556 15.8181 9.6671 15.9833 9.45046C16.1605 9.21828 16.2946 8.96004 16.2946 8.64179C16.2946 8.32354 16.1605 8.06531 15.9833 7.83313C15.8181 7.61648 15.5796 7.37803 15.3028 7.10127L15.2822 7.0807L15.1307 6.92919L15.1101 6.90863C14.8334 6.63184 14.5949 6.39335 14.3783 6.22806C14.1461 6.05091 13.8879 5.91678 13.5696 5.91678C13.2514 5.91678 12.9931 6.05091 12.761 6.22806C12.5443 6.39335 12.3058 6.63184 12.0291 6.90863L12.0085 6.92919Z" stroke="white" stroke-width="0.883085"/>
  <path d="M11.3619 7.31716L14.0112 5.55099L16.6604 8.20025L14.8943 10.8495L11.3619 7.31716Z" fill="white"/>
</svg>