<svg width="21" height="21" viewBox="0 0 21 21" fill="none" xmlns="http://www.w3.org/2000/svg">
<g id="Health">
<path id="Vector 15" d="M3.89434 12.1697L9.97788 17.8845C10.1874 18.0814 10.2922 18.1798 10.4158 18.2041C10.4714 18.215 10.5286 18.215 10.5842 18.2041C10.7078 18.1798 10.8126 18.0814 11.0221 17.8845L11.0221 17.8845L17.1057 12.1697C18.8173 10.5618 19.0252 7.91578 17.5856 6.06031L17.3149 5.71143C15.5927 3.49176 12.1359 3.86401 10.9258 6.39944C10.7549 6.75759 10.2451 6.75759 10.0742 6.39944C8.86407 3.86401 5.40726 3.49176 3.6851 5.71143L3.41442 6.06031C1.97483 7.91578 2.18269 10.5618 3.89434 12.1697Z" stroke="#344054" stroke-width="0.875"/>
</g>
</svg>
