<svg xmlns="http://www.w3.org/2000/svg" width="22" height="22" viewBox="0 0 22 22" fill="none">
  <path d="M12.5718 18.2219L12.1303 18.2127L12.5718 18.2219ZM9.03509 18.2219L8.59364 18.2311L9.03509 18.2219ZM9.22373 18.5236L9.02626 18.9185H9.02626L9.22373 18.5236ZM7.62775 13.8412L7.36285 14.1945L7.62775 13.8412ZM8.08211 14.2213L7.73319 14.4919L8.08211 14.2213ZM13.9791 13.8413L13.7142 13.488L13.9791 13.8413ZM13.3257 14.6206L12.9176 14.452L13.3257 14.6206ZM13.5248 14.2213L13.1758 13.9507L13.5248 14.2213ZM15.6604 9.5995C15.6604 11.1896 14.8967 12.6013 13.7142 13.488L14.244 14.1945C15.6393 13.1482 16.5435 11.4794 16.5435 9.5995H15.6604ZM10.8035 4.74254C13.4859 4.74254 15.6604 6.91707 15.6604 9.5995H16.5435C16.5435 6.42936 13.9736 3.85945 10.8035 3.85945V4.74254ZM5.94649 9.5995C5.94649 6.91707 8.12102 4.74254 10.8035 4.74254V3.85945C7.63331 3.85945 5.0634 6.42936 5.0634 9.5995H5.94649ZM7.89264 13.488C6.71017 12.6013 5.94649 11.1896 5.94649 9.5995H5.0634C5.0634 11.4794 5.96755 13.1482 7.36285 14.1945L7.89264 13.488ZM9.47653 18.2127C9.44948 16.9179 9.18133 15.6429 8.68921 14.4519L7.87306 14.7892C8.32347 15.8792 8.56888 17.0461 8.59364 18.2311L9.47653 18.2127ZM12.1857 18.1286C11.3155 18.5637 10.2913 18.5637 9.42119 18.1286L9.02626 18.9185C10.145 19.4779 11.4619 19.4779 12.5806 18.9185L12.1857 18.1286ZM12.9176 14.452C12.4255 15.6429 12.1574 16.9179 12.1303 18.2127L13.0132 18.2311C13.038 17.0462 13.2834 15.8792 13.7338 14.7892L12.9176 14.452ZM12.5806 18.9185C12.8461 18.7857 13.0072 18.5175 13.0132 18.2311L12.1303 18.2127C12.131 18.1817 12.1487 18.1471 12.1857 18.1286L12.5806 18.9185ZM8.59364 18.2311C8.59963 18.5175 8.76074 18.7857 9.02626 18.9185L9.42119 18.1286C9.45816 18.1471 9.47589 18.1817 9.47653 18.2127L8.59364 18.2311ZM7.36285 14.1945C7.64415 14.4054 7.7065 14.4575 7.73319 14.4919L8.43103 13.9507C8.31195 13.7972 8.11997 13.6585 7.89264 13.488L7.36285 14.1945ZM8.68921 14.4519C8.61258 14.2665 8.54814 14.1017 8.43103 13.9507L7.73319 14.4919C7.76186 14.5288 7.78151 14.5676 7.87306 14.7892L8.68921 14.4519ZM13.7142 13.488C13.4869 13.6585 13.2949 13.7972 13.1758 13.9507L13.8737 14.4919C13.9004 14.4575 13.9627 14.4055 14.244 14.1945L13.7142 13.488ZM13.7338 14.7892C13.8253 14.5676 13.845 14.5289 13.8737 14.4919L13.1758 13.9507C13.0587 14.1018 12.9943 14.2665 12.9176 14.452L13.7338 14.7892Z" fill="white"/>
  <path d="M13.0111 15.3396V15.3396C11.5939 15.9064 10.0129 15.9064 8.5957 15.3396V15.3396" stroke="white" stroke-width="0.883085"/>
</svg>