<svg width="18" height="14" viewBox="0 0 18 14" fill="none" xmlns="http://www.w3.org/2000/svg">
<path fill-rule="evenodd" clip-rule="evenodd" d="M11.5037 0.0564053C12.4159 0.169842 13.2968 0.462544 14.0954 0.91767C14.8941 1.3728 15.5949 1.98136 16.1575 2.70835C18.5278 5.75902 17.9762 10.1522 14.9256 12.5225C14.9228 12.5242 14.9207 12.5263 14.918 12.5287C11.8683 14.8983 7.47552 14.347 5.10591 11.2974C5.10454 11.2953 5.10281 11.2933 5.10109 11.2916C4.79462 10.8966 4.53099 10.4703 4.31467 10.0196C4.75406 10.0069 5.19058 9.94426 5.61585 9.83301C5.7547 10.0766 5.9106 10.3101 6.0824 10.5316C8.0347 13.0386 11.649 13.488 14.1553 11.5353C16.662 9.58338 17.111 5.96906 15.159 3.46241C13.7721 1.68194 11.472 0.876919 9.27734 1.40373C9.06721 1.01762 8.81451 0.656242 8.52397 0.326352C8.60868 0.298806 8.69441 0.27436 8.78084 0.250257C9.66815 0.00475734 10.5951 -0.0606634 11.5075 0.0564053H11.5037ZM0 4.44717V3.91692C0.136695 1.74908 1.93714 0.0326472 4.13906 0.0316143H4.14079C6.43327 0.0312699 8.29156 1.88853 8.29294 4.18101C8.29397 6.47349 6.43602 8.33212 4.14354 8.33316C1.93955 8.33385 0.136695 6.61672 0 4.44717ZM4.40419 2.07171L4.04989 3.87215L3.69007 3.33123C2.91673 3.64146 2.48289 4.15312 2.41816 4.94127C1.78323 3.83084 2.16887 2.83472 2.97423 2.25144L2.60753 1.6995L4.40419 2.07171ZM3.88874 6.29272L4.24305 4.49262L4.60217 5.03389C5.3762 4.72331 5.81005 4.21165 5.87443 3.42351C6.5097 4.53428 6.12372 5.53005 5.3187 6.11333L5.6854 6.66562L3.88874 6.29272ZM10.2476 3.59842C10.2903 3.25823 10.6002 3.01721 10.9394 3.0599H10.9408C11.2789 3.10535 11.5168 3.41524 11.4731 3.75302L11.0702 6.99272L13.3104 8.73326C13.5806 8.94329 13.6306 9.33237 13.4205 9.6037C13.3199 9.73334 13.1719 9.81778 13.0091 9.83852C12.8462 9.85987 12.6816 9.81511 12.5525 9.71388L10.0452 7.76469C9.95864 7.70216 9.88993 7.61813 9.84582 7.52091C9.79923 7.41652 9.78185 7.30144 9.79554 7.18795L10.2476 3.60014V3.59842Z" fill="#2263FE"/>
</svg>
