<svg width="19" height="19" viewBox="0 0 19 19" fill="none" xmlns="http://www.w3.org/2000/svg">
<path d="M15.8334 4.75004L16.3932 5.30983L16.953 4.75004L16.3932 4.19025L15.8334 4.75004ZM3.16671 8.70837C3.16671 9.1456 3.52115 9.50004 3.95837 9.50004C4.3956 9.50004 4.75004 9.1456 4.75004 8.70837L3.16671 8.70837ZM13.2265 8.4765L16.3932 5.30983L15.2736 4.19025L12.1069 7.35691L13.2265 8.4765ZM16.3932 4.19025L13.2265 1.02358L12.1069 2.14317L15.2736 5.30983L16.3932 4.19025ZM15.8334 3.95837L7.12504 3.95837L7.12504 5.54171L15.8334 5.54171L15.8334 3.95837ZM3.16671 7.91671L3.16671 8.70837L4.75004 8.70837L4.75004 7.91671L3.16671 7.91671ZM7.12504 3.95837C4.93891 3.95837 3.16671 5.73058 3.16671 7.91671L4.75004 7.91671C4.75004 6.60503 5.81337 5.54171 7.12504 5.54171L7.12504 3.95837Z" fill="white"/>
<path d="M3.16663 14.25L2.60683 13.6902L2.04704 14.25L2.60683 14.8098L3.16663 14.25ZM15.8333 10.2916C15.8333 9.8544 15.4789 9.49996 15.0416 9.49996C14.6044 9.49996 14.25 9.8544 14.25 10.2916L15.8333 10.2916ZM5.7735 10.5235L2.60683 13.6902L3.72642 14.8098L6.89309 11.6431L5.7735 10.5235ZM2.60683 14.8098L5.7735 17.9764L6.89309 16.8568L3.72642 13.6902L2.60683 14.8098ZM3.16663 15.0416L11.875 15.0416L11.875 13.4583L3.16663 13.4583L3.16663 15.0416ZM15.8333 11.0833L15.8333 10.2916L14.25 10.2916L14.25 11.0833L15.8333 11.0833ZM11.875 15.0416C14.0611 15.0416 15.8333 13.2694 15.8333 11.0833L14.25 11.0833C14.25 12.395 13.1866 13.4583 11.875 13.4583L11.875 15.0416Z" fill="white"/>
</svg>
