<svg xmlns="http://www.w3.org/2000/svg" width="22" height="22" viewBox="0 0 22 22" fill="none">
  <path d="M18.4005 11.0995V15.5149C18.4005 17.1801 18.4005 18.0127 17.8832 18.53C17.3659 19.0473 16.5333 19.0473 14.8681 19.0473H6.47883C5.25954 19.0473 4.27112 18.0588 4.27112 16.8395V16.8395C4.27112 15.6203 5.25954 14.6318 6.47883 14.6318H14.8681C16.5333 14.6318 17.3659 14.6318 17.8832 14.1145C18.4005 13.5972 18.4005 12.7647 18.4005 11.0995V6.68407C18.4005 5.01891 18.4005 4.18633 17.8832 3.66903C17.3659 3.15173 16.5333 3.15173 14.8681 3.15173H7.80345C6.1383 3.15173 5.30572 3.15173 4.78842 3.66903C4.27112 4.18633 4.27112 5.01891 4.27112 6.68407V16.8395" stroke="white" stroke-width="0.883085"/>
  <path d="M8.68652 9.33334L9.82826 10.4751C10.1731 10.8199 10.7323 10.8199 11.0771 10.4751L13.985 7.56717" stroke="white" stroke-width="0.883085" stroke-linecap="round"/>
</svg>