<svg width="18" height="18" viewBox="0 0 18 18" fill="none" xmlns="http://www.w3.org/2000/svg">
<path d="M7.5 8.25L10.5 11.25L7.5 14.25" stroke="#2263FE" stroke-width="1.5"/>
<path d="M7.25297 4.615C5.67117 4.82692 4.29739 5.31914 3.38758 5.99995C2.47778 6.68076 2.094 7.50373 2.30775 8.31553C2.5215 9.12732 3.3182 9.87258 4.54942 10.4125C5.78063 10.9523 7.36239 11.25 9 11.25" stroke="#2263FE" stroke-width="1.5" stroke-linecap="round"/>
<path d="M14.8457 9.5625C15.2889 9.17867 15.5766 8.75495 15.6923 8.31553C15.808 7.87611 15.7494 7.42959 15.52 7.00149C15.2906 6.57338 14.8948 6.17205 14.3551 5.82043C13.8155 5.46881 13.1427 5.17377 12.375 4.95216" stroke="#2263FE" stroke-width="1.5" stroke-linecap="round"/>
</svg>
