<svg xmlns="http://www.w3.org/2000/svg" width="28" height="28" viewBox="0 0 28 28" fill="none">
  <path d="M14.5833 8.75L6.91622 16.4171C6.66827 16.6651 6.54429 16.789 6.46278 16.9413C6.38127 17.0937 6.34688 17.2656 6.27812 17.6094L5.4216 21.892C5.34399 22.28 5.30519 22.4741 5.41556 22.5844C5.52594 22.6948 5.71996 22.656 6.10801 22.5784L10.3906 21.7219C10.7344 21.6531 10.9063 21.6187 11.0587 21.5372C11.211 21.4557 11.3349 21.3317 11.5829 21.0838L11.5829 21.0838L19.25 13.4167L14.5833 8.75Z" fill="#EDEDED"/>
  <path d="M10.8232 21.5709L10.4783 20.9618L10.8232 21.5709C11.0466 21.4445 11.2251 21.2654 11.4108 21.0792C11.4245 21.0655 11.4382 21.0517 11.452 21.038L19.845 12.6449L19.8763 12.6136C20.2384 12.2516 20.5584 11.9317 20.7816 11.6391C21.0235 11.322 21.2167 10.9562 21.2167 10.5C21.2167 10.0438 21.0235 9.678 20.7816 9.36088C20.5584 9.06833 20.2384 8.74841 19.8764 8.38642L19.845 8.35511L19.6449 8.15494L19.6136 8.12363C19.2516 7.76158 18.9317 7.44161 18.6391 7.2184C18.322 6.97645 17.9562 6.78325 17.5 6.78325C17.0438 6.78325 16.678 6.97645 16.3609 7.2184C16.0683 7.44162 15.7484 7.76158 15.3864 8.12363L15.3551 8.15494L6.96201 16.548C6.94823 16.5618 6.93448 16.5755 6.92077 16.5892C6.73454 16.7749 6.55553 16.9534 6.42906 17.1768L7.0343 17.5194L6.42906 17.1768C6.3026 17.4001 6.24163 17.6455 6.17821 17.9007C6.17354 17.9195 6.16885 17.9383 6.16413 17.9572L5.39001 21.0537C5.3872 21.0649 5.38436 21.0763 5.38149 21.0877C5.33644 21.2675 5.28549 21.4708 5.26857 21.6438C5.24972 21.8364 5.25146 22.1855 5.53296 22.467C5.81446 22.7485 6.16356 22.7503 6.35621 22.7314C6.52919 22.7145 6.73249 22.6635 6.91224 22.6185C6.92369 22.6156 6.93504 22.6128 6.94628 22.61L10.0428 21.8358C10.0616 21.8311 10.0805 21.8264 10.0993 21.8218C10.3545 21.7583 10.5999 21.6974 10.8232 21.5709Z" stroke="#1B2559" stroke-width="1.4"/>
  <path d="M14.5833 8.75L19.25 13.4167" stroke="#1B2559" stroke-width="1.4"/>
</svg>